# Blender 3.4.1
# www.blender.org
mtllib Book_Pile_2.mtl
o Book_Pile_2
v 0.126199 0.030287 0.110948
v 0.139163 0.038958 -0.079853
v 0.126199 0.007277 0.110948
v 0.139163 -0.001395 -0.079853
v -0.127156 0.030287 -0.097948
v -0.140120 0.030287 0.092854
v -0.127156 0.007277 -0.097948
v -0.140120 0.007277 0.092854
v 0.139163 0.007277 -0.079853
v 0.125725 -0.001395 0.117926
v 0.139163 0.030287 -0.079853
v 0.125725 0.038958 0.117926
v -0.127156 0.038958 -0.097948
v -0.127156 -0.001395 -0.097948
v -0.140594 -0.001395 0.099832
v -0.140594 0.038958 0.099832
v 0.125891 0.029176 -0.074587
v 0.125891 0.008387 -0.074587
v -0.114719 0.029176 -0.090934
v -0.114719 0.008387 -0.090934
v 0.114179 0.008387 0.097795
v 0.114179 0.029176 0.097795
v -0.126431 0.008387 0.081447
v -0.126431 0.029176 0.081447
v 0.110981 0.070527 0.138652
v 0.160375 0.079198 -0.046100
v 0.110981 0.047517 0.138652
v 0.160375 0.038846 -0.046100
v -0.097501 0.070527 -0.115044
v -0.146895 0.070527 0.069708
v -0.097501 0.047517 -0.115044
v -0.146895 0.047517 0.069708
v 0.160375 0.047517 -0.046100
v 0.109174 0.038846 0.145409
v 0.160375 0.070527 -0.046100
v 0.109174 0.079198 0.145409
v -0.097501 0.079198 -0.115044
v -0.097501 0.038846 -0.115044
v -0.148701 0.038846 0.076465
v -0.148701 0.079198 0.076465
v 0.146338 0.069416 -0.043483
v 0.146338 0.048627 -0.043483
v -0.086643 0.069416 -0.105771
v -0.086643 0.048627 -0.105771
v 0.101713 0.048627 0.123434
v 0.101713 0.069416 0.123434
v -0.131269 0.048627 0.061146
v -0.131269 0.069416 0.061146
v -0.117614 0.116546 -0.076366
v -0.128877 0.126555 0.103177
v -0.117614 0.089986 -0.076366
v -0.128877 0.079977 0.103177
v 0.121728 0.116546 0.118897
v 0.132991 0.116546 -0.060646
v 0.121728 0.089986 0.118897
v 0.132991 0.089986 -0.060646
v -0.128877 0.089986 0.103177
v -0.117202 0.079977 -0.082933
v -0.128877 0.116546 0.103177
v -0.117202 0.126555 -0.082933
v 0.121728 0.126555 0.118897
v 0.121728 0.079977 0.118897
v 0.133403 0.079977 -0.067212
v 0.133403 0.126555 -0.067212
v -0.116418 0.115264 0.098158
v -0.116418 0.091268 0.098158
v 0.109994 0.115264 0.112361
v 0.109994 0.091268 0.112361
v -0.106243 0.091268 -0.064053
v -0.106243 0.115264 -0.064053
v 0.120170 0.091268 -0.049850
v 0.120170 0.115264 -0.049850
v -0.077620 0.157664 -0.082097
v -0.128438 0.166100 0.061080
v -0.077620 0.135278 -0.082097
v -0.128438 0.126843 0.061080
v 0.071408 0.157664 0.132012
v 0.122226 0.157664 -0.011165
v 0.071408 0.135278 0.132012
v 0.122226 0.135278 -0.011165
v -0.128438 0.135278 0.061080
v -0.075761 0.126843 -0.087333
v -0.128438 0.157664 0.061080
v -0.075761 0.166100 -0.087333
v 0.071408 0.166100 0.132012
v 0.071408 0.126843 0.132012
v 0.124084 0.126843 -0.016401
v 0.124084 0.166100 -0.016401
v -0.117156 0.156583 0.059897
v -0.117156 0.136359 0.059897
v 0.063397 0.156583 0.123981
v 0.063397 0.136359 0.123981
v -0.071244 0.136359 -0.069458
v -0.071244 0.156583 -0.069458
v 0.109309 0.136359 -0.005374
v 0.109309 0.156583 -0.005374
v 0.111848 0.202148 0.097524
v 0.124440 0.211951 -0.053789
v 0.111848 0.176132 0.097524
v 0.124440 0.166328 -0.053789
v -0.086763 0.202148 -0.071365
v -0.099355 0.202148 0.079949
v -0.086763 0.176132 -0.071365
v -0.099355 0.176132 0.079949
v 0.124440 0.176132 -0.053789
v 0.111387 0.166328 0.103058
v 0.124440 0.202148 -0.053789
v 0.111387 0.211951 0.103058
v -0.086763 0.211951 -0.071365
v -0.086763 0.166328 -0.071365
v -0.099815 0.166328 0.085482
v -0.099815 0.211951 0.085482
v 0.113840 0.200892 -0.049769
v 0.113840 0.177388 -0.049769
v -0.076974 0.200892 -0.065648
v -0.076974 0.177388 -0.065648
v 0.102464 0.177388 0.086938
v 0.102464 0.200892 0.086938
v -0.088350 0.177388 0.071059
v -0.088350 0.200892 0.071059
v 0.104806 0.184487 -0.044322
v -0.034705 0.184487 -0.108006
v -0.081999 0.184487 -0.004399
v 0.081032 0.147576 0.002787
v 0.097370 0.147576 0.127451
v 0.151234 0.147576 0.075316
v 0.078066 0.057500 0.059121
v -0.030208 0.057500 0.011344
v 0.142399 0.057500 -0.086675
v 0.034125 0.057500 -0.134452
v -0.137791 0.059260 0.055216
v -0.163518 0.059260 0.022466
v -0.119419 0.059260 -0.012177
v -0.078922 0.097686 0.085541
v -0.161786 0.097686 0.039788
v -0.094829 0.097686 -0.068956
v 0.027168 0.147576 0.054921
v -0.095493 0.240720 -0.003160
v -0.061733 0.248184 0.118570
v -0.095493 0.220911 -0.003160
v -0.061733 0.213446 0.118570
v 0.108177 0.240720 0.071449
v 0.074418 0.240720 -0.050282
v 0.108177 0.220911 0.071449
v 0.074418 0.220911 -0.050282
v -0.061733 0.220911 0.118570
v -0.096727 0.213446 -0.007612
v -0.061733 0.240720 0.118570
v -0.096727 0.248184 -0.007612
v 0.108177 0.248184 0.071449
v 0.108177 0.213446 0.071449
v 0.073183 0.213446 -0.054734
v 0.073183 0.248184 -0.054734
v -0.054618 0.239764 0.112378
v -0.054618 0.221867 0.112378
v 0.098889 0.239764 0.069806
v 0.098889 0.221867 0.069806
v -0.085119 0.221867 0.002399
v -0.085119 0.239764 0.002399
v 0.068389 0.221867 -0.040173
v 0.068389 0.239764 -0.040173
v -0.109430 0.232012 0.017615
v 0.004065 0.232012 0.057785
v -0.017051 0.232012 -0.010819
v -0.088313 0.232012 0.086219
vn -0.0678 -0.0000 0.9977
vn 0.0857 0.9963 0.0058
vn -0.0000 -1.0000 -0.0000
vn -0.0000 1.0000 -0.0000
vn 0.7382 -0.0000 -0.6746
vn 0.0120 0.9841 -0.1772
vn 0.9977 -0.0000 0.0678
vn 0.0678 -0.0000 -0.9977
vn -0.9977 -0.0000 -0.0678
vn -0.6401 -0.0000 -0.7683
vn -0.0857 0.9963 -0.0058
vn 0.0120 -0.9841 -0.1772
vn 0.0857 -0.9963 0.0058
vn -0.0857 -0.9963 -0.0058
vn -0.2583 -0.0000 0.9661
vn 0.0830 0.9963 0.0222
vn 0.8541 -0.0000 -0.5202
vn 0.0459 0.9841 -0.1716
vn 0.9661 -0.0000 0.2583
vn 0.2583 -0.0000 -0.9661
vn -0.9661 -0.0000 -0.2583
vn -0.4805 -0.0000 -0.8770
vn -0.0830 0.9963 -0.0222
vn 0.0459 -0.9841 -0.1716
vn 0.0830 -0.9963 0.0222
vn -0.0830 -0.9963 -0.0222
vn 0.0626 -0.0000 -0.9980
vn -0.1050 0.9945 -0.0066
vn -0.7347 -0.0000 0.6784
vn -0.0135 0.9763 0.2158
vn -0.9980 -0.0000 -0.0626
vn -0.0626 -0.0000 0.9980
vn 0.9980 -0.0000 0.0626
vn 0.6441 -0.0000 0.7649
vn 0.1050 0.9945 0.0066
vn -0.0135 -0.9763 0.2158
vn -0.1050 -0.9945 -0.0066
vn 0.1050 -0.9945 0.0066
vn 0.3345 -0.0000 -0.9424
vn -0.0989 0.9945 -0.0351
vn -0.8928 -0.0000 0.4504
vn -0.0722 0.9764 0.2034
vn -0.9424 -0.0000 -0.3345
vn -0.3345 -0.0000 0.9424
vn 0.9424 -0.0000 0.3345
vn 0.4091 -0.0000 0.9125
vn 0.0989 0.9945 0.0351
vn -0.0722 -0.9764 0.2034
vn -0.0989 -0.9945 -0.0351
vn 0.0989 -0.9945 0.0351
vn -0.0829 -0.0000 0.9966
vn 0.1214 0.9925 0.0101
vn 0.7483 -0.0000 -0.6633
vn 0.0206 0.9685 -0.2481
vn 0.9966 -0.0000 0.0829
vn 0.0829 -0.0000 -0.9966
vn -0.9966 -0.0000 -0.0829
vn -0.6284 -0.0000 -0.7779
vn -0.1214 0.9925 -0.0101
vn 0.0206 -0.9685 -0.2481
vn 0.1214 -0.9925 0.0101
vn -0.1214 -0.9925 -0.0101
vn -0.2672 -0.0000 -0.9636
vn -0.1076 0.9937 0.0298
vn -0.4724 -0.0000 0.8814
vn 0.0612 0.9734 0.2206
vn -0.9636 -0.0000 0.2672
vn 0.2672 -0.0000 0.9636
vn 0.9636 -0.0000 -0.2672
vn 0.8589 -0.0000 0.5122
vn 0.1076 0.9937 -0.0298
vn 0.0612 -0.9734 0.2206
vn -0.1076 -0.9937 0.0298
vn 0.1076 -0.9937 -0.0298
vt 0.624088 0.886024
vt 0.624088 0.870214
vt 0.624088 0.886024
vt 0.624088 0.870214
vt 0.624088 0.870214
vt 0.624088 0.886024
vt 0.624088 0.870214
vt 0.624088 0.886024
vt 0.624088 0.870214
vt 0.624088 0.886602
vt 0.624088 0.870214
vt 0.624088 0.886602
vt 0.624088 0.870214
vt 0.624088 0.870214
vt 0.624088 0.886602
vt 0.624088 0.886602
vt 0.216640 0.782561
vt 0.624088 0.870214
vt 0.624088 0.870214
vt 0.216640 0.782561
vt 0.216640 0.782561
vt 0.624088 0.870214
vt 0.216640 0.782561
vt 0.624088 0.870214
vt 0.624088 0.886024
vt 0.216640 0.798371
vt 0.216640 0.798371
vt 0.624088 0.886024
vt 0.216640 0.798371
vt 0.624088 0.886024
vt 0.216640 0.798371
vt 0.624088 0.886024
vt 0.543359 0.883420
vt 0.543359 0.867610
vt 0.543359 0.883420
vt 0.543359 0.867610
vt 0.543359 0.867610
vt 0.543359 0.883420
vt 0.543359 0.867610
vt 0.543359 0.883420
vt 0.543359 0.867610
vt 0.543359 0.883998
vt 0.543359 0.867610
vt 0.543359 0.883998
vt 0.543359 0.867610
vt 0.543359 0.867610
vt 0.543359 0.883998
vt 0.543359 0.883998
vt 0.216640 0.782561
vt 0.543359 0.867610
vt 0.543359 0.867610
vt 0.216640 0.782561
vt 0.216640 0.782561
vt 0.543359 0.867610
vt 0.216640 0.782561
vt 0.543359 0.867610
vt 0.543359 0.883420
vt 0.216640 0.798371
vt 0.216640 0.798371
vt 0.543359 0.883420
vt 0.216640 0.798371
vt 0.543359 0.883420
vt 0.216640 0.798371
vt 0.543359 0.883420
vt 0.543359 0.883420
vt 0.543359 0.867610
vt 0.543359 0.883420
vt 0.543359 0.867610
vt 0.543359 0.867610
vt 0.543359 0.883420
vt 0.543359 0.867610
vt 0.543359 0.883420
vt 0.543359 0.867610
vt 0.543359 0.883998
vt 0.543359 0.867610
vt 0.543359 0.883998
vt 0.543359 0.867610
vt 0.543359 0.867610
vt 0.543359 0.883998
vt 0.543359 0.883998
vt 0.216640 0.782561
vt 0.543359 0.867610
vt 0.543359 0.867610
vt 0.216640 0.782561
vt 0.216640 0.782561
vt 0.543359 0.867610
vt 0.216640 0.782561
vt 0.543359 0.867610
vt 0.543359 0.883420
vt 0.216640 0.798371
vt 0.216640 0.798371
vt 0.543359 0.883420
vt 0.216640 0.798371
vt 0.543359 0.883420
vt 0.216640 0.798371
vt 0.543359 0.883420
vt 0.543359 0.883420
vt 0.543359 0.867610
vt 0.543359 0.883420
vt 0.543359 0.867610
vt 0.543359 0.867610
vt 0.543359 0.883420
vt 0.543359 0.867610
vt 0.543359 0.883420
vt 0.543359 0.867610
vt 0.543359 0.883998
vt 0.543359 0.867610
vt 0.543359 0.883998
vt 0.543359 0.867610
vt 0.543359 0.867610
vt 0.543359 0.883998
vt 0.543359 0.883998
vt 0.216640 0.782561
vt 0.543359 0.867610
vt 0.543359 0.867610
vt 0.216640 0.782561
vt 0.216640 0.782561
vt 0.543359 0.867610
vt 0.216640 0.782561
vt 0.543359 0.867610
vt 0.543359 0.883420
vt 0.216640 0.798371
vt 0.216640 0.798371
vt 0.543359 0.883420
vt 0.216640 0.798371
vt 0.543359 0.883420
vt 0.216640 0.798371
vt 0.543359 0.883420
vt 0.624088 0.886024
vt 0.624088 0.870214
vt 0.624088 0.886024
vt 0.624088 0.870214
vt 0.624088 0.870214
vt 0.624088 0.886024
vt 0.624088 0.870214
vt 0.624088 0.886024
vt 0.624088 0.870214
vt 0.624088 0.886602
vt 0.624088 0.870214
vt 0.624088 0.886602
vt 0.624088 0.870214
vt 0.624088 0.870214
vt 0.624088 0.886602
vt 0.624088 0.886602
vt 0.216640 0.782561
vt 0.624088 0.870214
vt 0.624088 0.870214
vt 0.216640 0.782561
vt 0.216640 0.782561
vt 0.624088 0.870214
vt 0.216640 0.782561
vt 0.624088 0.870214
vt 0.624088 0.886024
vt 0.216640 0.798371
vt 0.216640 0.798371
vt 0.624088 0.886024
vt 0.216640 0.798371
vt 0.624088 0.886024
vt 0.216640 0.798371
vt 0.624088 0.886024
vt 0.234813 0.785253
vt 0.234813 0.785253
vt 0.234813 0.801641
vt 0.208771 0.803482
vt 0.208771 0.819870
vt 0.208771 0.803482
vt 0.234813 0.785253
vt 0.234813 0.801641
vt 0.234813 0.785253
vt 0.234813 0.801641
vt 0.234813 0.785253
vt 0.234813 0.801641
vt 0.234813 0.801641
vt 0.234813 0.785253
vt 0.234813 0.801641
vt 0.234813 0.801641
vt 0.208771 0.819870
vt 0.543359 0.883420
vt 0.543359 0.867610
vt 0.543359 0.883420
vt 0.543359 0.867610
vt 0.543359 0.867610
vt 0.543359 0.883420
vt 0.543359 0.867610
vt 0.543359 0.883420
vt 0.543359 0.867610
vt 0.543359 0.883998
vt 0.543359 0.867610
vt 0.543359 0.883998
vt 0.543359 0.867610
vt 0.543359 0.867610
vt 0.543359 0.883998
vt 0.543359 0.883998
vt 0.216640 0.782561
vt 0.543359 0.867610
vt 0.543359 0.867610
vt 0.216640 0.782561
vt 0.216640 0.782561
vt 0.543359 0.867610
vt 0.216640 0.782561
vt 0.543359 0.867610
vt 0.543359 0.883420
vt 0.216640 0.798371
vt 0.216640 0.798371
vt 0.543359 0.883420
vt 0.216640 0.798371
vt 0.543359 0.883420
vt 0.216640 0.798371
vt 0.543359 0.883420
vt 0.208771 0.803482
vt 0.208771 0.819870
vt 0.208771 0.803482
vt 0.208771 0.819870
s 0
usemtl Palette
f 16/16/1 15/15/1 10/10/1 12/12/1
f 3/3/2 9/9/2 18/19/2 21/25/2
f 15/15/3 14/14/3 4/4/3 10/10/3
f 13/13/4 16/16/4 12/12/4 2/2/4
f 1/1/5 3/3/5 21/25/5 22/28/5
f 9/9/6 7/7/6 20/24/6 18/19/6
f 9/9/7 3/3/7 10/10/7 4/4/7
f 1/1/7 11/11/7 2/2/7 12/12/7
f 3/3/7 1/1/7 12/12/7 10/10/7
f 11/11/8 5/5/8 13/13/8 2/2/8
f 7/7/8 9/9/8 4/4/8 14/14/8
f 8/8/9 7/7/9 14/14/9 15/15/9
f 5/5/9 6/6/9 16/16/9 13/13/9
f 6/6/9 8/8/9 15/15/9 16/16/9
f 18/20/7 17/17/7 22/27/7 21/26/7
f 20/23/8 19/21/8 17/17/8 18/20/8
f 20/23/9 23/29/9 24/31/9 19/21/9
f 8/8/10 6/6/10 24/32/10 23/30/10
f 7/7/11 8/8/11 23/30/11 20/24/11
f 5/5/12 11/11/12 17/18/12 19/22/12
f 11/11/13 1/1/13 22/28/13 17/18/13
f 6/6/14 5/5/14 19/22/14 24/32/14
f 40/48/15 39/47/15 34/42/15 36/44/15
f 27/35/16 33/41/16 42/51/16 45/57/16
f 39/47/3 38/46/3 28/36/3 34/42/3
f 37/45/4 40/48/4 36/44/4 26/34/4
f 25/33/17 27/35/17 45/57/17 46/60/17
f 33/41/18 31/39/18 44/56/18 42/51/18
f 33/41/19 27/35/19 34/42/19 28/36/19
f 25/33/19 35/43/19 26/34/19 36/44/19
f 27/35/19 25/33/19 36/44/19 34/42/19
f 35/43/20 29/37/20 37/45/20 26/34/20
f 31/39/20 33/41/20 28/36/20 38/46/20
f 32/40/21 31/39/21 38/46/21 39/47/21
f 29/37/21 30/38/21 40/48/21 37/45/21
f 30/38/21 32/40/21 39/47/21 40/48/21
f 42/52/19 41/49/19 46/59/19 45/58/19
f 44/55/20 43/53/20 41/49/20 42/52/20
f 44/55/21 47/61/21 48/63/21 43/53/21
f 32/40/22 30/38/22 48/64/22 47/62/22
f 31/39/23 32/40/23 47/62/23 44/56/23
f 29/37/24 35/43/24 41/50/24 43/54/24
f 35/43/25 25/33/25 46/60/25 41/50/25
f 30/38/26 29/37/26 43/54/26 48/64/26
f 64/80/27 63/79/27 58/74/27 60/76/27
f 51/67/28 57/73/28 66/83/28 69/89/28
f 63/79/3 62/78/3 52/68/3 58/74/3
f 61/77/4 64/80/4 60/76/4 50/66/4
f 49/65/29 51/67/29 69/89/29 70/92/29
f 57/73/30 55/71/30 68/88/30 66/83/30
f 57/73/31 51/67/31 58/74/31 52/68/31
f 49/65/31 59/75/31 50/66/31 60/76/31
f 51/67/31 49/65/31 60/76/31 58/74/31
f 59/75/32 53/69/32 61/77/32 50/66/32
f 55/71/32 57/73/32 52/68/32 62/78/32
f 56/72/33 55/71/33 62/78/33 63/79/33
f 53/69/33 54/70/33 64/80/33 61/77/33
f 54/70/33 56/72/33 63/79/33 64/80/33
f 66/84/31 65/81/31 70/91/31 69/90/31
f 68/87/32 67/85/32 65/81/32 66/84/32
f 68/87/33 71/93/33 72/95/33 67/85/33
f 56/72/34 54/70/34 72/96/34 71/94/34
f 55/71/35 56/72/35 71/94/35 68/88/35
f 53/69/36 59/75/36 65/82/36 67/86/36
f 59/75/37 49/65/37 70/92/37 65/82/37
f 54/70/38 53/69/38 67/86/38 72/96/38
f 88/112/39 87/111/39 82/106/39 84/108/39
f 75/99/40 81/105/40 90/115/40 93/121/40
f 87/111/3 86/110/3 76/100/3 82/106/3
f 85/109/4 88/112/4 84/108/4 74/98/4
f 73/97/41 75/99/41 93/121/41 94/124/41
f 81/105/42 79/103/42 92/120/42 90/115/42
f 81/105/43 75/99/43 82/106/43 76/100/43
f 73/97/43 83/107/43 74/98/43 84/108/43
f 75/99/43 73/97/43 84/108/43 82/106/43
f 83/107/44 77/101/44 85/109/44 74/98/44
f 79/103/44 81/105/44 76/100/44 86/110/44
f 80/104/45 79/103/45 86/110/45 87/111/45
f 77/101/45 78/102/45 88/112/45 85/109/45
f 78/102/45 80/104/45 87/111/45 88/112/45
f 90/116/43 89/113/43 94/123/43 93/122/43
f 92/119/44 91/117/44 89/113/44 90/116/44
f 92/119/45 95/125/45 96/127/45 91/117/45
f 80/104/46 78/102/46 96/128/46 95/126/46
f 79/103/47 80/104/47 95/126/47 92/120/47
f 77/101/48 83/107/48 89/114/48 91/118/48
f 83/107/49 73/97/49 94/124/49 89/114/49
f 78/102/50 77/101/50 91/118/50 96/128/50
f 112/144/51 111/143/51 106/138/51 108/140/51
f 99/131/52 105/137/52 114/147/52 117/153/52
f 111/143/3 110/142/3 100/132/3 106/138/3
f 109/141/4 112/144/4 108/140/4 98/130/4
f 97/129/53 99/131/53 117/153/53 118/156/53
f 105/137/54 103/135/54 116/152/54 114/147/54
f 105/137/55 99/131/55 106/138/55 100/132/55
f 97/129/55 107/139/55 98/130/55 108/140/55
f 99/131/55 97/129/55 108/140/55 106/138/55
f 107/139/56 101/133/56 109/141/56 98/130/56
f 103/135/56 105/137/56 100/132/56 110/142/56
f 104/136/57 103/135/57 110/142/57 111/143/57
f 101/133/57 102/134/57 112/144/57 109/141/57
f 102/134/57 104/136/57 111/143/57 112/144/57
f 114/148/55 113/145/55 118/155/55 117/154/55
f 116/151/56 115/149/56 113/145/56 114/148/56
f 116/151/57 119/157/57 120/159/57 115/149/57
f 104/136/58 102/134/58 120/160/58 119/158/58
f 103/135/59 104/136/59 119/158/59 116/152/59
f 101/133/60 107/139/60 113/146/60 115/150/60
f 107/139/61 97/129/61 118/156/61 113/146/61
f 102/134/62 101/133/62 115/150/62 120/160/62
f 122/162/4 123/163/4 121/161/4
f 124/164/4 137/177/4 125/165/4 126/166/4
f 129/169/4 130/170/4 128/168/4 127/167/4
f 131/171/4 133/173/4 132/172/4
f 134/174/4 136/176/4 135/175/4
f 153/193/63 152/192/63 147/187/63 149/189/63
f 140/180/64 146/186/64 155/196/64 158/202/64
f 152/192/3 151/191/3 141/181/3 147/187/3
f 150/190/4 153/193/4 149/189/4 139/179/4
f 138/178/65 140/180/65 158/202/65 159/205/65
f 146/186/66 144/184/66 157/201/66 155/196/66
f 146/186/67 140/180/67 147/187/67 141/181/67
f 138/178/67 148/188/67 139/179/67 149/189/67
f 140/180/67 138/178/67 149/189/67 147/187/67
f 148/188/68 142/182/68 150/190/68 139/179/68
f 144/184/68 146/186/68 141/181/68 151/191/68
f 145/185/69 144/184/69 151/191/69 152/192/69
f 142/182/69 143/183/69 153/193/69 150/190/69
f 143/183/69 145/185/69 152/192/69 153/193/69
f 155/197/67 154/194/67 159/204/67 158/203/67
f 157/200/68 156/198/68 154/194/68 155/197/68
f 157/200/69 160/206/69 161/208/69 156/198/69
f 145/185/70 143/183/70 161/209/70 160/207/70
f 144/184/71 145/185/71 160/207/71 157/201/71
f 142/182/72 148/188/72 154/195/72 156/199/72
f 148/188/73 138/178/73 159/205/73 154/195/73
f 143/183/74 142/182/74 156/199/74 161/209/74
f 162/210/4 165/213/4 163/211/4 164/212/4
