# Blender 3.4.1
# www.blender.org
mtllib Book_Pile_1.mtl
o Book_Pile_1
v 0.163373 0.030287 0.012209
v 0.067256 0.038958 -0.153123
v 0.163373 0.007277 0.012209
v 0.067256 -0.001395 -0.153123
v -0.163513 0.030287 -0.018963
v -0.067396 0.030287 0.146369
v -0.163513 0.007277 -0.018963
v -0.067396 0.007277 0.146369
v 0.067256 0.007277 -0.153123
v 0.166889 -0.001395 0.018255
v 0.067256 0.030287 -0.153123
v 0.166889 0.038958 0.018255
v -0.163513 0.038958 -0.018963
v -0.163513 -0.001395 -0.018963
v -0.063880 -0.001395 0.152416
v -0.063880 0.038958 0.152416
v 0.059210 0.029176 -0.141327
v 0.059210 0.008387 -0.141327
v -0.149281 0.029176 -0.020118
v -0.149281 0.008387 -0.020118
v 0.146049 0.008387 0.008044
v 0.146049 0.029176 0.008044
v -0.062443 0.008387 0.129253
v -0.062443 0.029176 0.129253
v 0.160267 0.070527 -0.038532
v 0.018163 0.079198 -0.166515
v 0.160267 0.047517 -0.038532
v 0.018163 0.038846 -0.166515
v -0.160475 0.070527 0.031832
v -0.018371 0.070527 0.159816
v -0.160475 0.047517 0.031832
v -0.018371 0.047517 0.159816
v 0.018163 0.047517 -0.166515
v 0.165464 0.038846 -0.033851
v 0.018163 0.070527 -0.166515
v 0.165464 0.079198 -0.033851
v -0.160475 0.079198 0.031832
v -0.160475 0.038846 0.031832
v -0.013174 0.038846 0.164496
v -0.013174 0.079198 0.164496
v 0.014113 0.069416 -0.152823
v 0.014113 0.048627 -0.152823
v -0.147280 0.069416 0.026377
v -0.147280 0.048627 0.026377
v 0.142499 0.048627 -0.037195
v 0.142499 0.069416 -0.037195
v -0.018894 0.048627 0.142005
v -0.018894 0.069416 0.142005
v 0.052388 0.116546 0.125888
v 0.086184 0.126555 -0.030285
v 0.052388 0.089986 0.125888
v 0.086184 0.079977 -0.030285
v -0.131801 0.116546 -0.077456
v -0.165597 0.116546 0.078717
v -0.131801 0.089986 -0.077456
v -0.165597 0.089986 0.078717
v 0.086184 0.089986 -0.030285
v 0.051152 0.079977 0.131600
v 0.086184 0.116546 -0.030285
v 0.051152 0.126555 0.131600
v -0.131801 0.126555 -0.077456
v -0.131801 0.079977 -0.077456
v -0.166833 0.079977 0.084428
v -0.166833 0.126555 0.084428
v 0.074575 0.115264 -0.027536
v 0.074575 0.091268 -0.027536
v -0.122367 0.115264 -0.070154
v -0.122367 0.091268 -0.070154
v 0.044042 0.091268 0.113561
v 0.044042 0.115264 0.113561
v -0.152900 0.091268 0.070943
v -0.152900 0.115264 0.070943
v -0.208227 0.157664 -0.017886
v -0.180060 0.166100 0.156201
v -0.208227 0.135278 -0.017886
v -0.180060 0.126843 0.156201
v 0.062929 0.157664 0.116885
v 0.034762 0.157664 -0.057202
v 0.062929 0.135278 0.116885
v 0.034762 0.135278 -0.057202
v -0.180060 0.135278 0.156201
v -0.209257 0.126843 -0.024253
v -0.180060 0.157664 0.156201
v -0.209257 0.166100 -0.024253
v 0.062929 0.166100 0.116885
v 0.062929 0.126843 0.116885
v 0.033732 0.126843 -0.063568
v 0.033732 0.166100 -0.063568
v -0.169238 0.156583 0.148701
v -0.169238 0.136359 0.148701
v 0.050294 0.156583 0.113181
v 0.050294 0.136359 0.113181
v -0.194686 0.136359 -0.008580
v -0.194686 0.156583 -0.008580
v 0.024846 0.136359 -0.044100
v 0.024846 0.156583 -0.044100
v 0.075880 0.198603 0.076564
v 0.007497 0.207274 -0.074697
v 0.075880 0.175593 0.076564
v 0.007497 0.166922 -0.074697
v -0.203631 0.198603 0.020751
v -0.135249 0.198603 0.172012
v -0.203631 0.175593 0.020751
v -0.135249 0.175593 0.172012
v 0.007497 0.175593 -0.074697
v 0.078381 0.166922 0.082096
v 0.007497 0.198603 -0.074697
v 0.078381 0.207274 0.082096
v -0.203631 0.207274 0.020751
v -0.203631 0.166922 0.020751
v -0.132748 0.166922 0.177544
v -0.132748 0.207274 0.177544
v -0.000493 0.197492 -0.065222
v -0.000493 0.176703 -0.065222
v -0.191240 0.197492 0.021012
v -0.191240 0.176703 0.021012
v 0.061288 0.176703 0.071436
v 0.061288 0.197492 0.071436
v -0.129459 0.176703 0.157670
v -0.129459 0.197492 0.157670
v -0.006230 0.182983 -0.055217
v -0.173366 0.182983 -0.041921
v -0.163492 0.182983 0.082201
v 0.035230 0.142784 0.053631
v -0.000934 0.142784 0.172778
v -0.161371 0.142784 0.124081
v 0.071987 0.059971 -0.029642
v -0.017798 0.059971 0.047458
v -0.031833 0.059971 -0.150542
v -0.121618 0.059971 -0.073442
v -0.026733 0.059260 0.123572
v -0.107977 0.059260 0.139530
v -0.129466 0.059260 0.030131
v 0.039966 0.097686 -0.021448
v 0.106645 0.097686 0.029764
v 0.033365 0.097686 0.116347
vn 0.5026 -0.0000 0.8645
vn 0.0742 0.9963 -0.0432
vn -0.0000 -1.0000 -0.0000
vn -0.0000 1.0000 -0.0000
vn 0.2337 -0.0000 -0.9723
vn -0.0893 0.9841 -0.1535
vn 0.8645 -0.0000 -0.5026
vn -0.5026 -0.0000 -0.8645
vn -0.8645 -0.0000 0.5026
vn -0.9606 -0.0000 -0.2780
vn -0.0742 0.9963 0.0432
vn -0.0893 -0.9841 -0.1535
vn 0.0742 -0.9963 -0.0432
vn -0.0742 -0.9963 0.0432
vn 0.7431 -0.0000 0.6692
vn 0.0575 0.9963 -0.0638
vn -0.0750 -0.0000 -0.9972
vn -0.1320 0.9841 -0.1189
vn 0.6692 -0.0000 -0.7431
vn -0.7431 -0.0000 -0.6692
vn -0.6692 -0.0000 0.7431
vn -0.9996 -0.0000 0.0293
vn -0.0575 0.9963 0.0638
vn -0.1320 -0.9841 -0.1189
vn 0.0575 -0.9963 -0.0638
vn -0.0575 -0.9963 0.0638
vn -0.2115 -0.0000 0.9774
vn 0.1156 0.9930 0.0250
vn 0.8281 -0.0000 -0.5606
vn 0.0512 0.9703 -0.2365
vn 0.9774 -0.0000 0.2115
vn 0.2115 -0.0000 -0.9774
vn -0.9774 -0.0000 -0.2115
vn -0.5222 -0.0000 -0.8528
vn -0.1156 0.9930 -0.0250
vn 0.0512 -0.9703 -0.2365
vn 0.1156 -0.9930 0.0250
vn -0.1156 -0.9930 -0.0250
vn -0.1597 -0.0000 -0.9872
vn -0.0894 0.9959 0.0145
vn -0.5664 -0.0000 0.8241
vn 0.0299 0.9824 0.1846
vn -0.9872 -0.0000 0.1597
vn 0.1597 -0.0000 0.9872
vn 0.9872 -0.0000 -0.1597
vn 0.7974 -0.0000 0.6035
vn 0.0894 0.9959 -0.0145
vn 0.0299 -0.9824 0.1846
vn -0.0894 -0.9959 0.0145
vn 0.0894 -0.9959 -0.0145
vn 0.4119 -0.0000 0.9112
vn 0.0901 0.9951 -0.0407
vn 0.3315 -0.0000 -0.9434
vn -0.0839 0.9791 -0.1855
vn 0.9112 -0.0000 -0.4119
vn -0.4119 -0.0000 -0.9112
vn -0.9112 -0.0000 0.4119
vn -0.9273 -0.0000 -0.3743
vn -0.0900 0.9951 0.0407
vn -0.0839 -0.9791 -0.1855
vn 0.0900 -0.9951 -0.0407
vn -0.0900 -0.9951 0.0407
vt 0.543359 0.883420
vt 0.543359 0.867610
vt 0.543359 0.883420
vt 0.543359 0.867610
vt 0.543359 0.867610
vt 0.543359 0.883420
vt 0.543359 0.867610
vt 0.543359 0.883420
vt 0.543359 0.867610
vt 0.543359 0.883998
vt 0.543359 0.867610
vt 0.543359 0.883998
vt 0.543359 0.867610
vt 0.543359 0.867610
vt 0.543359 0.883998
vt 0.543359 0.883998
vt 0.216640 0.782561
vt 0.543359 0.867610
vt 0.543359 0.867610
vt 0.216640 0.782561
vt 0.216640 0.782561
vt 0.543359 0.867610
vt 0.216640 0.782561
vt 0.543359 0.867610
vt 0.543359 0.883420
vt 0.216640 0.798371
vt 0.216640 0.798371
vt 0.543359 0.883420
vt 0.216640 0.798371
vt 0.543359 0.883420
vt 0.216640 0.798371
vt 0.543359 0.883420
vt 0.624088 0.886024
vt 0.624088 0.870214
vt 0.624088 0.886024
vt 0.624088 0.870214
vt 0.624088 0.870214
vt 0.624088 0.886024
vt 0.624088 0.870214
vt 0.624088 0.886024
vt 0.624088 0.870214
vt 0.624088 0.886602
vt 0.624088 0.870214
vt 0.624088 0.886602
vt 0.624088 0.870214
vt 0.624088 0.870214
vt 0.624088 0.886602
vt 0.624088 0.886602
vt 0.216640 0.782561
vt 0.624088 0.870214
vt 0.624088 0.870214
vt 0.216640 0.782561
vt 0.216640 0.782561
vt 0.624088 0.870214
vt 0.216640 0.782561
vt 0.624088 0.870214
vt 0.624088 0.886024
vt 0.216640 0.798371
vt 0.216640 0.798371
vt 0.624088 0.886024
vt 0.216640 0.798371
vt 0.624088 0.886024
vt 0.216640 0.798371
vt 0.624088 0.886024
vt 0.543359 0.883420
vt 0.543359 0.867610
vt 0.543359 0.883420
vt 0.543359 0.867610
vt 0.543359 0.867610
vt 0.543359 0.883420
vt 0.543359 0.867610
vt 0.543359 0.883420
vt 0.543359 0.867610
vt 0.543359 0.883998
vt 0.543359 0.867610
vt 0.543359 0.883998
vt 0.543359 0.867610
vt 0.543359 0.867610
vt 0.543359 0.883998
vt 0.543359 0.883998
vt 0.216640 0.782561
vt 0.543359 0.867610
vt 0.543359 0.867610
vt 0.216640 0.782561
vt 0.216640 0.782561
vt 0.543359 0.867610
vt 0.216640 0.782561
vt 0.543359 0.867610
vt 0.543359 0.883420
vt 0.216640 0.798371
vt 0.216640 0.798371
vt 0.543359 0.883420
vt 0.216640 0.798371
vt 0.543359 0.883420
vt 0.216640 0.798371
vt 0.543359 0.883420
vt 0.543359 0.883420
vt 0.543359 0.867610
vt 0.543359 0.883420
vt 0.543359 0.867610
vt 0.543359 0.867610
vt 0.543359 0.883420
vt 0.543359 0.867610
vt 0.543359 0.883420
vt 0.543359 0.867610
vt 0.543359 0.883998
vt 0.543359 0.867610
vt 0.543359 0.883998
vt 0.543359 0.867610
vt 0.543359 0.867610
vt 0.543359 0.883998
vt 0.543359 0.883998
vt 0.216640 0.782561
vt 0.543359 0.867610
vt 0.543359 0.867610
vt 0.216640 0.782561
vt 0.216640 0.782561
vt 0.543359 0.867610
vt 0.216640 0.782561
vt 0.543359 0.867610
vt 0.543359 0.883420
vt 0.216640 0.798371
vt 0.216640 0.798371
vt 0.543359 0.883420
vt 0.216640 0.798371
vt 0.543359 0.883420
vt 0.216640 0.798371
vt 0.543359 0.883420
vt 0.543359 0.883420
vt 0.543359 0.867610
vt 0.543359 0.883420
vt 0.543359 0.867610
vt 0.543359 0.867610
vt 0.543359 0.883420
vt 0.543359 0.867610
vt 0.543359 0.883420
vt 0.543359 0.867610
vt 0.543359 0.883998
vt 0.543359 0.867610
vt 0.543359 0.883998
vt 0.543359 0.867610
vt 0.543359 0.867610
vt 0.543359 0.883998
vt 0.543359 0.883998
vt 0.216640 0.782561
vt 0.543359 0.867610
vt 0.543359 0.867610
vt 0.216640 0.782561
vt 0.216640 0.782561
vt 0.543359 0.867610
vt 0.216640 0.782561
vt 0.543359 0.867610
vt 0.543359 0.883420
vt 0.216640 0.798371
vt 0.216640 0.798371
vt 0.543359 0.883420
vt 0.216640 0.798371
vt 0.543359 0.883420
vt 0.216640 0.798371
vt 0.543359 0.883420
vt 0.234813 0.785253
vt 0.234813 0.785253
vt 0.234813 0.801641
vt 0.234813 0.785253
vt 0.234813 0.801641
vt 0.234813 0.801641
vt 0.234813 0.785253
vt 0.234813 0.801641
vt 0.234813 0.785253
vt 0.234813 0.801641
vt 0.234813 0.785253
vt 0.234813 0.801641
vt 0.234813 0.801641
vt 0.234813 0.785253
vt 0.234813 0.801641
vt 0.234813 0.801641
s 0
usemtl Palette
f 16/16/1 15/15/1 10/10/1 12/12/1
f 3/3/2 9/9/2 18/19/2 21/25/2
f 15/15/3 14/14/3 4/4/3 10/10/3
f 13/13/4 16/16/4 12/12/4 2/2/4
f 1/1/5 3/3/5 21/25/5 22/28/5
f 9/9/6 7/7/6 20/24/6 18/19/6
f 9/9/7 3/3/7 10/10/7 4/4/7
f 1/1/7 11/11/7 2/2/7 12/12/7
f 3/3/7 1/1/7 12/12/7 10/10/7
f 11/11/8 5/5/8 13/13/8 2/2/8
f 7/7/8 9/9/8 4/4/8 14/14/8
f 8/8/9 7/7/9 14/14/9 15/15/9
f 5/5/9 6/6/9 16/16/9 13/13/9
f 6/6/9 8/8/9 15/15/9 16/16/9
f 18/20/7 17/17/7 22/27/7 21/26/7
f 20/23/8 19/21/8 17/17/8 18/20/8
f 20/23/9 23/29/9 24/31/9 19/21/9
f 8/8/10 6/6/10 24/32/10 23/30/10
f 7/7/11 8/8/11 23/30/11 20/24/11
f 5/5/12 11/11/12 17/18/12 19/22/12
f 11/11/13 1/1/13 22/28/13 17/18/13
f 6/6/14 5/5/14 19/22/14 24/32/14
f 40/48/15 39/47/15 34/42/15 36/44/15
f 27/35/16 33/41/16 42/51/16 45/57/16
f 39/47/3 38/46/3 28/36/3 34/42/3
f 37/45/4 40/48/4 36/44/4 26/34/4
f 25/33/17 27/35/17 45/57/17 46/60/17
f 33/41/18 31/39/18 44/56/18 42/51/18
f 33/41/19 27/35/19 34/42/19 28/36/19
f 25/33/19 35/43/19 26/34/19 36/44/19
f 27/35/19 25/33/19 36/44/19 34/42/19
f 35/43/20 29/37/20 37/45/20 26/34/20
f 31/39/20 33/41/20 28/36/20 38/46/20
f 32/40/21 31/39/21 38/46/21 39/47/21
f 29/37/21 30/38/21 40/48/21 37/45/21
f 30/38/21 32/40/21 39/47/21 40/48/21
f 42/52/19 41/49/19 46/59/19 45/58/19
f 44/55/20 43/53/20 41/49/20 42/52/20
f 44/55/21 47/61/21 48/63/21 43/53/21
f 32/40/22 30/38/22 48/64/22 47/62/22
f 31/39/23 32/40/23 47/62/23 44/56/23
f 29/37/24 35/43/24 41/50/24 43/54/24
f 35/43/25 25/33/25 46/60/25 41/50/25
f 30/38/26 29/37/26 43/54/26 48/64/26
f 64/80/27 63/79/27 58/74/27 60/76/27
f 51/67/28 57/73/28 66/83/28 69/89/28
f 63/79/3 62/78/3 52/68/3 58/74/3
f 61/77/4 64/80/4 60/76/4 50/66/4
f 49/65/29 51/67/29 69/89/29 70/92/29
f 57/73/30 55/71/30 68/88/30 66/83/30
f 57/73/31 51/67/31 58/74/31 52/68/31
f 49/65/31 59/75/31 50/66/31 60/76/31
f 51/67/31 49/65/31 60/76/31 58/74/31
f 59/75/32 53/69/32 61/77/32 50/66/32
f 55/71/32 57/73/32 52/68/32 62/78/32
f 56/72/33 55/71/33 62/78/33 63/79/33
f 53/69/33 54/70/33 64/80/33 61/77/33
f 54/70/33 56/72/33 63/79/33 64/80/33
f 66/84/31 65/81/31 70/91/31 69/90/31
f 68/87/32 67/85/32 65/81/32 66/84/32
f 68/87/33 71/93/33 72/95/33 67/85/33
f 56/72/34 54/70/34 72/96/34 71/94/34
f 55/71/35 56/72/35 71/94/35 68/88/35
f 53/69/36 59/75/36 65/82/36 67/86/36
f 59/75/37 49/65/37 70/92/37 65/82/37
f 54/70/38 53/69/38 67/86/38 72/96/38
f 88/112/39 87/111/39 82/106/39 84/108/39
f 75/99/40 81/105/40 90/115/40 93/121/40
f 87/111/3 86/110/3 76/100/3 82/106/3
f 85/109/4 88/112/4 84/108/4 74/98/4
f 73/97/41 75/99/41 93/121/41 94/124/41
f 81/105/42 79/103/42 92/120/42 90/115/42
f 81/105/43 75/99/43 82/106/43 76/100/43
f 73/97/43 83/107/43 74/98/43 84/108/43
f 75/99/43 73/97/43 84/108/43 82/106/43
f 83/107/44 77/101/44 85/109/44 74/98/44
f 79/103/44 81/105/44 76/100/44 86/110/44
f 80/104/45 79/103/45 86/110/45 87/111/45
f 77/101/45 78/102/45 88/112/45 85/109/45
f 78/102/45 80/104/45 87/111/45 88/112/45
f 90/116/43 89/113/43 94/123/43 93/122/43
f 92/119/44 91/117/44 89/113/44 90/116/44
f 92/119/45 95/125/45 96/127/45 91/117/45
f 80/104/46 78/102/46 96/128/46 95/126/46
f 79/103/47 80/104/47 95/126/47 92/120/47
f 77/101/48 83/107/48 89/114/48 91/118/48
f 83/107/49 73/97/49 94/124/49 89/114/49
f 78/102/50 77/101/50 91/118/50 96/128/50
f 112/144/51 111/143/51 106/138/51 108/140/51
f 99/131/52 105/137/52 114/147/52 117/153/52
f 111/143/3 110/142/3 100/132/3 106/138/3
f 109/141/4 112/144/4 108/140/4 98/130/4
f 97/129/53 99/131/53 117/153/53 118/156/53
f 105/137/54 103/135/54 116/152/54 114/147/54
f 105/137/55 99/131/55 106/138/55 100/132/55
f 97/129/55 107/139/55 98/130/55 108/140/55
f 99/131/55 97/129/55 108/140/55 106/138/55
f 107/139/56 101/133/56 109/141/56 98/130/56
f 103/135/56 105/137/56 100/132/56 110/142/56
f 104/136/57 103/135/57 110/142/57 111/143/57
f 101/133/57 102/134/57 112/144/57 109/141/57
f 102/134/57 104/136/57 111/143/57 112/144/57
f 114/148/55 113/145/55 118/155/55 117/154/55
f 116/151/56 115/149/56 113/145/56 114/148/56
f 116/151/57 119/157/57 120/159/57 115/149/57
f 104/136/58 102/134/58 120/160/58 119/158/58
f 103/135/59 104/136/59 119/158/59 116/152/59
f 101/133/60 107/139/60 113/146/60 115/150/60
f 107/139/61 97/129/61 118/156/61 113/146/61
f 102/134/62 101/133/62 115/150/62 120/160/62
f 122/162/4 123/163/4 121/161/4
f 124/164/4 126/166/4 125/165/4
f 129/169/4 130/170/4 128/168/4 127/167/4
f 131/171/4 133/173/4 132/172/4
f 134/174/4 136/176/4 135/175/4
