# Blender 3.4.1
# www.blender.org
mtllib Chair_2.mtl
o Chair_2
v -0.274033 0.649907 -0.170138
v -0.274033 0.653081 -0.056051
v -0.274033 0.655631 -0.232787
v -0.274033 0.683920 -0.264068
v -0.274033 0.773448 -0.286451
v 0.000000 1.279785 -0.331064
v -0.274033 1.287445 -0.331865
v 0.000000 0.637767 -0.177288
v 0.000000 0.640942 -0.063202
v 0.000000 0.646201 0.299167
v 0.000000 0.643492 -0.239937
v 0.000000 0.664256 -0.271219
v 0.000000 0.753785 -0.293601
v -0.274033 1.261944 -0.323913
v 0.000000 1.305287 -0.339016
v -0.274033 1.307536 -0.350794
v 0.000000 1.325378 -0.357944
v -0.274033 1.318328 -0.375700
v 0.000000 1.336170 -0.382850
v -0.274033 0.614862 -0.171246
v -0.274033 0.618089 -0.055300
v -0.274033 0.621839 -0.247601
v -0.274033 0.665102 -0.295441
v -0.274033 0.767920 -0.321146
v 0.000000 1.273246 -0.365687
v -0.274033 1.269320 -0.362876
v 0.000000 0.602723 -0.178397
v 0.000000 0.605949 -0.062451
v 0.000000 0.611205 0.299696
v 0.000000 0.609700 -0.254752
v 0.000000 0.645438 -0.302592
v 0.000000 0.748256 -0.328296
v -0.274033 1.255405 -0.358536
v 0.000000 1.287162 -0.370026
v -0.274033 1.278288 -0.371325
v 0.000000 1.296130 -0.378475
v -0.274033 1.286214 -0.389616
v 0.000000 1.304056 -0.396766
v -0.274034 0.656843 0.192845
v -0.174939 0.651230 0.294566
v -0.174939 0.616234 0.295095
v -0.274034 0.621847 0.193373
v -0.253258 0.656110 0.243559
v -0.225096 0.654515 0.272467
v -0.225096 0.619519 0.272996
v -0.253258 0.621114 0.244087
v -0.222775 -0.000001 -0.251179
v -0.267528 -0.000001 -0.251179
v -0.222775 -0.000001 -0.206426
v -0.267528 -0.000001 -0.206426
v -0.162205 0.623008 -0.094431
v -0.162205 0.623008 -0.139184
v -0.206958 0.623008 -0.139184
v -0.206958 0.623008 -0.094431
v -0.222775 -0.000001 0.227669
v -0.267528 -0.000001 0.227669
v -0.222775 -0.000001 0.272422
v -0.267528 -0.000001 0.272422
v -0.162205 0.623008 0.136378
v -0.162205 0.623008 0.091625
v -0.206958 0.623008 0.091625
v -0.206958 0.623008 0.136378
v 0.274033 0.649907 -0.170138
v 0.274033 0.653081 -0.056051
v 0.274033 0.655631 -0.232787
v 0.274033 0.683920 -0.264068
v 0.274033 0.773448 -0.286451
v 0.274033 1.287445 -0.331865
v 0.274033 1.261944 -0.323913
v 0.274033 1.307536 -0.350794
v 0.274033 1.318328 -0.375700
v 0.274033 0.614862 -0.171246
v 0.274033 0.618089 -0.055300
v 0.274033 0.621839 -0.247601
v 0.274033 0.665102 -0.295441
v 0.274033 0.767920 -0.321146
v 0.274033 1.269320 -0.362876
v 0.274033 1.255405 -0.358536
v 0.274033 1.278288 -0.371325
v 0.274033 1.286214 -0.389616
v 0.274034 0.656843 0.192845
v 0.174939 0.651230 0.294566
v 0.174939 0.616234 0.295095
v 0.274034 0.621847 0.193373
v 0.253258 0.656110 0.243559
v 0.225096 0.654515 0.272467
v 0.225096 0.619519 0.272996
v 0.253258 0.621114 0.244087
v 0.222775 -0.000001 -0.251179
v 0.267528 -0.000001 -0.251179
v 0.222775 -0.000001 -0.206426
v 0.267528 -0.000001 -0.206426
v 0.162205 0.623008 -0.094431
v 0.162205 0.623008 -0.139184
v 0.206958 0.623008 -0.139184
v 0.206958 0.623008 -0.094431
v 0.222775 -0.000001 0.227669
v 0.267528 -0.000001 0.227669
v 0.222775 -0.000001 0.272422
v 0.267528 -0.000001 0.272422
v 0.162205 0.623008 0.136378
v 0.162205 0.623008 0.091625
v 0.206958 0.623008 0.091625
v 0.206958 0.623008 0.136378
vn -0.7147 0.1085 0.6910
vn -0.0000 0.1622 0.9868
vn -0.0000 0.1918 0.9814
vn -0.6766 0.1340 0.7241
vn -0.7653 0.3448 0.5435
vn -0.0000 0.5516 0.8341
vn -0.7049 0.7089 0.0218
vn -0.6901 0.7235 -0.0139
vn -0.0000 0.9998 -0.0195
vn -0.0000 0.9995 0.0326
vn -0.6634 0.3712 0.6497
vn -0.0000 0.5131 0.8583
vn -0.0000 0.8228 0.5684
vn -0.6783 0.5982 0.4267
vn -0.7653 0.5985 0.2368
vn -0.0000 0.9288 0.3707
vn -0.0000 0.9299 -0.3678
vn -0.6033 0.7417 -0.2931
vn -0.0000 0.7038 0.7104
vn -0.1397 0.6739 0.7255
vn -0.1861 -0.6571 0.7305
vn -0.0000 -0.6984 0.7157
vn -0.7010 -0.1106 -0.7046
vn -0.7389 -0.1226 -0.6626
vn -0.0000 -0.1918 -0.9814
vn -0.0000 -0.1622 -0.9868
vn -0.0000 -0.5410 -0.8410
vn -0.6694 -0.3903 -0.6321
vn -0.7100 -0.7039 -0.0216
vn -0.0000 -0.9995 -0.0326
vn -0.0000 -0.9998 0.0195
vn -0.7237 -0.6900 0.0132
vn -0.7583 -0.3234 -0.5661
vn -0.7431 -0.5448 -0.3886
vn -0.0000 -0.8228 -0.5684
vn -0.0000 -0.5131 -0.8583
vn -0.0000 -0.9241 -0.3822
vn -0.6611 -0.6941 -0.2848
vn -0.5766 -0.3242 -0.7500
vn -0.0000 -0.3382 -0.9411
vn -0.4453 -0.6481 0.6178
vn -0.6413 -0.6462 0.4137
vn -0.7479 -0.6467 0.1500
vn -0.4035 0.6843 0.6074
vn -0.7153 0.6850 0.1380
vn -0.6045 0.6864 0.4043
vn -0.0000 -1.0000 -0.0000
vn -0.0000 -0.1769 0.9842
vn -0.0000 0.1769 -0.9842
vn -0.9953 0.0968 -0.0000
vn 0.9953 -0.0968 -0.0000
vn -0.0000 0.2133 0.9770
vn -0.0000 -0.2133 -0.9770
vn 0.7147 0.1085 0.6910
vn 0.6766 0.1340 0.7241
vn 0.7653 0.3448 0.5435
vn 0.7049 0.7089 0.0218
vn 0.6901 0.7235 -0.0139
vn 0.6634 0.3712 0.6497
vn 0.6783 0.5982 0.4267
vn 0.7653 0.5985 0.2368
vn 0.6033 0.7417 -0.2931
vn 0.1861 -0.6571 0.7305
vn 0.1397 0.6739 0.7255
vn 0.7010 -0.1106 -0.7046
vn 0.7389 -0.1226 -0.6626
vn 0.6694 -0.3903 -0.6321
vn 0.7100 -0.7039 -0.0216
vn 0.7237 -0.6900 0.0132
vn 0.7583 -0.3234 -0.5661
vn 0.7431 -0.5448 -0.3886
vn 0.6611 -0.6941 -0.2848
vn 0.5766 -0.3242 -0.7500
vn 0.7479 -0.6467 0.1500
vn 0.6413 -0.6462 0.4137
vn 0.4453 -0.6481 0.6178
vn 0.4035 0.6843 0.6074
vn 0.6045 0.6864 0.4043
vn 0.7153 0.6850 0.1380
vn 0.9953 0.0968 -0.0000
vn -0.9953 -0.0968 -0.0000
vt 0.278244 0.870920
vt 0.278244 0.870920
vt 0.278244 0.870920
vt 0.278244 0.870920
vt 0.278244 0.870920
vt 0.278244 0.870920
vt 0.278244 0.870920
vt 0.278244 0.870920
vt 0.278244 0.870920
vt 0.278244 0.870920
vt 0.278244 0.870920
vt 0.278244 0.870920
vt 0.278244 0.870920
vt 0.278244 0.870920
vt 0.278244 0.870920
vt 0.278244 0.870920
vt 0.278244 0.870920
vt 0.278244 0.870920
vt 0.278244 0.870920
vt 0.278244 0.870920
vt 0.278244 0.870920
vt 0.278244 0.870920
vt 0.278244 0.870920
vt 0.278244 0.870920
vt 0.278244 0.870920
vt 0.278244 0.870920
vt 0.278244 0.870920
vt 0.278244 0.870920
vt 0.278244 0.870920
vt 0.278244 0.870920
vt 0.278244 0.870920
vt 0.278244 0.870920
vt 0.278244 0.870920
vt 0.278244 0.870920
vt 0.278244 0.870920
vt 0.278244 0.870920
vt 0.278244 0.870920
vt 0.278244 0.870920
vt 0.278244 0.870920
vt 0.278244 0.870920
vt 0.278244 0.870920
vt 0.278244 0.870920
vt 0.278244 0.870920
vt 0.278244 0.870920
vt 0.278244 0.870920
vt 0.278244 0.870920
vt 0.534887 0.945886
vt 0.565892 0.945886
vt 0.534887 0.976892
vt 0.565892 0.976892
vt 0.534887 0.976892
vt 0.534887 0.945886
vt 0.565892 0.945886
vt 0.565892 0.976892
vt 0.534887 0.945886
vt 0.565892 0.945886
vt 0.534887 0.976892
vt 0.565892 0.976892
vt 0.534887 0.976892
vt 0.534887 0.945886
vt 0.565892 0.945886
vt 0.565892 0.976892
vt 0.278244 0.870920
vt 0.278244 0.870920
vt 0.278244 0.870920
vt 0.278244 0.870920
vt 0.278244 0.870920
vt 0.278244 0.870920
vt 0.278244 0.870920
vt 0.278244 0.870920
vt 0.278244 0.870920
vt 0.278244 0.870920
vt 0.278244 0.870920
vt 0.278244 0.870920
vt 0.278244 0.870920
vt 0.278244 0.870920
vt 0.278244 0.870920
vt 0.278244 0.870920
vt 0.278244 0.870920
vt 0.278244 0.870920
vt 0.278244 0.870920
vt 0.278244 0.870920
vt 0.278244 0.870920
vt 0.278244 0.870920
vt 0.278244 0.870920
vt 0.278244 0.870920
vt 0.278244 0.870920
vt 0.278244 0.870920
vt 0.534887 0.945886
vt 0.565892 0.945886
vt 0.534887 0.976892
vt 0.565892 0.976892
vt 0.534887 0.976892
vt 0.534887 0.945886
vt 0.565892 0.945886
vt 0.565892 0.976892
vt 0.534887 0.945886
vt 0.565892 0.945886
vt 0.534887 0.976892
vt 0.565892 0.976892
vt 0.534887 0.976892
vt 0.534887 0.945886
vt 0.565892 0.945886
vt 0.565892 0.976892
s 1
usemtl Palette
f 5/5/1 13/13/2 6/6/3 14/14/4
f 5/5/1 4/4/5 12/12/6 13/13/2
f 1/1/7 2/2/8 9/9/9 8/8/10
f 7/7/11 15/15/12 17/17/13 16/16/14
f 4/4/5 3/3/15 11/11/16 12/12/6
f 3/3/15 1/1/7 8/8/10 11/11/16
f 14/14/4 6/6/3 15/15/12 7/7/11
f 16/16/14 17/17/13 19/19/17 18/18/18
f 10/10/19 40/40/20 41/41/21 29/29/22
f 24/24/23 33/33/24 25/25/25 32/32/26
f 24/24/23 32/32/26 31/31/27 23/23/28
f 20/20/29 27/27/30 28/28/31 21/21/32
f 26/26/33 35/35/34 36/36/35 34/34/36
f 23/23/28 31/31/27 30/30/37 22/22/38
f 22/22/38 30/30/37 27/27/30 20/20/29
f 33/33/24 26/26/33 34/34/36 25/25/25
f 35/35/34 37/37/39 38/38/40 36/36/35
f 21/21/32 28/28/31 29/29/22 41/41/21 45/45/41 46/46/42 42/42/43
f 1/1/7 3/3/15 22/22/38 20/20/29
f 2/2/8 1/1/7 20/20/29 21/21/32
f 3/3/15 4/4/5 23/23/28 22/22/38
f 4/4/5 5/5/1 24/24/23 23/23/28
f 14/14/4 7/7/11 26/26/33 33/33/24
f 5/5/1 14/14/4 33/33/24 24/24/23
f 7/7/11 16/16/14 35/35/34 26/26/33
f 18/18/18 19/19/17 38/38/40 37/37/39
f 16/16/14 18/18/18 37/37/39 35/35/34
f 44/44/44 45/45/41 41/41/21 40/40/20
f 2/2/8 39/39/45 43/43/46 44/44/44 40/40/20 10/10/19 9/9/9
f 39/39/45 2/2/8 21/21/32 42/42/43
f 45/45/41 44/44/44 43/43/46 46/46/42
f 39/39/45 42/42/43 46/46/42 43/43/46
s 0
f 47/47/47 49/49/47 50/50/47 48/48/47
f 55/55/47 57/57/47 58/58/47 56/56/47
f 50/50/48 49/49/48 51/51/48 54/54/48
f 47/47/49 48/48/49 53/53/49 52/52/49
f 48/48/50 50/50/50 54/54/50 53/53/50
f 49/49/51 47/47/51 52/52/51 51/51/51
f 58/58/52 57/57/52 59/59/52 62/62/52
f 55/55/53 56/56/53 61/61/53 60/60/53
f 56/56/50 58/58/50 62/62/50 61/61/50
f 57/57/51 55/55/51 60/60/51 59/59/51
s 1
f 67/67/54 69/69/55 6/6/3 13/13/2
f 67/67/54 13/13/2 12/12/6 66/66/56
f 63/63/57 8/8/10 9/9/9 64/64/58
f 68/68/59 70/70/60 17/17/13 15/15/12
f 66/66/56 12/12/6 11/11/16 65/65/61
f 65/65/61 11/11/16 8/8/10 63/63/57
f 69/69/55 68/68/59 15/15/12 6/6/3
f 70/70/60 71/71/62 19/19/17 17/17/13
f 10/10/19 29/29/22 83/83/63 82/82/64
f 76/76/65 32/32/26 25/25/25 78/78/66
f 76/76/65 75/75/67 31/31/27 32/32/26
f 72/72/68 73/73/69 28/28/31 27/27/30
f 77/77/70 34/34/36 36/36/35 79/79/71
f 75/75/67 74/74/72 30/30/37 31/31/27
f 74/74/72 72/72/68 27/27/30 30/30/37
f 78/78/66 25/25/25 34/34/36 77/77/70
f 79/79/71 36/36/35 38/38/40 80/80/73
f 73/73/69 84/84/74 88/88/75 87/87/76 83/83/63 29/29/22 28/28/31
f 63/63/57 72/72/68 74/74/72 65/65/61
f 64/64/58 73/73/69 72/72/68 63/63/57
f 65/65/61 74/74/72 75/75/67 66/66/56
f 66/66/56 75/75/67 76/76/65 67/67/54
f 69/69/55 78/78/66 77/77/70 68/68/59
f 67/67/54 76/76/65 78/78/66 69/69/55
f 68/68/59 77/77/70 79/79/71 70/70/60
f 71/71/62 80/80/73 38/38/40 19/19/17
f 70/70/60 79/79/71 80/80/73 71/71/62
f 86/86/77 82/82/64 83/83/63 87/87/76
f 64/64/58 9/9/9 10/10/19 82/82/64 86/86/77 85/85/78 81/81/79
f 81/81/79 84/84/74 73/73/69 64/64/58
f 87/87/76 88/88/75 85/85/78 86/86/77
f 81/81/79 85/85/78 88/88/75 84/84/74
s 0
f 89/89/47 90/90/47 92/92/47 91/91/47
f 97/97/47 98/98/47 100/100/47 99/99/47
f 92/92/48 96/96/48 93/93/48 91/91/48
f 89/89/49 94/94/49 95/95/49 90/90/49
f 90/90/80 95/95/80 96/96/80 92/92/80
f 91/91/81 93/93/81 94/94/81 89/89/81
f 100/100/52 104/104/52 101/101/52 99/99/52
f 97/97/53 102/102/53 103/103/53 98/98/53
f 98/98/80 103/103/80 104/104/80 100/100/80
f 99/99/81 101/101/81 102/102/81 97/97/81
