# Blender 3.4.1
# www.blender.org
mtllib Chair_1.mtl
o Chair_1
v -0.274033 0.632282 -0.218921
v -0.274033 0.638677 -0.064626
v -0.274033 0.634464 -0.158059
v -0.274034 0.638677 0.284810
v -0.274033 0.637560 -0.257365
v -0.274033 0.664256 -0.271219
v -0.274033 0.753785 -0.293601
v -0.274033 1.086319 -0.309588
v -0.274033 1.341318 -0.335446
v -0.274033 0.597099 -0.221907
v -0.274033 0.603677 -0.063374
v -0.274033 0.599524 -0.155976
v -0.274034 0.603677 0.284810
v -0.274033 0.606905 -0.280889
v -0.274033 0.651781 -0.304177
v -0.274033 0.748651 -0.328395
v -0.274033 1.083712 -0.344503
v -0.274033 1.337787 -0.370268
v -0.116696 0.610345 -0.124193
v -0.243522 0.000001 -0.281313
v -0.229622 0.000001 -0.287070
v -0.223864 0.000001 -0.300970
v -0.229622 0.000001 -0.314870
v -0.243522 0.000001 -0.320628
v -0.257422 0.000001 -0.314870
v -0.263179 0.000001 -0.300970
v -0.257422 0.000001 -0.287070
v -0.138629 0.610345 -0.115108
v -0.107610 0.610345 -0.146127
v -0.116696 0.610345 -0.168060
v -0.138629 0.610345 -0.177145
v -0.160563 0.610345 -0.168060
v -0.169648 0.610345 -0.146127
v -0.160563 0.610345 -0.124193
v -0.116696 0.610345 0.140920
v -0.243522 0.000001 0.293870
v -0.229622 0.000001 0.288112
v -0.223864 0.000001 0.274212
v -0.229622 0.000001 0.260312
v -0.243522 0.000001 0.254555
v -0.257422 0.000001 0.260312
v -0.263179 0.000001 0.274212
v -0.257422 0.000001 0.288112
v -0.138629 0.610345 0.150005
v -0.107610 0.610345 0.118986
v -0.116696 0.610345 0.097052
v -0.138629 0.610345 0.087967
v -0.160563 0.610345 0.097053
v -0.169648 0.610345 0.118986
v -0.160563 0.610345 0.140920
v 0.274033 0.632282 -0.218921
v 0.274033 0.638677 -0.064626
v 0.274033 0.634464 -0.158059
v 0.274034 0.638677 0.284810
v 0.274033 0.637560 -0.257365
v 0.274033 0.664256 -0.271219
v 0.274033 0.753785 -0.293601
v 0.274033 1.086319 -0.309588
v 0.274033 1.341318 -0.335446
v 0.274033 0.597099 -0.221907
v 0.274033 0.603677 -0.063374
v 0.274033 0.599524 -0.155976
v 0.274034 0.603677 0.284810
v 0.274033 0.606905 -0.280889
v 0.274033 0.651781 -0.304177
v 0.274033 0.748651 -0.328395
v 0.274033 1.083712 -0.344503
v 0.274033 1.337787 -0.370268
v 0.116696 0.610345 -0.124193
v 0.243522 0.000001 -0.281313
v 0.229622 0.000001 -0.287070
v 0.223864 0.000001 -0.300970
v 0.229622 0.000001 -0.314870
v 0.243522 0.000001 -0.320628
v 0.257422 0.000001 -0.314870
v 0.263179 0.000001 -0.300970
v 0.257422 0.000001 -0.287070
v 0.138629 0.610345 -0.115108
v 0.107610 0.610345 -0.146127
v 0.116696 0.610345 -0.168060
v 0.138629 0.610345 -0.177145
v 0.160563 0.610345 -0.168060
v 0.169648 0.610345 -0.146127
v 0.160563 0.610345 -0.124193
v 0.116696 0.610345 0.140920
v 0.243522 0.000001 0.293870
v 0.229622 0.000001 0.288112
v 0.223864 0.000001 0.274212
v 0.229622 0.000001 0.260312
v 0.243522 0.000001 0.254555
v 0.257422 0.000001 0.260312
v 0.263179 0.000001 0.274212
v 0.257422 0.000001 0.288112
v 0.138629 0.610345 0.150005
v 0.107610 0.610345 0.118986
v 0.116696 0.610345 0.097052
v 0.138629 0.610345 0.087967
v 0.160563 0.610345 0.097053
v 0.169648 0.610345 0.118986
v 0.160563 0.610345 0.140920
vn 0.7081 0.7055 -0.0286
vn -0.7081 0.7055 -0.0286
vn -0.7021 0.7119 -0.0160
vn 0.7021 0.7119 -0.0160
vn 0.7122 -0.7018 0.0157
vn 0.5774 -0.5774 0.5773
vn -0.5774 -0.5774 0.5773
vn -0.7122 -0.7018 0.0157
vn 0.7012 0.0531 0.7110
vn -0.7012 0.0531 0.7110
vn -0.7299 0.0998 0.6762
vn 0.7299 0.0998 0.6762
vn 0.7343 0.2403 0.6349
vn -0.7343 0.2403 0.6349
vn -0.8266 0.4599 0.3244
vn 0.8266 0.4599 0.3244
vn -0.7270 0.6858 0.0345
vn 0.7270 0.6858 0.0345
vn 0.5774 0.6326 0.5162
vn -0.5774 0.6326 0.5162
vn 0.7062 -0.7074 0.0289
vn -0.7062 -0.7074 0.0289
vn 0.5774 0.5774 0.5773
vn -0.5774 0.5774 0.5773
vn 0.7131 -0.0522 -0.6991
vn 0.6856 -0.1063 -0.7201
vn -0.6856 -0.1063 -0.7201
vn -0.7131 -0.0522 -0.6991
vn 0.6818 -0.2590 -0.6842
vn 0.6189 -0.6354 -0.4617
vn -0.6189 -0.6354 -0.4617
vn -0.6818 -0.2590 -0.6842
vn 0.6852 -0.7269 -0.0466
vn -0.6852 -0.7269 -0.0466
vn 0.5773 0.5162 -0.6326
vn -0.5773 0.5162 -0.6326
vn -1.0000 -0.0000 -0.0000
vn 0.5213 -0.6070 -0.5998
vn -0.0314 -0.5394 -0.8415
vn 0.0428 0.2217 -0.9742
vn 0.7559 0.0175 -0.6544
vn 0.7191 -0.6934 -0.0458
vn 0.9782 -0.2002 0.0545
vn -0.0304 -0.7243 0.6888
vn 0.4812 -0.7419 0.4669
vn 0.6652 -0.3050 0.6815
vn 0.0352 -0.2682 0.9627
vn -0.5946 -0.5243 -0.6095
vn -0.8226 -0.5667 -0.0467
vn -0.9888 0.1357 0.0625
vn -0.6908 0.2709 -0.6704
vn -0.5749 -0.6501 0.4969
vn -0.6537 -0.0966 0.7506
vn 0.4812 -0.7420 -0.4668
vn -0.0304 -0.7246 -0.6885
vn 0.0352 -0.2688 -0.9626
vn 0.6651 -0.3053 -0.6815
vn -0.0000 -1.0000 -0.0000
vn 0.7191 -0.6934 0.0459
vn 0.9782 -0.2002 -0.0547
vn -0.0314 -0.5392 0.8416
vn 0.5213 -0.6069 0.6000
vn 0.7560 0.0179 0.6543
vn 0.0428 0.2222 0.9741
vn -0.5749 -0.6502 -0.4967
vn -0.8226 -0.5667 0.0468
vn -0.9888 0.1356 -0.0626
vn -0.6536 -0.0971 -0.7506
vn -0.5946 -0.5242 0.6096
vn -0.6908 0.2713 0.6702
vn 1.0000 -0.0000 -0.0000
vn -0.5213 -0.6070 -0.5998
vn -0.7559 0.0175 -0.6544
vn -0.0428 0.2217 -0.9742
vn 0.0314 -0.5394 -0.8415
vn -0.7191 -0.6934 -0.0458
vn -0.9782 -0.2002 0.0545
vn 0.0304 -0.7243 0.6888
vn -0.0352 -0.2682 0.9627
vn -0.6652 -0.3050 0.6815
vn -0.4812 -0.7419 0.4669
vn 0.5946 -0.5243 -0.6095
vn 0.6908 0.2709 -0.6704
vn 0.9888 0.1357 0.0625
vn 0.8226 -0.5667 -0.0467
vn 0.6537 -0.0966 0.7506
vn 0.5749 -0.6501 0.4969
vn -0.4812 -0.7420 -0.4668
vn -0.6651 -0.3053 -0.6815
vn -0.0352 -0.2688 -0.9626
vn 0.0304 -0.7246 -0.6885
vn -0.7191 -0.6934 0.0459
vn -0.9782 -0.2002 -0.0547
vn 0.0314 -0.5392 0.8416
vn -0.0428 0.2222 0.9741
vn -0.7560 0.0179 0.6543
vn -0.5213 -0.6069 0.6000
vn 0.5749 -0.6502 -0.4967
vn 0.6536 -0.0971 -0.7506
vn 0.9888 0.1356 -0.0626
vn 0.8226 -0.5667 0.0468
vn 0.6908 0.2713 0.6702
vn 0.5946 -0.5242 0.6096
vt 0.278244 0.870920
vt 0.278244 0.870920
vt 0.278244 0.870920
vt 0.278244 0.870920
vt 0.278244 0.870920
vt 0.278244 0.870920
vt 0.278244 0.870920
vt 0.278244 0.870920
vt 0.278244 0.870920
vt 0.278244 0.870920
vt 0.278244 0.870920
vt 0.278244 0.870920
vt 0.278244 0.870920
vt 0.278244 0.870920
vt 0.278244 0.870920
vt 0.278244 0.870920
vt 0.278244 0.870920
vt 0.278244 0.870920
vt 0.530108 0.976462
vt 0.547785 0.983785
vt 0.530108 0.976462
vt 0.522785 0.958785
vt 0.530108 0.941107
vt 0.547785 0.933785
vt 0.565463 0.941107
vt 0.572785 0.958785
vt 0.565463 0.976462
vt 0.547785 0.983785
vt 0.522785 0.958785
vt 0.530108 0.941107
vt 0.547785 0.933785
vt 0.565463 0.941107
vt 0.572785 0.958785
vt 0.565463 0.976462
vt 0.530108 0.976462
vt 0.547785 0.983785
vt 0.530108 0.976462
vt 0.522785 0.958785
vt 0.530108 0.941107
vt 0.547785 0.933785
vt 0.565463 0.941107
vt 0.572785 0.958785
vt 0.565463 0.976462
vt 0.547785 0.983785
vt 0.522785 0.958785
vt 0.530108 0.941107
vt 0.547785 0.933785
vt 0.565463 0.941107
vt 0.572785 0.958785
vt 0.565463 0.976462
vt 0.278244 0.870920
vt 0.278244 0.870920
vt 0.278244 0.870920
vt 0.278244 0.870920
vt 0.278244 0.870920
vt 0.278244 0.870920
vt 0.278244 0.870920
vt 0.278244 0.870920
vt 0.278244 0.870920
vt 0.278244 0.870920
vt 0.278244 0.870920
vt 0.278244 0.870920
vt 0.278244 0.870920
vt 0.278244 0.870920
vt 0.278244 0.870920
vt 0.278244 0.870920
vt 0.278244 0.870920
vt 0.278244 0.870920
vt 0.530108 0.976462
vt 0.547785 0.983785
vt 0.530108 0.976462
vt 0.522785 0.958785
vt 0.530108 0.941107
vt 0.547785 0.933785
vt 0.565463 0.941107
vt 0.572785 0.958785
vt 0.565463 0.976462
vt 0.547785 0.983785
vt 0.522785 0.958785
vt 0.530108 0.941107
vt 0.547785 0.933785
vt 0.565463 0.941107
vt 0.572785 0.958785
vt 0.565463 0.976462
vt 0.530108 0.976462
vt 0.547785 0.983785
vt 0.530108 0.976462
vt 0.522785 0.958785
vt 0.530108 0.941107
vt 0.547785 0.933785
vt 0.565463 0.941107
vt 0.572785 0.958785
vt 0.565463 0.976462
vt 0.547785 0.983785
vt 0.522785 0.958785
vt 0.530108 0.941107
vt 0.547785 0.933785
vt 0.565463 0.941107
vt 0.572785 0.958785
vt 0.565463 0.976462
s 1
usemtl Palette
f 53/53/1 3/3/2 2/2/3 52/52/4
f 61/61/5 63/63/6 13/13/7 11/11/8
f 58/58/9 8/8/10 7/7/11 57/57/12
f 56/56/13 6/6/14 5/5/15 55/55/16
f 55/55/16 5/5/15 1/1/17 51/51/18
f 59/59/19 9/9/20 8/8/10 58/58/9
f 57/57/12 7/7/11 6/6/14 56/56/13
f 51/51/18 1/1/17 3/3/2 53/53/1
f 62/62/21 61/61/5 11/11/8 12/12/22
f 13/13/7 63/63/6 54/54/23 4/4/24
f 67/67/25 66/66/26 16/16/27 17/17/28
f 65/65/29 64/64/30 14/14/31 15/15/32
f 64/64/30 60/60/33 10/10/34 14/14/31
f 68/68/35 67/67/25 17/17/28 18/18/36
f 66/66/26 65/65/29 15/15/32 16/16/27
f 60/60/33 62/62/21 12/12/22 10/10/34
s 0
f 4/4/37 2/2/37 11/11/37 13/13/37
f 2/2/37 3/3/37 12/12/37 11/11/37
f 1/1/37 5/5/37 14/14/37 10/10/37
f 3/3/37 1/1/37 10/10/37 12/12/37
f 5/5/37 6/6/37 15/15/37 14/14/37
f 6/6/37 7/7/37 16/16/37 15/15/37
f 7/7/37 8/8/37 17/17/37 16/16/37
f 8/8/37 9/9/37 18/18/37 17/17/37
s 1
f 59/59/19 68/68/35 18/18/36 9/9/20
f 23/23/38 24/24/39 31/31/40 30/30/41
f 22/22/42 23/23/38 30/30/41 29/29/43
f 20/20/44 21/21/45 19/19/46 28/28/47
f 25/25/48 26/26/49 33/33/50 32/32/51
f 26/26/49 27/27/52 34/34/53 33/33/50
f 27/27/52 20/20/44 28/28/47 34/34/53
f 39/39/54 40/40/55 47/47/56 46/46/57
f 24/24/39 25/25/48 32/32/51 31/31/40
s 0
f 20/20/58 27/27/58 26/26/58 25/25/58 24/24/58 23/23/58 22/22/58 21/21/58
s 1
f 21/21/45 22/22/42 29/29/43 19/19/46
f 38/38/59 39/39/54 46/46/57 45/45/60
f 36/36/61 37/37/62 35/35/63 44/44/64
f 41/41/65 42/42/66 49/49/67 48/48/68
f 42/42/66 43/43/69 50/50/70 49/49/67
f 43/43/69 36/36/61 44/44/64 50/50/70
f 40/40/55 41/41/65 48/48/68 47/47/56
s 0
f 36/36/58 43/43/58 42/42/58 41/41/58 40/40/58 39/39/58 38/38/58 37/37/58
s 1
f 37/37/62 38/38/59 45/45/60 35/35/63
s 0
f 54/54/71 63/63/71 61/61/71 52/52/71
f 52/52/71 61/61/71 62/62/71 53/53/71
f 51/51/71 60/60/71 64/64/71 55/55/71
f 53/53/71 62/62/71 60/60/71 51/51/71
f 55/55/71 64/64/71 65/65/71 56/56/71
f 56/56/71 65/65/71 66/66/71 57/57/71
f 57/57/71 66/66/71 67/67/71 58/58/71
f 58/58/71 67/67/71 68/68/71 59/59/71
s 1
f 73/73/72 80/80/73 81/81/74 74/74/75
f 72/72/76 79/79/77 80/80/73 73/73/72
f 70/70/78 78/78/79 69/69/80 71/71/81
f 75/75/82 82/82/83 83/83/84 76/76/85
f 76/76/85 83/83/84 84/84/86 77/77/87
f 77/77/87 84/84/86 78/78/79 70/70/78
f 89/89/88 96/96/89 97/97/90 90/90/91
f 74/74/75 81/81/74 82/82/83 75/75/82
s 0
f 70/70/58 71/71/58 72/72/58 73/73/58 74/74/58 75/75/58 76/76/58 77/77/58
s 1
f 71/71/81 69/69/80 79/79/77 72/72/76
f 88/88/92 95/95/93 96/96/89 89/89/88
f 86/86/94 94/94/95 85/85/96 87/87/97
f 91/91/98 98/98/99 99/99/100 92/92/101
f 92/92/101 99/99/100 100/100/102 93/93/103
f 93/93/103 100/100/102 94/94/95 86/86/94
f 90/90/91 97/97/90 98/98/99 91/91/98
s 0
f 86/86/58 87/87/58 88/88/58 89/89/58 90/90/58 91/91/58 92/92/58 93/93/58
s 1
f 87/87/97 85/85/96 95/95/93 88/88/92
f 52/52/4 2/2/3 4/4/24 54/54/23
