# Blender 3.4.1
# www.blender.org
mtllib Chair_Wheel_003.mtl
o Chair_Wheel.003
v 0.021189 -0.012018 0.043619
v -0.021189 -0.012018 0.043619
v 0.021189 -0.042862 0.030844
v -0.021189 -0.042862 0.030844
v 0.021189 -0.055638 -0.000000
v -0.021189 -0.055638 -0.000000
v 0.021189 -0.042862 -0.030844
v -0.021189 -0.042862 -0.030844
v 0.021189 -0.012018 -0.043620
v -0.021189 -0.012018 -0.043620
v 0.021189 0.018825 -0.030844
v -0.021189 0.018825 -0.030844
v 0.021189 0.031601 -0.000000
v -0.021189 0.031601 -0.000000
v 0.021189 0.018825 0.030844
v -0.021189 0.018825 0.030844
v 0.021189 -0.017388 0.043619
v -0.021189 -0.017388 0.043619
v 0.021189 -0.017388 -0.043620
v -0.021189 -0.017388 -0.043620
v 0.021189 0.013455 -0.030844
v -0.021189 0.013455 -0.030844
v 0.021189 0.026231 -0.000000
v -0.021189 0.026231 -0.000000
v 0.021189 0.013455 0.030844
v -0.021189 0.013455 0.030844
v 0.030568 0.013455 -0.030844
v 0.030568 -0.017388 -0.043620
v -0.030569 -0.017388 -0.043620
v -0.030569 0.013455 -0.030844
v 0.030568 -0.013791 -0.053892
v 0.030568 0.026231 -0.000000
v -0.030569 0.026231 -0.000000
v -0.030569 0.023809 0.038108
v -0.030569 0.013455 0.030844
v 0.030569 0.013455 0.030844
v -0.030569 -0.017388 0.043619
v -0.030569 -0.013791 0.053893
v 0.030569 -0.017388 0.043619
v 0.030568 0.023809 -0.038107
v -0.030569 -0.013791 -0.053892
v -0.030569 0.023809 -0.038107
v 0.030568 0.039383 0.000000
v -0.030569 0.039383 0.000000
v 0.030569 0.023809 0.038108
v 0.030569 -0.013791 0.053893
vn -0.0000 0.0985 0.9951
vn -0.3336 -0.6457 0.6869
vn -0.0000 -0.7049 0.7093
vn 0.3799 -0.3540 0.8546
vn -0.0000 -0.7093 0.7049
vn -0.3799 -0.8546 0.3540
vn -0.0000 -1.0000 0.0031
vn 0.3799 -0.8546 0.3540
vn -0.0000 -1.0000 -0.0031
vn -0.3799 -0.8546 -0.3540
vn -0.0000 -0.7093 -0.7049
vn 0.3799 -0.8546 -0.3540
vn -0.0000 -0.7049 -0.7093
vn -0.3799 -0.3540 -0.8546
vn -0.0000 0.0985 -0.9951
vn 0.3336 -0.6457 -0.6869
vn -0.8817 0.4558 0.1221
vn -1.0000 -0.0000 -0.0000
vn -0.8817 -0.2872 -0.3743
vn -0.9250 -0.3766 -0.0496
vn -0.9250 -0.3014 0.2313
vn -0.9250 -0.0496 0.3766
vn 0.9250 -0.3766 0.0496
vn 0.9250 -0.3014 -0.2313
vn 0.9250 -0.0496 -0.3766
vn 0.8817 0.4558 -0.1221
vn 1.0000 -0.0000 -0.0000
vn 0.8817 -0.2872 0.3743
vn -0.0814 -0.8914 -0.4458
vn 0.1350 -0.9820 -0.1319
vn -0.2161 -0.9704 -0.1081
vn -0.0000 -0.3827 0.9239
vn 0.0660 -0.5029 0.8618
vn 0.2187 -0.1645 0.9618
vn -0.0000 0.3871 0.9220
vn 0.2116 0.2685 0.9397
vn 0.1510 0.5493 0.8219
vn -0.0000 -0.9239 -0.3827
vn -0.0000 0.3871 -0.9220
vn -0.2116 0.2685 -0.9397
vn -0.1510 0.5492 -0.8219
vn -0.0000 0.9257 -0.3783
vn -0.0000 0.9257 0.3783
vn 0.1300 -0.9579 0.2559
vn 0.2161 -0.8258 0.5209
vn -0.2409 -0.9207 0.3070
vn 0.2409 -0.9207 -0.3070
vn -0.1300 -0.9579 -0.2560
vn -0.2160 -0.8258 -0.5210
vn 0.0814 -0.8914 0.4458
vn -0.1350 -0.9820 0.1319
vn 0.2161 -0.9704 0.1081
vn 0.9516 -0.1324 -0.2775
vn 0.9704 0.2399 -0.0267
vn -0.9516 -0.1324 0.2775
vn -0.9704 0.2399 0.0267
vn -0.9516 0.1220 0.2822
vn -0.9704 -0.2059 0.1260
vn 0.9516 0.1220 -0.2822
vn 0.9704 -0.2058 -0.1260
vn -0.0321 -0.9950 -0.0950
vn -0.0876 -0.9734 -0.2118
vn -0.1336 -0.9105 -0.3914
vn 0.1719 -0.8599 -0.4806
vn 0.0659 -0.2538 0.9650
vn 0.2187 -0.5637 0.7965
vn -0.0659 -0.2538 -0.9650
vn -0.0000 -0.3827 -0.9239
vn -0.2187 -0.5638 -0.7964
vn -0.0660 -0.5029 -0.8618
vn -0.2187 -0.1645 -0.9618
vn -0.0000 -0.9239 0.3827
vn -0.1719 -0.8599 0.4806
vn 0.0321 -0.9950 0.0950
vn 0.0876 -0.9734 0.2117
vn 0.1336 -0.9105 0.3913
vt 0.067106 0.950208
vt 0.035598 0.950208
vt 0.067106 0.981716
vt 0.035598 0.981716
vt 0.063167 0.950208
vt 0.063167 0.981716
vt 0.059229 0.950208
vt 0.059229 0.981716
vt 0.055290 0.950208
vt 0.055290 0.981716
vt 0.051352 0.950208
vt 0.051352 0.981716
vt 0.047413 0.950208
vt 0.047413 0.981716
vt 0.043475 0.950208
vt 0.043475 0.981716
vt 0.039536 0.950208
vt 0.039536 0.981716
vt 0.111346 0.947603
vt 0.142854 0.947603
vt 0.111346 0.979111
vt 0.142854 0.979111
vt 0.127100 0.947603
vt 0.127100 0.979111
vt 0.123162 0.947603
vt 0.123162 0.979111
vt 0.119223 0.947603
vt 0.119223 0.979111
vt 0.115285 0.947603
vt 0.115285 0.979111
vt 0.123162 0.947603
vt 0.127100 0.947603
vt 0.127100 0.979111
vt 0.123162 0.979111
vt 0.127100 0.947603
vt 0.119223 0.947603
vt 0.119223 0.979111
vt 0.115285 0.979111
vt 0.115285 0.979111
vt 0.115285 0.947603
vt 0.142854 0.979111
vt 0.111346 0.979111
vt 0.111346 0.979111
vt 0.142854 0.979111
vt 0.142854 0.947603
vt 0.111346 0.947603
vt 0.123162 0.947603
vt 0.127100 0.979111
vt 0.123162 0.979111
vt 0.119223 0.947603
vt 0.119223 0.979111
vt 0.115285 0.947603
vt 0.111346 0.947603
vt 0.142854 0.947603
s 0
usemtl Palette
f 1/1/1 2/3/2 4/6/3 3/5/4
f 3/5/5 4/6/6 6/8/7 5/7/8
f 5/7/9 6/8/10 8/10/11 7/9/12
f 7/9/13 8/10/14 10/12/15 9/11/16
f 2/4/17 16/18/18 14/16/18 12/14/18 10/12/19 8/10/20 6/8/21 4/6/22
f 3/5/23 5/7/24 7/9/25 9/11/26 11/13/27 13/15/27 15/17/27 1/2/28
f 19/23/29 31/35/30 28/32/31
f 21/25/32 19/23/33 28/32/34 27/31/32
f 34/38/35 38/43/36 46/53/37 45/52/35
f 24/28/38 26/30/38 35/39/38 33/37/38
f 42/49/39 40/47/39 31/35/40 41/48/41
f 44/51/42 43/50/42 40/47/42 42/49/42
f 34/38/43 45/52/43 43/50/43 44/51/43
f 17/20/44 39/45/45 46/54/46
f 25/29/38 23/27/38 32/36/38 36/40/38
f 41/48/47 20/24/48 29/33/49
f 18/22/50 38/44/51 37/41/52
f 30/34/18 33/37/18 44/51/18 42/49/18
f 33/37/18 35/39/18 34/38/18 44/51/18
f 27/31/27 28/32/53 31/35/54 40/47/27
f 35/39/18 37/42/55 38/43/56 34/38/18
f 29/33/57 30/34/18 42/49/18 41/48/58
f 39/46/59 36/40/27 45/52/27 46/53/60
f 36/40/27 32/36/27 43/50/27 45/52/27
f 32/36/27 27/31/27 40/47/27 43/50/27
f 31/35/61 19/23/62 20/24/63 41/48/64
f 20/24/65 22/26/32 30/34/32 29/33/66
f 17/19/67 25/29/68 36/40/68 39/46/69
f 26/30/68 18/21/70 37/42/71 35/39/68
f 23/27/72 21/25/72 27/31/72 32/36/72
f 22/26/72 24/28/72 33/37/72 30/34/72
f 46/54/73 38/44/74 18/22/75 17/20/76
