# Blender 3.4.1
# www.blender.org
mtllib Chair_Body.mtl
o Chair_Body
v -0.249612 0.631309 -0.193415
v -0.260067 0.624034 0.209948
v -0.000000 0.632090 -0.225271
v -0.066054 0.633542 0.239489
v -0.218755 0.634711 -0.212673
v -0.135351 0.633759 -0.219567
v -0.222455 0.632735 0.225883
v -0.152118 0.635472 0.234520
v -0.244750 0.586565 0.216789
v -0.188573 0.577001 0.232606
v -0.114121 0.575003 0.234597
v -0.038122 0.571433 0.242128
v -0.265646 0.629979 0.163375
v -0.263585 0.634542 0.092222
v -0.262078 0.633784 0.010909
v -0.258506 0.631786 -0.071498
v -0.257135 0.629861 -0.148697
v 0.000966 0.651143 0.182731
v -0.000000 0.552992 -0.194929
v -0.075577 0.553067 -0.192343
v -0.150487 0.556134 -0.191357
v -0.154441 0.553313 -0.096288
v -0.183823 0.563520 0.172825
v -0.215134 0.569728 -0.183907
v -0.214250 0.566006 -0.111733
v -0.236976 0.577021 -0.147865
v -0.237942 0.576141 -0.071089
v -0.241468 0.576557 0.011382
v -0.243727 0.575833 0.092952
v -0.246656 0.578925 0.165255
v -0.003857 0.643101 -0.155245
v -0.151438 0.655353 0.177207
v -0.150202 0.659302 0.097484
v -0.148588 0.657282 -0.012915
v -0.151384 0.650466 -0.152919
v -0.224302 0.649929 0.170100
v -0.220220 0.656111 0.088122
v -0.217565 0.647165 -0.151989
v -0.255320 0.602795 -0.197098
v -0.000000 0.583851 -0.233271
v -0.262143 0.599948 0.214049
v -0.221745 0.596048 0.238213
v -0.151847 0.592405 0.248566
v -0.076179 0.594964 0.251082
v -0.038137 0.614520 0.251052
v -0.075523 0.584620 -0.234240
v -0.150660 0.587612 -0.232058
v -0.218358 0.595001 -0.221792
v -0.261348 0.602838 -0.146151
v -0.263683 0.602813 -0.071367
v -0.268192 0.603378 0.010741
v -0.271537 0.602734 0.092137
v -0.272306 0.602285 0.162602
v 0.249612 0.631309 -0.193415
v 0.260067 0.623991 0.209948
v 0.218755 0.634711 -0.212674
v 0.144729 0.634700 -0.218812
v 0.222456 0.632651 0.225883
v 0.152119 0.635429 0.234520
v 0.076294 0.634609 0.238077
v 0.114121 0.574770 0.234597
v 0.038123 0.571373 0.242128
v 0.265646 0.629979 0.163375
v 0.263585 0.634542 0.092222
v 0.262078 0.633784 0.010909
v 0.258506 0.631786 -0.071498
v 0.257135 0.629861 -0.148697
v 0.260549 0.589893 0.191148
v 0.262334 0.588821 0.129661
v 0.259998 0.588145 0.052038
v 0.255796 0.589003 -0.030196
v 0.252633 0.588764 -0.110426
v 0.252801 0.590536 -0.175306
v 0.026968 0.563714 0.097821
v 0.075577 0.553067 -0.192343
v 0.147845 0.553110 -0.101521
v 0.133314 0.561794 0.167426
v 0.150487 0.556134 -0.191357
v 0.152017 0.565185 0.209659
v 0.215134 0.569728 -0.183907
v 0.214250 0.566006 -0.111733
v 0.216028 0.567344 -0.029332
v 0.217701 0.567207 0.053301
v 0.221226 0.568150 0.133359
v 0.221574 0.573248 0.201177
v 0.153726 0.650073 -0.152475
v 0.152596 0.655714 0.176911
v 0.150202 0.659302 0.097484
v 0.149084 0.657277 -0.013801
v 0.224302 0.649929 0.170100
v 0.220086 0.656223 0.087523
v 0.217565 0.647165 -0.151989
v 0.255320 0.602795 -0.197099
v 0.262143 0.599787 0.214049
v 0.221746 0.595814 0.238213
v 0.151848 0.592183 0.248566
v 0.076180 0.594884 0.251082
v 0.038137 0.614499 0.251052
v 0.075523 0.584620 -0.234240
v 0.150659 0.587612 -0.232058
v 0.218358 0.595001 -0.221792
v 0.261348 0.602846 -0.146151
v 0.263683 0.602840 -0.071367
v 0.268192 0.603408 0.010741
v 0.271537 0.602728 0.092137
v 0.272306 0.602233 0.162602
v 0.001609 0.571029 0.242128
v 0.000549 0.614135 0.251052
v -0.015840 0.357509 0.017351
v -0.015840 0.597006 0.017351
v -0.022124 0.357509 0.002179
v -0.022124 0.597006 0.002179
v -0.015840 0.357509 -0.012993
v -0.015840 0.597006 -0.012993
v 0.000000 0.357509 0.023636
v 0.000000 0.597006 0.023636
v 0.015840 0.357509 0.017351
v 0.015840 0.597006 0.017351
v 0.022124 0.357509 0.002179
v 0.022124 0.597006 0.002179
v 0.015840 0.357509 -0.012993
v 0.015840 0.597006 -0.012993
v -0.000000 0.357509 -0.019277
v -0.000000 0.597006 -0.019277
v -0.203298 0.813699 -0.283495
v -0.203298 1.056106 -0.304413
v 0.203443 0.814119 -0.283530
v 0.203166 1.060272 -0.304755
v -0.188798 0.837846 -0.256933
v -0.188798 1.045449 -0.274998
v 0.188923 0.838218 -0.256964
v 0.188677 1.049279 -0.275312
v 0.101694 0.812606 -0.300702
v -0.101549 0.812396 -0.300685
v -0.101685 1.055741 -0.321668
v 0.101552 1.057824 -0.321839
v 0.104027 0.837016 -0.270607
v 0.104090 1.047304 -0.288869
v -0.103845 1.045192 -0.288725
v 0.038611 0.833189 -0.314827
v -0.038388 0.833058 -0.314814
v -0.038424 0.863465 -0.303086
v 0.038576 0.863597 -0.303097
v 0.038985 0.597381 -0.295343
v -0.038015 0.597252 -0.295314
v -0.038015 0.600750 -0.280033
v 0.038985 0.600879 -0.280062
v 0.039037 0.567636 -0.271722
v -0.037962 0.567540 -0.271631
v -0.037962 0.578326 -0.260256
v 0.039037 0.578422 -0.260347
v 0.039088 0.547087 -0.225635
v -0.037911 0.547040 -0.225511
v -0.037911 0.561696 -0.219949
v 0.039088 0.561743 -0.220073
v 0.039218 0.544404 -0.119878
v -0.037781 0.544357 -0.119754
v -0.037781 0.559013 -0.114193
v 0.039218 0.559060 -0.114316
v -0.038219 0.716251 -0.298503
v -0.038219 0.718639 -0.283051
v 0.038780 0.718769 -0.283071
v 0.038780 0.716381 -0.298523
v -0.103915 0.836811 -0.270589
v -0.079170 1.024506 -0.271816
v -0.079223 0.860396 -0.257309
v 0.079328 0.860552 -0.257323
v 0.079376 1.026117 -0.271926
v -0.152171 0.861185 -0.253979
v -0.152171 1.024702 -0.268433
v 0.152093 1.027623 -0.268672
v 0.152291 0.861469 -0.254003
v -0.105836 0.821009 -0.274286
v -0.105253 0.813878 -0.282584
v -0.210629 0.815164 -0.265599
v -0.206247 0.822214 -0.258137
v -0.206254 1.061281 -0.278782
v -0.210643 1.064566 -0.287056
v 0.210495 1.068850 -0.287410
v 0.206114 1.065468 -0.279125
v 0.206394 0.822618 -0.258170
v 0.210779 0.815584 -0.265635
v 0.105888 1.063132 -0.295175
v 0.105258 1.066472 -0.304289
v -0.105406 1.064329 -0.304112
v -0.105924 1.060980 -0.295007
v 0.105403 0.814088 -0.282602
v 0.105976 0.821217 -0.274304
vn -0.0320 -0.9755 0.2175
vn -0.0413 -0.9987 -0.0314
vn -0.0709 -0.9632 0.2591
vn -0.2416 -0.9699 0.0317
vn -0.1655 0.3234 0.9317
vn -0.4841 -0.4793 0.7320
vn 0.0490 0.9976 -0.0495
vn 0.0733 0.9970 -0.0248
vn -0.3002 -0.7103 0.6367
vn -0.2325 -0.9669 0.1056
vn -0.3795 -0.9242 -0.0430
vn -0.0378 -0.6741 0.7377
vn -0.1086 -0.5021 0.8580
vn 0.0093 -0.9903 0.1389
vn -0.0009 -1.0000 0.0018
vn -0.4678 -0.7531 -0.4626
vn -0.4158 -0.9093 -0.0157
vn -0.0714 0.9972 -0.0227
vn 0.8114 -0.5831 -0.0405
vn 0.1575 0.3068 0.9386
vn -0.1519 -0.5132 0.8448
vn 0.0636 0.9978 -0.0173
vn 0.8196 -0.5723 -0.0256
vn 0.1655 -0.8099 0.5627
vn -0.1515 -0.9777 0.1456
vn 0.8091 -0.5873 -0.0192
vn 0.8203 -0.5699 -0.0479
vn -0.0432 0.9976 -0.0533
vn 0.0033 -0.6301 0.7765
vn 0.8261 -0.5627 -0.0309
vn 0.8353 -0.5496 -0.0128
vn 0.7610 -0.6479 0.0334
vn 0.0754 -0.9971 0.0084
vn 0.0003 -0.9986 0.0533
vn -0.0283 0.9985 0.0460
vn 0.1075 -0.5010 0.8587
vn 0.0601 -0.9982 -0.0029
vn -0.1046 -0.2015 0.9739
vn 0.8174 -0.5759 -0.0130
vn 0.8328 -0.5522 -0.0388
vn 0.8640 -0.4813 0.1478
vn 0.9182 -0.3811 -0.1082
vn 0.1044 -0.2017 0.9739
vn -0.0646 0.9978 -0.0175
vn -0.0044 -0.6318 0.7751
vn 0.0258 0.9984 0.0499
vn 0.0448 0.9715 -0.2328
vn 0.0023 0.9448 0.3278
vn -0.0430 0.9989 -0.0189
vn -0.0043 0.9565 0.2916
vn -0.2655 -0.9641 -0.0065
vn 0.0150 -0.9991 0.0395
vn 0.0413 -0.9986 -0.0324
vn 0.0641 -0.9763 0.2069
vn -0.0378 -0.9988 0.0302
vn 0.4475 0.8941 -0.0166
vn 0.4132 0.9098 -0.0400
vn 0.0414 0.9990 -0.0186
vn -0.0058 -0.9998 -0.0188
vn -0.7011 -0.7125 -0.0301
vn -0.3145 0.9420 -0.1172
vn 0.0025 0.5288 0.8487
vn -0.6848 -0.7287 -0.0042
vn -0.0110 -0.7893 -0.6139
vn 0.2025 -0.7980 -0.5676
vn -0.0271 0.9737 -0.2262
vn 0.0056 0.9879 -0.1550
vn -0.2351 -0.9560 0.1754
vn -0.9711 0.2386 -0.0110
vn -0.3896 0.8918 0.2299
vn -0.9861 0.1641 -0.0261
vn -0.9749 0.1769 -0.1355
vn -0.0949 0.2585 -0.9614
vn -0.9698 0.1746 0.1705
vn -0.0881 0.9463 0.3111
vn -0.9811 0.1866 -0.0511
vn -0.4553 0.2419 0.8568
vn -0.0629 0.9972 -0.0413
vn -0.1256 0.3101 0.9424
vn -0.0174 0.2666 -0.9636
vn -0.5243 0.1963 -0.8286
vn -0.0109 0.9877 -0.1559
vn -0.0194 0.2154 -0.9763
vn 0.0149 0.9499 0.3122
vn -0.0452 0.3043 0.9515
vn -0.9749 0.2205 -0.0292
vn 0.0110 -0.7893 -0.6139
vn -0.7234 -0.6901 -0.0199
vn -0.7133 -0.7001 -0.0307
vn -0.2039 -0.9781 -0.0420
vn -0.2343 -0.9722 0.0051
vn 0.0019 -0.2027 0.9792
vn 0.0052 0.5250 0.8511
vn -0.6523 -0.7437 -0.1463
vn -0.4408 0.8965 0.0452
vn -0.4134 0.9098 -0.0364
vn -0.4465 0.8946 -0.0166
vn -0.4119 0.9104 -0.0399
vn 0.4843 -0.7609 -0.4319
vn -0.0670 0.9959 0.0602
vn 0.3145 0.9420 -0.1172
vn 0.9711 0.2384 -0.0109
vn -0.2025 -0.7980 -0.5676
vn 0.0210 0.2177 -0.9758
vn 0.5243 0.1963 -0.8286
vn 0.0309 0.9760 -0.2157
vn 0.3894 0.8917 0.2309
vn 0.0981 0.2542 -0.9622
vn 0.4551 0.2409 0.8572
vn 0.0912 0.9448 0.3148
vn 0.9698 0.1740 0.1707
vn 0.0171 0.2727 -0.9619
vn 0.1258 0.3090 0.9427
vn -0.0095 0.9489 0.3156
vn 0.0692 0.9959 0.0579
vn 0.1426 -0.8289 0.5410
vn 0.0419 0.3095 0.9500
vn 0.9748 0.1770 -0.1355
vn 0.9749 0.2206 -0.0292
vn 0.1066 -0.9926 0.0581
vn 0.1972 -0.9797 -0.0365
vn -0.0003 -1.0000 0.0018
vn 0.4999 -0.8656 -0.0309
vn 0.4941 -0.8694 -0.0066
vn 0.4601 -0.8876 -0.0218
vn 0.4460 -0.8950 -0.0074
vn 0.4286 -0.9022 0.0478
vn -0.0449 -0.7942 -0.6060
vn 0.0614 0.9972 -0.0425
vn 0.4409 0.8964 0.0453
vn 0.4137 0.9097 -0.0366
vn 0.9861 0.1642 -0.0261
vn 0.0449 -0.7942 -0.6060
vn 0.1694 -0.9850 0.0342
vn 0.9811 0.1868 -0.0511
vn -0.6532 -0.7484 0.1151
vn 0.3956 -0.8124 0.4283
vn -0.0041 -0.9929 0.1186
vn -0.0020 -0.2028 0.9792
vn -0.0000 -0.0000 1.0000
vn -0.7018 -0.0000 0.7124
vn -1.0000 -0.0000 -0.0000
vn -0.7018 -0.0000 -0.7124
vn -0.0000 -0.0000 -1.0000
vn 0.7018 -0.0000 0.7124
vn 1.0000 -0.0000 -0.0000
vn 0.7018 -0.0000 -0.7124
vn -0.0392 0.9746 -0.2205
vn 0.1512 -0.2426 0.9583
vn 0.1671 -0.0845 -0.9823
vn 0.0888 0.5873 0.8045
vn 0.1314 0.0866 0.9875
vn 0.0541 0.8885 -0.4557
vn -0.1671 -0.0848 -0.9823
vn 0.1486 0.3821 0.9121
vn -0.1549 0.3811 0.9115
vn -0.0731 0.8869 -0.4562
vn -0.0000 -0.0859 -0.9963
vn 0.0006 -0.4911 0.8711
vn 0.0011 -0.9966 0.0819
vn -0.1506 -0.2428 0.9583
vn -0.0008 0.3599 -0.9330
vn -1.0000 -0.0014 0.0007
vn -1.0000 -0.0017 0.0003
vn 0.0003 0.0256 0.9997
vn 1.0000 0.0017 -0.0003
vn -0.0003 -0.0268 -0.9996
vn 1.0000 0.0006 -0.0009
vn -0.0004 0.6606 0.7507
vn 1.0000 0.0014 -0.0007
vn 0.0003 -0.6226 -0.7825
vn 0.0006 -0.9997 -0.0254
vn 0.0003 -0.9136 -0.4067
vn -1.0000 -0.0006 0.0009
vn -0.0003 0.9242 0.3820
vn 0.0017 -0.3548 0.9349
vn -1.0000 -0.0005 0.0012
vn -0.0006 0.9997 0.0254
vn 1.0000 0.0005 -0.0012
vn -0.0000 -0.1383 -0.9904
vn 1.0000 0.0014 -0.0004
vn -0.0000 0.1370 0.9906
vn -1.0000 -0.0014 0.0004
vn -0.9259 -0.0324 -0.3763
vn 0.9259 -0.0314 -0.3764
vn -0.0095 0.8976 -0.4407
vn 0.0010 -0.9967 0.0816
vn -0.0031 0.3699 0.9291
vn -0.1404 0.0855 0.9864
vn 0.1404 0.0856 0.9864
vn 0.0011 -0.9967 0.0813
vn 0.0464 0.0880 0.9950
vn -0.0464 0.0878 0.9951
vn -0.0001 0.0880 0.9961
vn -0.0907 -0.4307 0.8979
vn -0.0058 0.6287 0.7776
vn -0.1314 0.0865 0.9875
vn -0.0990 0.5848 0.8051
vn 0.0917 -0.4304 0.8980
vn -0.8769 0.0412 0.4789
vn 0.8771 0.0422 0.4784
vn -0.0093 0.9387 0.3447
vn 0.0008 -0.7585 0.6517
vn -0.0944 -0.7518 0.6527
vn 0.0960 -0.7513 0.6529
vn 0.0583 0.9369 0.3447
vn -0.0767 0.9355 0.3449
vn 0.0003 -0.2278 0.9737
vt 0.793712 0.796222
vt 0.793712 0.784264
vt 0.793712 0.796222
vt 0.793712 0.784264
vt 0.793712 0.796222
vt 0.793712 0.796222
vt 0.793712 0.784264
vt 0.793712 0.784264
vt 0.793712 0.784264
vt 0.793712 0.784264
vt 0.793712 0.784264
vt 0.793712 0.784264
vt 0.793712 0.786257
vt 0.793712 0.788250
vt 0.793712 0.790243
vt 0.793712 0.792236
vt 0.793712 0.794229
vt 0.793712 0.786257
vt 0.793712 0.795226
vt 0.793712 0.795226
vt 0.793712 0.795226
vt 0.793712 0.792478
vt 0.793712 0.786277
vt 0.793712 0.795226
vt 0.793712 0.793233
vt 0.793712 0.794229
vt 0.793712 0.792236
vt 0.793712 0.790243
vt 0.793712 0.788250
vt 0.793712 0.786257
vt 0.793712 0.794229
vt 0.793712 0.786257
vt 0.793712 0.788250
vt 0.793712 0.790899
vt 0.793712 0.794229
vt 0.793712 0.786257
vt 0.793712 0.788402
vt 0.793712 0.794229
vt 0.793712 0.796222
vt 0.793712 0.796222
vt 0.793712 0.784264
vt 0.793712 0.784264
vt 0.793712 0.784264
vt 0.793712 0.784264
vt 0.793712 0.784264
vt 0.793712 0.796222
vt 0.793712 0.796222
vt 0.793712 0.796222
vt 0.793712 0.794229
vt 0.793712 0.792236
vt 0.793712 0.790243
vt 0.793712 0.788250
vt 0.793712 0.786257
vt 0.793712 0.796222
vt 0.793712 0.784264
vt 0.793712 0.796222
vt 0.793712 0.796222
vt 0.793712 0.784264
vt 0.793712 0.784264
vt 0.793712 0.784264
vt 0.793712 0.784264
vt 0.793712 0.784264
vt 0.793712 0.786258
vt 0.793712 0.788250
vt 0.793712 0.790243
vt 0.793712 0.792236
vt 0.793712 0.794229
vt 0.793712 0.785261
vt 0.793712 0.787254
vt 0.793712 0.789247
vt 0.793712 0.791240
vt 0.793712 0.793233
vt 0.793712 0.795226
vt 0.793712 0.788716
vt 0.793712 0.795226
vt 0.793712 0.793233
vt 0.793712 0.787099
vt 0.793712 0.795226
vt 0.793712 0.785261
vt 0.793712 0.795226
vt 0.793712 0.793233
vt 0.793712 0.791240
vt 0.793712 0.789247
vt 0.793712 0.787254
vt 0.793712 0.785261
vt 0.793712 0.794229
vt 0.793712 0.786257
vt 0.793712 0.788250
vt 0.793712 0.790920
vt 0.793712 0.786257
vt 0.793712 0.788417
vt 0.793712 0.794229
vt 0.793712 0.796222
vt 0.793712 0.784264
vt 0.793712 0.784264
vt 0.793712 0.784264
vt 0.793712 0.784264
vt 0.793712 0.784264
vt 0.793712 0.796222
vt 0.793712 0.796222
vt 0.793712 0.796222
vt 0.793712 0.794229
vt 0.793712 0.792236
vt 0.793712 0.790243
vt 0.793712 0.788250
vt 0.793712 0.786257
vt 0.793712 0.784264
vt 0.793712 0.784264
vt 0.038524 0.842243
vt 0.038524 0.892243
vt 0.032274 0.842243
vt 0.032274 0.892243
vt 0.026024 0.842243
vt 0.026024 0.892243
vt 0.044774 0.842243
vt 0.044774 0.892243
vt 0.038524 0.842243
vt 0.038524 0.892243
vt 0.032274 0.842243
vt 0.032274 0.892243
vt 0.026024 0.842243
vt 0.026024 0.892243
vt 0.019774 0.842243
vt 0.019774 0.892243
vt 0.793712 0.795226
vt 0.793712 0.796180
vt 0.793712 0.795226
vt 0.793712 0.796180
vt 0.793712 0.800520
vt 0.793712 0.801344
vt 0.793712 0.800519
vt 0.793712 0.801346
vt 0.793712 0.795226
vt 0.793712 0.795226
vt 0.793712 0.796180
vt 0.793712 0.796180
vt 0.793712 0.800519
vt 0.793712 0.801345
vt 0.793712 0.801345
vt 0.225434 0.889621
vt 0.225434 0.889621
vt 0.225434 0.889621
vt 0.225434 0.889621
vt 0.225434 0.889621
vt 0.225434 0.889621
vt 0.225434 0.889621
vt 0.225434 0.889621
vt 0.225434 0.889621
vt 0.225434 0.889621
vt 0.225434 0.889621
vt 0.225434 0.889621
vt 0.225434 0.889621
vt 0.225434 0.889621
vt 0.225434 0.889621
vt 0.225434 0.889621
vt 0.225434 0.889621
vt 0.225434 0.889621
vt 0.225434 0.889621
vt 0.225434 0.889621
vt 0.225434 0.889621
vt 0.225434 0.889621
vt 0.225434 0.889621
vt 0.225434 0.889621
vt 0.793712 0.800520
vt 0.793712 0.801345
vt 0.793712 0.800520
vt 0.793712 0.800519
vt 0.793712 0.801345
vt 0.793712 0.800520
vt 0.793712 0.801344
vt 0.793712 0.801346
vt 0.793712 0.800519
vt 0.212413 0.881834
vt 0.793712 0.800459
vt 0.793712 0.795226
vt 0.212413 0.881809
vt 0.793712 0.795226
vt 0.212413 0.881809
vt 0.793712 0.800459
vt 0.212413 0.881834
vt 0.793712 0.801405
vt 0.212413 0.882780
vt 0.793712 0.796210
vt 0.212413 0.882794
vt 0.793712 0.796210
vt 0.212413 0.882794
vt 0.793712 0.801406
vt 0.212413 0.882781
vt 0.793712 0.800459
vt 0.212413 0.881834
vt 0.793712 0.795226
vt 0.212413 0.881809
vt 0.793712 0.801406
vt 0.212413 0.882781
vt 0.793712 0.796211
vt 0.212413 0.882794
vt 0.793712 0.796211
vt 0.212413 0.882794
vt 0.793712 0.801405
vt 0.212413 0.882780
vt 0.793712 0.795226
vt 0.212413 0.881809
vt 0.212413 0.881834
vt 0.793712 0.800459
s 0
usemtl Palette
f 10/10/1 23/23/1 11/11/1
f 22/22/2 21/21/2 20/20/2
f 11/11/3 23/23/3 12/12/3
f 23/23/4 30/30/4 29/29/4
f 44/44/5 45/45/5 4/4/5
f 41/41/6 9/9/6 42/42/6
f 34/34/7 31/31/7 35/35/7
f 18/18/8 31/31/8 34/34/8
f 42/42/9 9/9/9 10/10/9
f 27/27/10 25/25/10 22/22/10
f 26/26/11 24/24/11 25/25/11
f 43/43/12 10/10/12 11/11/12
f 44/44/13 11/11/13 12/12/13
f 107/107/14 77/77/14 62/62/14
f 22/22/15 20/20/15 19/19/15
f 39/39/16 48/48/16 24/24/16
f 26/26/17 25/25/17 27/27/17
f 31/31/18 18/18/18 89/89/18
f 104/104/19 71/71/19 103/103/19
f 98/98/20 97/97/20 60/60/20
f 42/42/21 10/10/21 43/43/21
f 34/34/22 33/33/22 18/18/22
f 103/103/23 72/72/23 102/102/23
f 61/61/24 79/79/24 96/96/24
f 77/77/25 79/79/25 61/61/25
f 70/70/26 105/105/26 69/69/26
f 71/71/27 104/104/27 70/70/27
f 89/89/28 86/86/28 31/31/28
f 97/97/29 61/61/29 96/96/29
f 72/72/30 103/103/30 71/71/30
f 73/73/31 102/102/31 72/72/31
f 69/69/32 106/106/32 68/68/32
f 84/84/33 77/77/33 83/83/33
f 74/74/34 22/22/34 76/76/34
f 18/18/35 87/87/35 88/88/35
f 97/97/36 62/62/36 61/61/36
f 83/83/37 77/77/37 82/82/37
f 97/97/38 98/98/38 62/62/38
f 106/106/39 69/69/39 105/105/39
f 105/105/40 70/70/40 104/104/40
f 94/94/41 68/68/41 106/106/41
f 102/102/42 73/73/42 93/93/42
f 44/44/43 12/12/43 45/45/43
f 88/88/44 89/89/44 18/18/44
f 43/43/45 11/11/45 44/44/45
f 33/33/46 32/32/46 18/18/46
f 31/31/47 6/6/47 35/35/47
f 32/32/48 8/8/48 4/4/48
f 34/34/49 37/37/49 33/33/49
f 60/60/50 18/18/50 4/4/50
f 22/22/51 28/28/51 27/27/51
f 22/22/52 74/74/52 23/23/52
f 76/76/53 75/75/53 78/78/53
f 61/61/54 62/62/54 77/77/54
f 77/77/55 74/74/55 76/76/55
f 91/91/56 64/64/56 65/65/56
f 91/91/57 65/65/57 66/66/57
f 91/91/58 89/89/58 88/88/58
f 74/74/59 77/77/59 23/23/59
f 28/28/60 29/29/60 52/52/60 51/51/60
f 38/38/61 5/5/61 1/1/61 17/17/61
f 98/98/62 60/60/62 4/4/62 108/108/62
f 29/29/63 30/30/63 53/53/63 52/52/63
f 19/19/64 20/20/64 46/46/64 40/40/64
f 100/100/65 101/101/65 80/80/65 78/78/65
f 5/5/66 38/38/66 35/35/66 6/6/66
f 31/31/67 3/3/67 6/6/67
f 9/9/68 30/30/68 23/23/68 10/10/68
f 13/13/69 14/14/69 52/52/69 53/53/69
f 2/2/70 7/7/70 36/36/70 13/13/70
f 16/16/71 17/17/71 49/49/71 50/50/71
f 17/17/72 1/1/72 39/39/72 49/49/72
f 48/48/73 5/5/73 6/6/73 47/47/73
f 53/53/74 41/41/74 2/2/74 13/13/74
f 7/7/75 8/8/75 32/32/75 36/36/75
f 51/51/76 15/15/76 16/16/76 50/50/76
f 7/7/77 2/2/77 41/41/77 42/42/77
f 34/34/78 35/35/78 38/38/78 37/37/78
f 8/8/79 7/7/79 42/42/79 43/43/79
f 6/6/80 46/46/80 47/47/80
f 39/39/81 1/1/81 5/5/81 48/48/81
f 57/57/82 3/3/82 31/31/82
f 46/46/83 6/6/83 3/3/83 40/40/83
f 18/18/84 32/32/84 4/4/84
f 4/4/85 8/8/85 43/43/85 44/44/85
f 14/14/86 15/15/86 51/51/86 52/52/86
f 19/19/87 40/40/87 99/99/87 75/75/87
f 27/27/88 50/50/88 49/49/88 26/26/88
f 28/28/89 51/51/89 50/50/89 27/27/89
f 25/25/90 24/24/90 21/21/90 22/22/90
f 23/23/91 29/29/91 28/28/91 22/22/91
f 98/98/92 108/108/92 107/107/92 62/62/92
f 45/45/93 108/108/93 4/4/93
f 39/39/94 24/24/94 26/26/94 49/49/94
f 13/13/95 36/36/95 37/37/95 14/14/95
f 17/17/96 16/16/96 37/37/96 38/38/96
f 37/37/97 15/15/97 14/14/97
f 37/37/98 16/16/98 15/15/98
f 80/80/99 101/101/99 93/93/99 73/73/99
f 36/36/100 32/32/100 33/33/100 37/37/100
f 54/54/101 56/56/101 92/92/101 67/67/101
f 63/63/102 106/106/102 105/105/102 64/64/102
f 47/47/103 21/21/103 24/24/103 48/48/103
f 3/3/104 57/57/104 99/99/104 40/40/104
f 56/56/105 54/54/105 93/93/105 101/101/105
f 56/56/106 57/57/106 86/86/106 92/92/106
f 55/55/107 63/63/107 90/90/107 58/58/107
f 57/57/108 56/56/108 101/101/108 100/100/108
f 94/94/109 55/55/109 58/58/109 95/95/109
f 58/58/110 90/90/110 87/87/110 59/59/110
f 106/106/111 63/63/111 55/55/111 94/94/111
f 100/100/112 99/99/112 57/57/112
f 95/95/113 58/58/113 59/59/113 96/96/113
f 59/59/114 87/87/114 18/18/114 60/60/114
f 88/88/115 87/87/115 90/90/115 91/91/115
f 79/79/116 85/85/116 95/95/116 96/96/116
f 96/96/117 59/59/117 60/60/117 97/97/117
f 93/93/118 54/54/118 67/67/118 102/102/118
f 64/64/119 105/105/119 104/104/119 65/65/119
f 85/85/120 79/79/120 77/77/120 84/84/120
f 78/78/121 80/80/121 81/81/121 76/76/121
f 19/19/122 75/75/122 76/76/122 22/22/122
f 73/73/123 72/72/123 81/81/123 80/80/123
f 72/72/124 71/71/124 82/82/124 81/81/124
f 71/71/125 70/70/125 83/83/125 82/82/125
f 69/69/126 84/84/126 83/83/126 70/70/126
f 68/68/127 85/85/127 84/84/127 69/69/127
f 46/46/128 20/20/128 21/21/128 47/47/128
f 89/89/129 91/91/129 92/92/129 86/86/129
f 63/63/130 64/64/130 91/91/130 90/90/130
f 67/67/131 92/92/131 91/91/131 66/66/131
f 66/66/132 103/103/132 102/102/132 67/67/132
f 99/99/133 100/100/133 78/78/133 75/75/133
f 76/76/134 81/81/134 82/82/134 77/77/134
f 66/66/135 65/65/135 104/104/135 103/103/135
f 30/30/136 9/9/136 41/41/136 53/53/136
f 85/85/137 68/68/137 94/94/137 95/95/137
f 12/12/138 23/23/138 77/77/138 107/107/138
f 108/108/139 45/45/139 12/12/139 107/107/139
s 1
f 115/115/140 116/116/140 110/110/141 109/109/141
f 109/109/141 110/110/141 112/112/142 111/111/142
f 111/111/142 112/112/142 114/114/143 113/113/143
f 113/113/143 114/114/143 124/124/144 123/123/144
f 115/115/140 117/117/145 118/118/145 116/116/140
f 117/117/145 119/119/146 120/120/146 118/118/145
f 119/119/146 121/121/147 122/122/147 120/120/146
f 121/121/147 123/123/144 124/124/144 122/122/147
s 0
f 31/31/148 86/86/148 57/57/148
f 164/164/149 129/129/149 176/179/149 173/174/149
f 133/133/150 136/136/150 128/128/150 127/127/150
f 139/139/151 130/130/151 170/170/151 165/165/151
f 131/131/152 132/132/152 171/171/152 172/172/152
f 136/136/153 184/195/153 179/185/153 128/128/153
f 125/125/154 126/126/154 135/135/154 134/134/154
f 130/130/155 139/139/155 186/199/155 177/181/155
f 138/138/156 132/132/156 180/187/156 183/193/156
f 126/126/157 178/183/157 185/197/157 135/135/157
f 136/136/158 133/133/158 134/134/158 135/135/158
f 164/164/159 137/137/159 167/167/159 166/166/159
f 134/134/160 174/175/160 175/177/160 125/125/160
f 131/131/161 137/137/161 188/204/161 181/189/161
f 140/140/162 141/141/162 142/142/162 143/143/162
f 146/146/163 145/145/163 149/149/163 150/150/163
f 161/161/164 160/160/164 145/145/164 146/146/164
f 162/162/165 161/161/165 146/146/165 147/147/165
f 163/163/166 162/162/166 147/147/166 144/144/166
f 160/160/167 163/163/167 144/144/167 145/145/167
f 148/148/168 151/151/168 155/155/168 152/152/168
f 147/147/169 146/146/169 150/150/169 151/151/169
f 144/144/170 147/147/170 151/151/170 148/148/170
f 145/145/171 144/144/171 148/148/171 149/149/171
f 153/153/172 152/152/172 156/156/172 157/157/172
f 149/149/173 148/148/173 152/152/173 153/153/173
f 150/150/174 149/149/174 153/153/174 154/154/174
f 151/151/175 150/150/175 154/154/175 155/155/175
f 156/156/176 159/159/176 158/158/176 157/157/176
f 154/154/177 153/153/177 157/157/177 158/158/177
f 155/155/178 154/154/178 158/158/178 159/159/178
f 152/152/179 155/155/179 159/159/179 156/156/179
f 141/141/180 140/140/180 163/163/180 160/160/180
f 140/140/181 143/143/181 162/162/181 163/163/181
f 143/143/182 142/142/182 161/161/182 162/162/182
f 142/142/183 141/141/183 160/160/183 161/161/183
f 125/125/184 175/177/184 178/183/184 126/126/184
f 128/128/185 179/185/185 182/191/185 127/127/185
f 184/195/186 136/136/186 135/135/186 185/197/186
f 133/133/187 187/201/187 174/175/187 134/134/187
f 139/139/188 138/138/188 183/193/188 186/199/188
f 129/129/189 130/130/189 177/181/189 176/179/189
f 132/132/190 131/131/190 181/189/190 180/187/190
f 127/127/191 182/191/191 187/201/191 133/133/191
f 169/169/192 166/166/192 165/165/192 170/170/192
f 167/167/193 172/172/193 171/171/193 168/168/193
f 165/165/194 166/166/194 167/167/194 168/168/194
f 137/137/195 131/131/195 172/172/195 167/167/195
f 138/138/196 139/139/196 165/165/196 168/168/196
f 130/130/197 129/129/197 169/169/197 170/170/197
f 132/132/198 138/138/198 168/168/198 171/171/198
f 129/129/199 164/164/199 166/166/199 169/169/199
f 176/180/200 177/182/200 178/184/200 175/178/200
f 180/188/201 181/190/201 182/192/201 179/186/201
f 184/196/202 185/198/202 186/200/202 183/194/202
f 174/176/203 187/202/203 188/203/203 173/173/203
f 181/190/204 188/203/204 187/202/204 182/192/204
f 173/173/205 176/180/205 175/178/205 174/176/205
f 177/182/206 186/200/206 185/198/206 178/184/206
f 183/194/207 180/188/207 179/186/207 184/196/207
f 137/137/208 164/164/208 173/174/208 188/204/208
