# Blender 3.4.1
# www.blender.org
mtllib Counter_2_A.mtl
o Counter_2_A
v 0.500001 0.918105 -0.012260
v 0.500001 0.918105 -0.500000
v 0.500001 0.000000 -0.500000
v 0.500001 0.000000 -0.012260
v 0.500000 0.918105 0.262319
v 0.500000 0.949037 -0.500000
v 0.500000 0.949037 0.262319
v -0.500001 0.918105 -0.012260
v -0.500001 0.918105 -0.500000
v -0.500001 0.000000 -0.500000
v -0.500001 0.000000 -0.012260
v -0.500000 0.918105 0.262319
v -0.500000 0.949037 -0.500000
v -0.500000 0.949037 0.262319
vn -0.0000 -1.0000 -0.0000
vn 1.0000 -0.0000 -0.0000
vn -0.0000 1.0000 -0.0000
vn -0.0000 -0.0000 -1.0000
vn -0.0000 -0.0000 1.0000
vn -1.0000 -0.0000 -0.0000
vt 0.304659 0.883162
vt 0.284380 0.863753
vt 0.304659 0.864993
vt 0.281103 0.886282
vt 0.292520 0.872345
vt 0.301880 0.865545
vt 0.304659 0.864993
vt 0.281103 0.886282
vt 0.301880 0.866252
vt 0.304659 0.883162
vt 0.284380 0.863753
vt 0.292520 0.873052
vt 0.292520 0.872345
vt 0.292520 0.873052
vt 0.304659 0.883162
vt 0.284380 0.863753
vt 0.281103 0.886282
vt 0.304659 0.864993
vt 0.292520 0.872345
vt 0.301880 0.865545
vt 0.281103 0.886282
vt 0.304659 0.864993
vt 0.301880 0.866252
vt 0.304659 0.883162
vt 0.284380 0.863753
vt 0.292520 0.873052
vt 0.292520 0.872345
vt 0.292520 0.873052
s 0
usemtl Palette
f 4/9/1 11/23/1 10/20/1 3/6/1
f 4/10/2 3/7/2 2/3/2 1/1/2
f 6/13/3 13/27/3 14/28/3 7/14/3
f 9/19/4 13/27/4 6/13/4 2/5/4
f 12/26/5 5/12/5 7/14/5 14/28/5
f 5/12/2 2/5/2 6/13/2 7/14/2
f 10/21/4 9/17/4 2/4/4 3/8/4
f 5/12/1 12/26/1 9/19/1 2/5/1
f 11/24/6 8/15/6 9/18/6 10/22/6
f 12/26/6 14/28/6 13/27/6 9/19/6
f 1/2/5 8/16/5 11/25/5 4/11/5
