# Blender 3.4.1
# www.blender.org
mtllib Counter_2_C.mtl
o Counter_2_C
v 0.458973 0.918105 0.262319
v 0.458973 0.918105 -0.012259
v 0.500001 0.000000 -0.500000
v 0.500001 0.000000 0.262319
v 0.458973 0.000000 -0.012260
v 0.458973 0.000000 0.262319
v 0.500000 0.949037 -0.500000
v 0.500000 0.949037 0.262319
v -0.500000 0.000000 -0.500000
v -0.500000 0.918105 -0.012259
v -0.500000 0.000000 -0.012260
v -0.500000 0.949037 -0.500000
v -0.500000 0.949037 0.262319
v 0.500001 0.918105 -0.500000
v 0.500001 0.918105 0.262319
v -0.500000 0.918105 -0.500000
v 0.500000 0.918105 0.262319
v -0.500000 0.918105 0.262319
v -0.500000 0.918105 -0.500000
v 0.500000 0.918105 -0.500000
vn -1.0000 -0.0000 -0.0000
vn -0.0000 -1.0000 -0.0000
vn -0.0000 -0.0000 1.0000
vn -0.0000 1.0000 -0.0000
vn 1.0000 -0.0000 -0.0000
vn -0.0000 -0.0000 -1.0000
vt 0.301772 0.895475
vt 0.294469 0.887640
vt 0.301772 0.878721
vt 0.284380 0.863753
vt 0.301880 0.865545
vt 0.294469 0.870179
vt 0.298603 0.888782
vt 0.301880 0.883714
vt 0.294469 0.888348
vt 0.301772 0.878721
vt 0.284380 0.863753
vt 0.301880 0.866252
vt 0.301772 0.895475
vt 0.301880 0.883006
vt 0.294469 0.887640
vt 0.292520 0.872345
vt 0.292520 0.873052
vt 0.301880 0.865545
vt 0.298603 0.888782
vt 0.308938 0.890849
vt 0.284380 0.863753
vt 0.291438 0.889056
vt 0.284380 0.863753
vt 0.301880 0.866252
vt 0.308938 0.891556
vt 0.292520 0.872345
vt 0.292520 0.873052
vt 0.294469 0.870179
vt 0.298603 0.888782
vt 0.294469 0.888348
vt 0.298603 0.888782
vt 0.308938 0.890849
vt 0.292520 0.873052
vt 0.292520 0.873052
vt 0.292520 0.872345
vt 0.292520 0.872345
s 0
usemtl Palette
f 5/10/1 6/13/1 1/1/1 2/3/1
f 5/12/2 3/5/2 4/8/2 6/14/2
f 2/4/3 10/21/3 11/23/3 5/11/3
f 7/16/4 12/26/4 13/27/4 8/17/4
f 5/12/2 11/24/2 9/18/2 3/5/2
f 4/9/5 3/6/5 14/28/5 15/30/5
f 6/15/3 4/9/3 15/30/3 1/2/3
f 3/7/6 9/19/6 16/31/6 14/29/6
f 20/36/2 17/33/2 18/34/2 19/35/2
f 13/27/3 18/34/3 17/33/3 8/17/3
f 7/16/6 20/36/6 19/35/6 12/26/6
f 8/17/5 17/33/5 20/36/5 7/16/5
f 13/27/1 12/26/1 19/35/1 18/34/1
f 16/32/1 9/20/1 11/25/1 10/22/1
