# Blender 3.4.1
# www.blender.org
mtllib Counter_Door_1.mtl
o Counter_Door_1
v 0.952023 0.829172 -0.016756
v 0.952023 -0.001741 -0.016756
v 0.006447 -0.001741 -0.016756
v 0.006447 0.829172 -0.016756
v 0.097597 0.089409 0.024792
v 0.860873 0.089409 0.024792
v 0.887044 0.580682 0.018197
v 0.887044 0.814902 0.018197
v 0.914449 0.814902 0.018197
v 0.914449 0.580682 0.018197
v 0.914449 0.814902 0.057260
v 0.914449 0.580682 0.057260
v 0.887044 0.814902 0.046171
v 0.887044 0.580682 0.046171
v 0.097597 0.738021 0.024792
v 0.860873 0.738021 0.024792
v 0.952023 -0.001741 0.024792
v 0.006447 -0.001741 0.024792
v 0.006447 0.829172 0.024792
v 0.952023 0.829172 0.024792
v 0.684956 0.158529 0.005683
v 0.273514 0.158529 0.005683
v 0.273514 0.668901 0.005683
v 0.684956 0.668901 0.005683
v 0.860873 0.089409 0.005683
v 0.097597 0.089409 0.005683
v 0.097597 0.738021 0.005683
v 0.860873 0.738021 0.005683
v 0.684956 0.158529 0.024792
v 0.273514 0.158529 0.024792
v 0.273514 0.668901 0.024792
v 0.684956 0.668901 0.024792
vn -0.0000 -1.0000 -0.0000
vn -0.0000 1.0000 -0.0000
vn -0.0000 -0.0000 -1.0000
vn 1.0000 -0.0000 -0.0000
vn -1.0000 -0.0000 -0.0000
vn -0.3751 -0.0000 0.9270
vn -0.0000 -0.0000 1.0000
vt 0.299401 0.890173
vt 0.285500 0.890173
vt 0.285500 0.883734
vt 0.299401 0.883734
vt 0.287025 0.884355
vt 0.287350 0.884142
vt 0.287025 0.889552
vt 0.287350 0.889340
vt 0.189257 0.868453
vt 0.203158 0.868453
vt 0.203158 0.874892
vt 0.189257 0.874892
vt 0.203158 0.874892
vt 0.189257 0.874892
vt 0.203158 0.868453
vt 0.189257 0.868453
vt 0.297876 0.884355
vt 0.298201 0.884143
vt 0.297876 0.889552
vt 0.298201 0.889340
vt 0.285500 0.890173
vt 0.285500 0.883734
vt 0.299401 0.883734
vt 0.299401 0.890173
vt 0.294659 0.867458
vt 0.282583 0.869313
vt 0.294659 0.865110
vt 0.282583 0.866965
vt 0.298509 0.865110
vt 0.286433 0.866965
vt 0.298509 0.867458
vt 0.286433 0.869313
vt 0.287350 0.889340
vt 0.291159 0.868883
vt 0.287350 0.884142
vt 0.291159 0.863685
vt 0.298201 0.884143
vt 0.302010 0.863686
vt 0.298201 0.889340
vt 0.302010 0.868883
vt 0.294659 0.867458
vt 0.282583 0.869313
vt 0.294659 0.865110
vt 0.282583 0.866965
vt 0.298509 0.865110
vt 0.286433 0.866965
vt 0.298509 0.867458
vt 0.286433 0.869313
s 0
usemtl Palette
f 17/21/1 18/22/1 3/3/1 2/2/1
f 19/23/2 20/24/2 1/1/2 4/4/2
f 1/1/3 2/2/3 3/3/3 4/4/3
f 11/13/4 12/14/4 10/12/4 9/11/4
f 12/14/1 14/16/1 7/9/1 10/12/1
f 13/15/2 11/13/2 9/11/2 8/10/2
f 14/16/5 13/15/5 8/10/5 7/9/5
f 14/16/6 12/14/6 11/13/6 13/15/6
f 18/22/5 19/23/5 4/4/5 3/3/5
f 2/2/4 1/1/4 20/24/4 17/21/4
f 6/8/5 16/20/5 28/39/5 25/33/5
f 6/7/7 5/5/7 18/22/7 17/21/7
f 15/17/7 16/19/7 20/24/7 19/23/7
f 5/5/7 15/17/7 19/23/7 18/22/7
f 16/19/7 6/7/7 17/21/7 20/24/7
f 24/32/2 23/30/2 31/46/2 32/48/2
f 16/20/1 15/18/1 27/37/1 28/39/1
f 15/18/4 5/6/4 26/35/4 27/37/4
f 5/6/2 6/8/2 25/33/2 26/35/2
f 21/25/7 22/27/7 26/36/7 25/34/7
f 23/29/7 24/31/7 28/40/7 27/38/7
f 22/27/7 23/29/7 27/38/7 26/36/7
f 24/31/7 21/25/7 25/34/7 28/40/7
f 29/41/7 32/47/7 31/45/7 30/43/7
f 23/30/5 22/28/5 30/44/5 31/46/5
f 22/28/1 21/26/1 29/42/1 30/44/1
f 21/26/4 24/32/4 32/48/4 29/42/4
