# Blender 3.4.1
# www.blender.org
mtllib Counter_3_C.mtl
o Counter_3_C
v 0.500000 0.949037 -0.500000
v 0.500000 0.949037 0.262319
v 0.500000 0.918105 -0.500000
v 0.500000 0.918105 0.262319
v 0.500000 0.918105 -0.500000
v 0.500000 0.918105 0.262319
v 0.500000 0.000000 -0.500000
v 0.500000 -0.000000 0.262319
v 0.458973 -0.000000 0.262319
v 0.458973 0.000000 -0.500000
v 0.458973 0.918105 0.262319
v 0.458973 0.918105 -0.500000
v 0.445541 0.904672 -0.089986
v 0.445541 0.904672 -0.147695
v 0.445541 -0.000000 -0.147695
v 0.445541 -0.000000 -0.089986
v 0.458973 -0.000000 -0.079610
v 0.458973 -0.000000 -0.158070
v 0.458973 0.904672 -0.079610
v 0.458973 0.904672 -0.158070
v 0.445541 0.904672 -0.089986
v 0.445541 0.904672 -0.147695
v 0.445541 0.918104 -0.079610
v 0.445541 0.918104 -0.158071
v -0.500000 0.949037 -0.500000
v -0.500000 0.949037 0.262319
v -0.500000 0.918105 -0.500000
v -0.500000 0.918105 0.262319
v -0.500000 0.904672 -0.089986
v -0.500000 0.904672 -0.147695
v -0.500000 0.918104 -0.079610
v -0.500000 0.918104 -0.158071
vn 1.0000 -0.0000 -0.0000
vn -0.0000 -0.0000 1.0000
vn -0.0000 1.0000 -0.0000
vn -0.0000 -1.0000 -0.0000
vn -1.0000 -0.0000 -0.0000
vn -0.5216 -0.5216 -0.6752
vn -0.0000 -0.0000 -1.0000
vn -0.6113 -0.0000 -0.7914
vn -0.6113 -0.0000 0.7914
vn -0.0000 -0.6113 -0.7914
vn -0.5216 -0.5216 0.6752
vn -0.0000 -0.6113 0.7914
vn 0.7071 0.7071 -0.0000
vt 0.302937 0.874949
vt 0.302937 0.875656
vt 0.302937 0.874949
vt 0.302937 0.875656
vt 0.302937 0.874949
vt 0.302937 0.875656
vt 0.302937 0.874949
vt 0.302937 0.875656
vt 0.302937 0.875656
vt 0.302937 0.874949
vt 0.302937 0.875656
vt 0.302937 0.874949
vt 0.205213 0.870601
vt 0.213026 0.889933
vt 0.205213 0.869100
vt 0.205213 0.873642
vt 0.205213 0.874349
vt 0.205213 0.874349
vt 0.205213 0.873642
vt 0.205213 0.870601
vt 0.200800 0.863748
vt 0.205213 0.869100
vt 0.213026 0.889933
vt 0.213026 0.894863
vt 0.205213 0.874030
vt 0.205213 0.873255
vt 0.205213 0.874030
vt 0.213026 0.894863
vt 0.205213 0.873255
vt 0.200800 0.863748
vt 0.302937 0.874949
vt 0.302937 0.875656
vt 0.302937 0.874949
vt 0.302937 0.875656
vt 0.205213 0.874030
vt 0.216425 0.858540
vt 0.205213 0.873255
vt 0.216425 0.858540
vt 0.205213 0.874030
vt 0.216425 0.858540
vt 0.205213 0.873255
vt 0.216425 0.858540
s 0
usemtl Palette
f 2/2/1 4/4/1 3/3/1 1/1/1
f 2/2/2 26/32/2 28/34/2 4/4/2
f 1/1/3 25/31/3 26/32/3 2/2/3
f 4/4/4 28/34/4 27/33/4 3/3/4
f 21/25/4 29/35/4 30/37/4 22/26/4
f 11/11/5 12/12/5 10/10/5 9/9/5
f 20/23/6 14/14/6 24/30/6
f 6/6/1 8/8/1 7/7/1 5/5/1
f 5/5/7 7/7/7 10/10/7 12/12/7
f 8/8/2 6/6/2 11/11/2 9/9/2
f 6/6/3 5/5/3 12/12/3 11/11/3
f 7/7/4 8/8/4 9/9/4 10/10/4
f 13/13/5 14/15/5 15/16/5 16/17/5
f 15/16/8 14/15/8 20/22/8 18/19/8
f 13/13/9 16/17/9 17/18/9 19/20/9
f 16/17/4 15/16/4 18/19/4 17/18/4
f 30/37/10 32/41/10 24/29/10 22/26/10
f 21/24/11 19/21/11 23/28/11
f 23/27/12 31/39/12 29/35/12 21/25/12
f 24/30/13 23/28/13 19/21/13 20/23/13
f 26/32/5 25/31/5 27/33/5 28/34/5
f 30/38/1 32/42/1 31/40/1 29/36/1
f 25/31/7 1/1/7 3/3/7 27/33/7
