# Blender 3.4.1
# www.blender.org
mtllib Counter_1.mtl
o Counter_1
v 0.458973 0.878906 0.240118
v 0.458973 0.878906 -0.234318
v 0.500001 0.878906 0.240118
v 0.500001 0.878906 -0.391359
v 0.500001 0.000000 -0.391360
v 0.500001 0.000000 0.240118
v 0.458973 0.000000 -0.234318
v 0.458973 0.000000 0.240118
v 0.476287 0.033393 -0.244927
v 0.476287 0.033393 0.235833
v 0.476287 0.074008 -0.244927
v 0.476287 0.074008 0.235833
v 0.500000 0.878906 -0.397169
v 0.500000 0.878906 0.262319
v 0.500000 0.949037 -0.397169
v 0.500000 0.949037 0.262319
v 0.349184 0.921175 0.255986
v 0.349184 0.940302 0.255986
v 0.284619 0.921175 0.255986
v 0.284619 0.940302 0.255986
v 0.349184 0.921175 0.272536
v 0.284619 0.921175 0.272536
v 0.284619 0.940302 0.272536
v 0.349184 0.940302 0.272536
v -0.458973 0.878906 0.240118
v -0.458973 0.878906 -0.234318
v -0.500001 0.878906 0.240118
v -0.500001 0.878906 -0.391359
v -0.500001 0.000000 -0.391360
v -0.500001 0.000000 0.240118
v -0.458973 0.000000 -0.234318
v -0.458973 0.000000 0.240118
v -0.476287 0.033393 -0.244927
v -0.476287 0.033393 0.235833
v -0.476287 0.074008 -0.244927
v -0.476287 0.074008 0.235833
v -0.500000 0.878906 -0.397169
v -0.500000 0.878906 0.262319
v -0.500000 0.949037 -0.397169
v -0.500000 0.949037 0.262319
v -0.349184 0.921175 0.255986
v -0.349184 0.940302 0.255986
v -0.284619 0.921175 0.255986
v -0.284619 0.940302 0.255986
v -0.349184 0.921175 0.272536
v -0.284619 0.921175 0.272536
v -0.284619 0.940302 0.272536
v -0.349184 0.940302 0.272536
vn -0.0000 -0.0000 1.0000
vn -1.0000 -0.0000 -0.0000
vn -0.0000 -1.0000 -0.0000
vn 1.0000 -0.0000 -0.0000
vn -0.0000 1.0000 -0.0000
vn -0.0000 -0.0000 -1.0000
vt 0.284380 0.880506
vt 0.284380 0.863753
vt 0.284380 0.881214
vt 0.284380 0.863045
vt 0.301880 0.865545
vt 0.284380 0.863045
vt 0.284380 0.881214
vt 0.301880 0.883714
vt 0.301880 0.866252
vt 0.284380 0.863753
vt 0.284380 0.880506
vt 0.301880 0.883006
vt 0.221677 0.895536
vt 0.221677 0.896244
vt 0.221677 0.895536
vt 0.221677 0.896244
vt 0.292520 0.872345
vt 0.292520 0.873052
vt 0.292520 0.872345
vt 0.292520 0.873052
vt 0.304166 0.869193
vt 0.304166 0.869193
vt 0.304166 0.865444
vt 0.304166 0.865444
vt 0.304166 0.869193
vt 0.304166 0.865444
vt 0.304166 0.865444
vt 0.304166 0.869193
vt 0.284380 0.880506
vt 0.284380 0.863753
vt 0.284380 0.881214
vt 0.284380 0.863045
vt 0.284380 0.863045
vt 0.301880 0.865545
vt 0.284380 0.881214
vt 0.301880 0.883714
vt 0.301880 0.866252
vt 0.284380 0.863753
vt 0.284380 0.880506
vt 0.301880 0.883006
vt 0.221677 0.895536
vt 0.221677 0.896244
vt 0.221677 0.895536
vt 0.221677 0.896244
vt 0.292520 0.872345
vt 0.292520 0.873052
vt 0.292520 0.872345
vt 0.292520 0.873052
vt 0.304166 0.869193
vt 0.304166 0.869193
vt 0.304166 0.865444
vt 0.304166 0.865444
vt 0.304166 0.869193
vt 0.304166 0.865444
vt 0.304166 0.865444
vt 0.304166 0.869193
s 0
usemtl Palette
f 8/11/1 6/7/1 3/3/1 1/1/1
f 7/10/2 8/11/2 1/1/2 2/2/2
f 7/9/3 31/37/3 29/34/3 5/5/3
f 6/7/4 5/6/4 4/4/4 3/3/4
f 10/14/3 34/42/3 33/41/3 9/13/3
f 7/9/3 5/5/3 6/8/3 8/12/3
f 11/15/5 35/43/5 36/44/5 12/16/5
f 34/42/1 10/14/1 12/16/1 36/44/1
f 15/19/5 39/47/5 40/48/5 16/20/5
f 37/45/6 39/47/6 15/19/6 13/17/6
f 14/18/4 13/17/4 15/19/4 16/20/4
f 38/46/1 14/18/1 16/20/1 40/48/1
f 29/33/6 28/32/6 4/4/6 5/6/6
f 21/25/1 24/28/1 23/27/1 22/26/1
f 17/21/4 18/22/4 24/28/4 21/25/4
f 19/23/3 17/21/3 21/25/3 22/26/3
f 20/24/2 19/23/2 22/26/2 23/27/2
f 18/22/5 20/24/5 23/27/5 24/28/5
f 32/39/1 25/29/1 27/31/1 30/35/1
f 31/38/4 26/30/4 25/29/4 32/39/4
f 30/35/2 27/31/2 28/32/2 29/33/2
f 31/37/3 32/40/3 30/36/3 29/34/3
f 38/46/2 40/48/2 39/47/2 37/45/2
f 45/53/1 46/54/1 47/55/1 48/56/1
f 41/49/2 45/53/2 48/56/2 42/50/2
f 43/51/3 46/54/3 45/53/3 41/49/3
f 44/52/4 47/55/4 46/54/4 43/51/4
f 42/50/5 48/56/5 47/55/5 44/52/5
f 14/18/3 38/46/3 37/45/3 13/17/3
f 2/2/1 26/30/1 31/38/1 7/10/1
