# Blender 3.4.1
# www.blender.org
mtllib Counter_2_B.mtl
o Counter_2_B
v 0.458973 0.918105 0.262319
v 0.458973 0.918105 -0.012259
v 0.500001 0.918105 -0.500000
v 0.500001 0.000000 -0.500000
v 0.500001 0.000000 0.262319
v 0.458973 0.000000 -0.012260
v 0.458973 0.000000 0.262319
v 0.500000 0.918105 0.262319
v 0.500000 0.949037 -0.500000
v 0.500000 0.949037 0.262319
v -0.458973 0.918105 0.262319
v -0.458973 0.918105 -0.012259
v -0.500001 0.918105 -0.500000
v -0.500001 0.000000 -0.500000
v -0.500001 0.000000 0.262319
v -0.458973 0.000000 -0.012260
v -0.458973 0.000000 0.262319
v -0.500000 0.918105 0.262319
v -0.500000 0.949037 -0.500000
v -0.500000 0.949037 0.262319
vn -0.0000 -0.0000 1.0000
vn -1.0000 -0.0000 -0.0000
vn -0.0000 -1.0000 -0.0000
vn 1.0000 -0.0000 -0.0000
vn -0.0000 -0.0000 -1.0000
vn -0.0000 1.0000 -0.0000
vt 0.301772 0.895475
vt 0.301772 0.878721
vt 0.284380 0.863753
vt 0.301772 0.878014
vt 0.281103 0.886282
vt 0.292520 0.872345
vt 0.301772 0.878014
vt 0.281103 0.886282
vt 0.301880 0.865545
vt 0.301772 0.896183
vt 0.301880 0.883714
vt 0.301772 0.878721
vt 0.301880 0.866252
vt 0.284380 0.863753
vt 0.301772 0.895475
vt 0.301880 0.883006
vt 0.301772 0.896183
vt 0.292520 0.873052
vt 0.292520 0.872345
vt 0.292520 0.873052
vt 0.301772 0.895475
vt 0.301772 0.878721
vt 0.284380 0.863753
vt 0.281103 0.886282
vt 0.301772 0.878014
vt 0.292520 0.872345
vt 0.281103 0.886282
vt 0.301772 0.878014
vt 0.301880 0.865545
vt 0.301772 0.896183
vt 0.301880 0.883714
vt 0.301772 0.878721
vt 0.301880 0.866252
vt 0.284380 0.863753
vt 0.301772 0.895475
vt 0.301880 0.883006
vt 0.301772 0.896183
vt 0.292520 0.873052
vt 0.292520 0.872345
vt 0.292520 0.873052
s 0
usemtl Palette
f 7/15/1 5/10/1 8/17/1 1/1/1
f 6/12/2 7/15/2 1/1/2 2/2/2
f 6/13/3 16/33/3 14/29/3 4/9/3
f 5/10/4 4/7/4 3/4/4 8/17/4
f 14/27/5 13/24/5 3/5/5 4/8/5
f 6/13/3 4/9/3 5/11/3 7/16/3
f 13/26/5 19/39/5 9/19/5 3/6/5
f 18/38/1 8/18/1 10/20/1 20/40/1
f 8/18/4 3/6/4 9/19/4 10/20/4
f 8/18/3 18/38/3 13/26/3 3/6/3
f 17/35/1 11/21/1 18/37/1 15/30/1
f 16/32/4 12/22/4 11/21/4 17/35/4
f 15/30/2 18/37/2 13/25/2 14/28/2
f 16/33/3 17/36/3 15/31/3 14/29/3
f 18/38/2 20/40/2 19/39/2 13/26/2
f 9/19/6 19/39/6 20/40/6 10/20/6
f 2/3/1 12/23/1 16/34/1 6/14/1
