# Blender 3.4.1
# www.blender.org
mtllib Deco_3.mtl
o Deco_3
v 0.030420 0.038676 -0.030420
v 0.030420 0.038676 0.030420
v -0.030420 0.038676 0.030420
v -0.030420 0.038676 -0.030420
v -0.033169 -0.001170 0.033169
v 0.033169 -0.001170 0.033169
v -0.033169 -0.001170 -0.033169
v 0.033169 -0.001170 -0.033169
v -0.006506 0.088844 -0.017772
v -0.017530 0.088844 -0.017772
v -0.017530 0.093963 -0.006748
v -0.006506 0.093963 -0.006748
v 0.024931 0.034708 -0.024931
v -0.024931 0.034708 -0.024931
v -0.024931 0.034708 0.024931
v 0.024931 0.034708 0.024931
v 0.036544 0.038676 -0.036544
v 0.039893 0.034639 -0.039893
v -0.039893 0.034639 -0.039893
v -0.036544 0.038676 -0.036544
v -0.036544 0.038676 0.036544
v -0.039893 0.034639 0.039893
v 0.039893 0.034639 0.039893
v 0.036544 0.038676 0.036544
v -0.018522 0.032107 -0.018764
v -0.018522 0.032107 -0.005756
v -0.005514 0.032107 -0.005756
v -0.005514 0.032107 -0.018764
v -0.005571 0.032107 0.005850
v -0.005571 0.032107 0.018744
v -0.018465 0.032107 0.018744
v -0.018465 0.032107 0.005850
v -0.006468 0.078359 0.017846
v -0.017567 0.083329 0.017846
v -0.017567 0.083329 0.006747
v -0.006468 0.078359 0.006747
v 0.018887 0.073932 0.006784
v 0.007861 0.069313 0.006784
v 0.007861 0.069313 0.017809
v 0.018887 0.073932 0.017809
v 0.006896 0.032107 0.005819
v 0.006896 0.032107 0.018775
v 0.019852 0.032107 0.018775
v 0.019852 0.032107 0.005819
v 0.020082 0.032107 -0.018968
v 0.020082 0.032107 -0.005551
v 0.006666 0.032107 -0.005551
v 0.006666 0.032107 -0.018968
v 0.018694 0.060952 -0.006940
v 0.008054 0.060952 -0.006940
v 0.008054 0.065409 -0.017580
v 0.018694 0.065409 -0.017580
vn 0.5858 0.8104 -0.0000
vn -0.0000 -1.0000 -0.0000
vn -0.0000 1.0000 -0.0000
vn -0.9999 0.0167 -0.0036
vn -0.0000 -0.1846 -0.9828
vn 0.9828 -0.1846 -0.0000
vn -0.0000 -0.1846 0.9828
vn -0.9828 -0.1846 -0.0000
vn -0.0000 0.8104 -0.5858
vn -0.5858 0.8104 -0.0000
vn -0.0000 0.8104 0.5858
vn -0.0000 0.6385 -0.7696
vn -0.0000 0.6385 0.7696
vn 0.7696 0.6385 -0.0000
vn -0.7696 0.6385 -0.0000
vn -0.0000 0.0160 0.9999
vn -0.9998 0.0175 -0.0000
vn 0.9999 0.0167 -0.0036
vn -0.0000 0.0175 -0.9998
vn -0.0000 0.9070 -0.4212
vn 0.0038 0.0184 -0.9998
vn 0.9998 0.0194 -0.0000
vn 0.0038 0.0184 0.9998
vn 0.4087 0.9127 -0.0000
vn -0.9990 0.0446 0.0083
vn -0.3864 0.9223 -0.0000
vn -0.0047 0.0244 0.9997
vn 0.9997 0.0231 -0.0000
vn -0.0047 0.0244 -0.9997
vn -0.0000 0.0481 0.9988
vn -0.0000 0.9224 0.3864
vn -0.0000 0.0417 -0.9991
vn 0.9990 0.0446 0.0083
vn -0.9997 0.0259 -0.0000
vt 0.899211 0.813451
vt 0.981294 0.810847
vt 0.981294 0.773431
vt 0.899211 0.776035
vt 0.943878 0.773431
vt 0.861795 0.776035
vt 0.861795 0.813451
vt 0.943878 0.810847
vt 0.937586 0.767139
vt 0.987586 0.767139
vt 0.937586 0.817139
vt 0.987586 0.817139
vt 0.813294 0.901336
vt 0.775878 0.901336
vt 0.775878 0.863920
vt 0.813294 0.863920
vt 0.978747 0.897838
vt 0.899211 0.813451
vt 0.941331 0.897838
vt 0.861795 0.813451
vt 0.941331 0.860422
vt 0.861795 0.776035
vt 0.978747 0.860422
vt 0.899211 0.776035
vt 0.985060 0.814613
vt 0.987586 0.817139
vt 0.937586 0.817139
vt 0.940112 0.814613
vt 0.940112 0.769665
vt 0.937586 0.767139
vt 0.987586 0.767139
vt 0.985060 0.769665
vt 0.775878 0.901336
vt 0.775878 0.863920
vt 0.813294 0.863920
vt 0.813294 0.901336
vt 0.813294 0.901336
vt 0.813294 0.863920
vt 0.775878 0.863920
vt 0.775878 0.901336
vt 0.813294 0.863920
vt 0.775878 0.863920
vt 0.775878 0.901336
vt 0.813294 0.901336
vt 0.813294 0.901336
vt 0.775878 0.901336
vt 0.775878 0.863920
vt 0.813294 0.863920
vt 0.775878 0.901336
vt 0.775878 0.863920
vt 0.813294 0.863920
vt 0.813294 0.901336
vt 0.813294 0.901336
vt 0.813294 0.863920
vt 0.775878 0.863920
vt 0.775878 0.901336
vt 0.813294 0.863920
vt 0.775878 0.863920
vt 0.775878 0.901336
vt 0.813294 0.901336
s 0
usemtl Palette
f 4/7/1 3/6/1 15/22/1 14/20/1
f 5/9/2 7/11/2 8/12/2 6/10/2
f 1/2/3 2/3/3 24/32/3 17/25/3
f 10/14/4 25/33/4 26/34/4 11/15/4
f 8/12/5 7/11/5 19/27/5 18/26/5
f 2/3/3 3/5/3 21/29/3 24/32/3
f 6/10/6 8/12/6 18/26/6 23/31/6
f 5/9/7 6/10/7 23/31/7 22/30/7
f 3/5/3 4/8/3 20/28/3 21/29/3
f 7/11/8 5/9/8 22/30/8 19/27/8
f 15/21/3 16/23/3 13/17/3 14/19/3
f 3/6/9 2/4/9 16/24/9 15/22/9
f 2/4/10 1/1/10 13/18/10 16/24/10
f 1/1/11 4/7/11 14/20/11 13/18/11
f 18/26/12 19/27/12 20/28/12 17/25/12
f 22/30/13 23/31/13 24/32/13 21/29/13
f 23/31/14 18/26/14 17/25/14 24/32/14
f 19/27/15 22/30/15 21/29/15 20/28/15
f 4/8/3 1/2/3 17/25/3 20/28/3
f 11/15/16 26/34/16 27/35/16 12/16/16
f 35/43/17 32/40/17 31/39/17 34/42/17
f 12/16/18 27/35/18 28/36/18 9/13/18
f 9/13/19 28/36/19 25/33/19 10/14/19
f 11/15/20 12/16/20 9/13/20 10/14/20
f 36/44/21 29/37/21 32/40/21 35/43/21
f 33/41/22 30/38/22 29/37/22 36/44/22
f 34/42/23 31/39/23 30/38/23 33/41/23
f 34/42/24 33/41/24 36/44/24 35/43/24
f 51/59/25 48/56/25 47/55/25 50/58/25
f 39/47/26 40/48/26 37/45/26 38/46/26
f 39/47/27 42/50/27 43/51/27 40/48/27
f 40/48/28 43/51/28 44/52/28 37/45/28
f 37/45/29 44/52/29 41/49/29 38/46/29
f 50/58/30 47/55/30 46/54/30 49/57/30
f 50/58/31 49/57/31 52/60/31 51/59/31
f 52/60/32 45/53/32 48/56/32 51/59/32
f 49/57/33 46/54/33 45/53/33 52/60/33
f 38/46/34 41/49/34 42/50/34 39/47/34
