# Blender 3.4.1
# www.blender.org
mtllib Deco.mtl
o Deco
v 0.030420 0.038676 -0.030420
v 0.030420 0.038676 0.030420
v -0.030420 0.038676 0.030420
v -0.030420 0.038676 -0.030420
v -0.033169 -0.001170 0.033169
v 0.033169 -0.001170 0.033169
v -0.033169 -0.001170 -0.033169
v 0.033169 -0.001170 -0.033169
v -0.003358 0.033981 0.001670
v -0.017063 0.033981 -0.001600
v -0.013792 0.033981 -0.015305
v -0.000088 0.033981 -0.012034
v 0.024931 0.034708 -0.024931
v -0.024931 0.034708 -0.024931
v -0.024931 0.034708 0.024931
v 0.024931 0.034708 0.024931
v 0.036544 0.038676 -0.036544
v 0.039893 0.034639 -0.039893
v -0.039893 0.034639 -0.039893
v -0.036544 0.038676 -0.036544
v -0.036544 0.038676 0.036544
v -0.039893 0.034639 0.039893
v 0.039893 0.034639 0.039893
v 0.036544 0.038676 0.036544
v -0.017063 0.082369 -0.001600
v -0.003358 0.082369 0.001670
v -0.013792 0.082369 -0.015305
v -0.000088 0.082369 -0.012034
v 0.019039 0.033981 0.019207
v 0.005015 0.033981 0.020559
v 0.003662 0.033981 0.006535
v 0.017686 0.033981 0.005182
v 0.005015 0.065837 0.020559
v 0.019039 0.065837 0.019207
v 0.003662 0.065837 0.006535
v 0.017686 0.065837 0.005182
v 0.007460 0.064506 0.017592
v 0.016072 0.064506 0.016762
v 0.006629 0.064506 0.008980
v 0.015241 0.064506 0.008150
v 0.007460 0.097982 0.017592
v 0.016072 0.097982 0.016762
v 0.015241 0.097982 0.008150
v 0.006629 0.097982 0.008980
v -0.014218 0.088636 -0.003349
v -0.005107 0.088636 -0.001175
v -0.012044 0.088636 -0.012460
v -0.002933 0.088636 -0.010286
v -0.014218 0.079501 -0.003349
v -0.005107 0.079501 -0.001175
v -0.002933 0.079501 -0.010286
v -0.012044 0.079501 -0.012460
vn 0.5858 0.8104 -0.0000
vn -0.0000 -1.0000 -0.0000
vn -0.0000 1.0000 -0.0000
vn -0.0000 -0.1846 -0.9828
vn 0.9828 -0.1846 -0.0000
vn -0.0000 -0.1846 0.9828
vn -0.9828 -0.1846 -0.0000
vn -0.0000 0.8104 -0.5858
vn -0.5858 0.8104 -0.0000
vn -0.0000 0.8104 0.5858
vn -0.0000 0.6385 -0.7696
vn -0.0000 0.6385 0.7696
vn 0.7696 0.6385 -0.0000
vn -0.7696 0.6385 -0.0000
vn -0.2321 -0.0000 0.9727
vn 0.9727 -0.0000 0.2321
vn -0.9727 -0.0000 -0.2321
vn 0.2321 -0.0000 -0.9727
vn 0.0960 -0.0000 0.9954
vn 0.9954 -0.0000 -0.0960
vn -0.9954 -0.0000 0.0960
vn -0.0960 -0.0000 -0.9954
vt 0.899211 0.813451
vt 0.981294 0.810847
vt 0.981294 0.773431
vt 0.899211 0.776035
vt 0.943878 0.773431
vt 0.861795 0.776035
vt 0.861795 0.813451
vt 0.943878 0.810847
vt 0.937586 0.767139
vt 0.987586 0.767139
vt 0.937586 0.817139
vt 0.987586 0.817139
vt 0.805482 0.853504
vt 0.768066 0.853504
vt 0.768066 0.890920
vt 0.805482 0.890920
vt 0.978747 0.897838
vt 0.899211 0.813451
vt 0.941331 0.897838
vt 0.861795 0.813451
vt 0.941331 0.860422
vt 0.861795 0.776035
vt 0.978747 0.860422
vt 0.899211 0.776035
vt 0.985060 0.814613
vt 0.987586 0.817139
vt 0.937586 0.817139
vt 0.940112 0.814613
vt 0.940112 0.769665
vt 0.937586 0.767139
vt 0.987586 0.767139
vt 0.985060 0.769665
vt 0.768066 0.853504
vt 0.805482 0.853504
vt 0.768066 0.890920
vt 0.805482 0.890920
vt 0.805482 0.853504
vt 0.768066 0.853504
vt 0.768066 0.890920
vt 0.805482 0.890920
vt 0.768066 0.853504
vt 0.805482 0.853504
vt 0.768066 0.890920
vt 0.805482 0.890920
vt 0.768066 0.853504
vt 0.805482 0.853504
vt 0.768066 0.890920
vt 0.805482 0.890920
vt 0.768066 0.853504
vt 0.805482 0.853504
vt 0.805482 0.890920
vt 0.768066 0.890920
vt 0.768066 0.853504
vt 0.805482 0.853504
vt 0.768066 0.890920
vt 0.805482 0.890920
vt 0.768066 0.853504
vt 0.805482 0.853504
vt 0.805482 0.890920
vt 0.768066 0.890920
s 0
usemtl Palette
f 4/7/1 3/6/1 15/22/1 14/20/1
f 5/9/2 7/11/2 8/12/2 6/10/2
f 1/2/3 2/3/3 24/32/3 17/25/3
f 33/41/3 34/42/3 36/44/3 35/43/3
f 8/12/4 7/11/4 19/27/4 18/26/4
f 2/3/3 3/5/3 21/29/3 24/32/3
f 6/10/5 8/12/5 18/26/5 23/31/5
f 5/9/6 6/10/6 23/31/6 22/30/6
f 3/5/3 4/8/3 20/28/3 21/29/3
f 7/11/7 5/9/7 22/30/7 19/27/7
f 15/21/3 16/23/3 13/17/3 14/19/3
f 3/6/8 2/4/8 16/24/8 15/22/8
f 2/4/9 1/1/9 13/18/9 16/24/9
f 1/1/10 4/7/10 14/20/10 13/18/10
f 18/26/11 19/27/11 20/28/11 17/25/11
f 22/30/12 23/31/12 24/32/12 21/29/12
f 23/31/13 18/26/13 17/25/13 24/32/13
f 19/27/14 22/30/14 21/29/14 20/28/14
f 4/8/3 1/2/3 17/25/3 20/28/3
f 25/33/3 26/34/3 28/36/3 27/35/3
f 10/14/15 9/13/15 26/34/15 25/33/15
f 9/13/16 12/16/16 28/36/16 26/34/16
f 11/15/17 10/14/17 25/33/17 27/35/17
f 12/16/18 11/15/18 27/35/18 28/36/18
f 30/38/19 29/37/19 34/42/19 33/41/19
f 29/37/20 32/40/20 36/44/20 34/42/20
f 31/39/21 30/38/21 33/41/21 35/43/21
f 32/40/22 31/39/22 35/43/22 36/44/22
f 41/49/3 42/50/3 43/51/3 44/52/3
f 38/46/20 40/48/20 43/51/20 42/50/20
f 40/48/22 39/47/22 44/52/22 43/51/22
f 37/45/19 38/46/19 42/50/19 41/49/19
f 39/47/21 37/45/21 41/49/21 44/52/21
f 45/53/3 46/54/3 48/56/3 47/55/3
f 48/56/18 51/59/18 52/60/18 47/55/18
f 45/53/15 49/57/15 50/58/15 46/54/15
f 47/55/17 52/60/17 49/57/17 45/53/17
f 46/54/16 50/58/16 51/59/16 48/56/16
