# Blender 3.4.1
# www.blender.org
mtllib Deco_2.mtl
o Deco_2
v 0.030420 0.038676 -0.030420
v 0.030420 0.038676 0.030420
v -0.030420 0.038676 0.030420
v -0.030420 0.038676 -0.030420
v -0.033169 -0.001170 0.033169
v 0.033169 -0.001170 0.033169
v -0.033169 -0.001170 -0.033169
v 0.033169 -0.001170 -0.033169
v 0.024931 0.034708 -0.024931
v -0.024931 0.034708 -0.024931
v -0.024931 0.034708 0.024931
v 0.024931 0.034708 0.024931
v 0.036544 0.038676 -0.036544
v 0.039893 0.034639 -0.039893
v -0.039893 0.034639 -0.039893
v -0.036544 0.038676 -0.036544
v -0.036544 0.038676 0.036544
v -0.039893 0.034639 0.039893
v 0.039893 0.034639 0.039893
v 0.036544 0.038676 0.036544
v 0.021857 0.032445 0.001782
v 0.004578 0.032445 0.003448
v 0.002912 0.032445 -0.013830
v 0.020191 0.032445 -0.015496
v 0.004210 0.054331 0.003895
v 0.022304 0.054331 0.002151
v 0.002411 0.056962 -0.014243
v 0.020603 0.056962 -0.015997
v 0.006020 0.052857 0.001699
v 0.020107 0.052857 0.000340
v 0.004662 0.055103 -0.012388
v 0.018749 0.055103 -0.013747
v 0.007358 0.069305 0.000075
v 0.018764 0.065850 -0.000767
v 0.017642 0.065850 -0.012404
v 0.006286 0.069305 -0.011050
v 0.008546 0.088040 -0.009187
v 0.015548 0.088040 -0.009862
v 0.016074 0.091062 -0.002983
v 0.009344 0.091062 -0.002334
v 0.016235 0.063686 -0.010696
v 0.007712 0.063686 -0.009874
v 0.017057 0.063686 -0.002174
v 0.008534 0.063686 -0.001352
v -0.006325 0.028228 0.015213
v -0.000589 0.028228 -0.000391
v 0.015015 0.028228 0.005344
v 0.009279 0.028228 0.020948
v -0.000822 0.046873 -0.000895
v -0.006829 0.046873 0.015446
v 0.015579 0.049114 0.005083
v 0.009540 0.049114 0.021513
v 0.000322 0.045618 0.001580
v -0.004354 0.045618 0.014302
v 0.013044 0.047531 0.006256
v 0.008368 0.047531 0.018978
v 0.001168 0.068756 0.003409
v -0.002841 0.065813 0.013602
v 0.007668 0.065813 0.017465
v 0.011215 0.068756 0.007102
v 0.008669 0.075591 0.008279
v 0.006344 0.075591 0.014602
v 0.000189 0.078165 0.012201
v 0.002423 0.078165 0.006122
v 0.006779 0.061141 0.015542
v 0.009608 0.061141 0.007845
v -0.000918 0.061141 0.012713
v 0.001911 0.061141 0.005016
v 0.000125 0.028228 -0.009412
v -0.011624 0.028228 0.002350
v -0.023386 0.028228 -0.009399
v -0.011636 0.028228 -0.021161
v -0.011624 0.050124 0.002905
v 0.000680 0.050124 -0.009412
v -0.024007 0.052366 -0.009399
v -0.011637 0.052366 -0.021783
v -0.011618 0.045618 -0.001600
v -0.003809 0.045618 -0.009418
v -0.019436 0.047531 -0.009410
v -0.011626 0.047531 -0.017227
v -0.011619 0.064555 -0.003243
v -0.005167 0.061612 -0.009417
v -0.011626 0.061612 -0.015869
v -0.017793 0.064555 -0.009410
vn 0.5858 0.8104 -0.0000
vn -0.0000 -1.0000 -0.0000
vn -0.0000 1.0000 -0.0000
vn 0.0137 0.9897 0.1422
vn -0.0000 -0.1846 -0.9828
vn 0.9828 -0.1846 -0.0000
vn -0.0000 -0.1846 0.9828
vn -0.9828 -0.1846 -0.0000
vn -0.0000 0.8104 -0.5858
vn -0.5858 0.8104 -0.0000
vn -0.0000 0.8104 0.5858
vn -0.0000 0.6385 -0.7696
vn -0.0000 0.6385 0.7696
vn 0.7696 0.6385 -0.0000
vn -0.7696 0.6385 -0.0000
vn 0.0960 -0.0187 0.9952
vn 0.9952 -0.0187 -0.0960
vn -0.9952 -0.0187 0.0960
vn -0.0960 -0.0187 -0.9952
vn 0.2879 0.9573 -0.0278
vn 0.9909 0.1031 -0.0866
vn -0.0908 0.1083 -0.9900
vn 0.0980 0.0919 0.9909
vn -0.9899 0.0966 0.1041
vn 0.0959 0.0329 0.9948
vn -0.0385 0.9160 -0.3994
vn -0.9946 0.0322 0.0984
vn -0.0959 0.0314 -0.9949
vn 0.9951 0.0322 -0.0934
vn -0.1195 0.9919 -0.0439
vn -0.9384 -0.0210 -0.3449
vn -0.3449 -0.0210 0.9384
vn 0.3449 -0.0210 -0.9384
vn 0.9384 -0.0210 0.3449
vn -0.0896 0.9657 0.2436
vn -0.3488 0.0611 0.9352
vn 0.9373 0.0658 0.3422
vn -0.9359 0.0600 -0.3470
vn 0.3395 0.0641 -0.9384
vn -0.9374 0.0506 -0.3446
vn 0.3408 0.9318 0.1253
vn 0.3446 0.0506 -0.9374
vn 0.9374 0.0506 0.3446
vn -0.3446 0.0506 0.9374
vn 0.0901 0.9919 0.0900
vn 0.7074 -0.0179 0.7066
vn 0.7068 -0.0181 -0.7072
vn -0.7065 -0.0181 0.7075
vn -0.7074 -0.0182 -0.7066
vn 0.2213 0.9497 -0.2215
vn 0.7096 0.0638 -0.7018
vn -0.7058 0.0681 -0.7051
vn 0.7054 0.0607 0.7062
vn -0.7008 0.0645 0.7104
vt 0.899211 0.813451
vt 0.981294 0.810847
vt 0.981294 0.773431
vt 0.899211 0.776035
vt 0.943878 0.773431
vt 0.861795 0.776035
vt 0.861795 0.813451
vt 0.943878 0.810847
vt 0.937586 0.767139
vt 0.987586 0.767139
vt 0.937586 0.817139
vt 0.987586 0.817139
vt 0.978747 0.897838
vt 0.899211 0.813451
vt 0.941331 0.897838
vt 0.861795 0.813451
vt 0.941331 0.860422
vt 0.861795 0.776035
vt 0.978747 0.860422
vt 0.899211 0.776035
vt 0.985060 0.814613
vt 0.987586 0.817139
vt 0.937586 0.817139
vt 0.940112 0.814613
vt 0.940112 0.769665
vt 0.937586 0.767139
vt 0.987586 0.767139
vt 0.985060 0.769665
vt 0.805482 0.853504
vt 0.768066 0.853504
vt 0.768066 0.890920
vt 0.805482 0.890920
vt 0.768066 0.853504
vt 0.805482 0.853504
vt 0.768066 0.890920
vt 0.805482 0.890920
vt 0.768066 0.853504
vt 0.805482 0.853504
vt 0.768066 0.890920
vt 0.805482 0.890920
vt 0.768066 0.853504
vt 0.805482 0.853504
vt 0.805482 0.890920
vt 0.768066 0.890920
vt 0.768066 0.890920
vt 0.805482 0.890920
vt 0.805482 0.853504
vt 0.768066 0.853504
vt 0.805482 0.890920
vt 0.768066 0.890920
vt 0.805482 0.853504
vt 0.768066 0.853504
vt 0.805482 0.853504
vt 0.768066 0.853504
vt 0.768066 0.890920
vt 0.805482 0.890920
vt 0.768066 0.853504
vt 0.805482 0.853504
vt 0.768066 0.890920
vt 0.805482 0.890920
vt 0.768066 0.853504
vt 0.805482 0.853504
vt 0.768066 0.890920
vt 0.805482 0.890920
vt 0.768066 0.853504
vt 0.805482 0.853504
vt 0.805482 0.890920
vt 0.768066 0.890920
vt 0.768066 0.890920
vt 0.805482 0.890920
vt 0.805482 0.853504
vt 0.768066 0.853504
vt 0.805482 0.890920
vt 0.768066 0.890920
vt 0.805482 0.853504
vt 0.768066 0.853504
vt 0.805482 0.853504
vt 0.768066 0.853504
vt 0.768066 0.890920
vt 0.805482 0.890920
vt 0.768066 0.853504
vt 0.805482 0.853504
vt 0.768066 0.890920
vt 0.805482 0.890920
vt 0.768066 0.853504
vt 0.805482 0.853504
vt 0.768066 0.890920
vt 0.805482 0.890920
vt 0.768066 0.853504
vt 0.805482 0.853504
vt 0.805482 0.890920
vt 0.768066 0.890920
s 0
usemtl Palette
f 4/7/1 3/6/1 11/18/1 10/16/1
f 5/9/2 7/11/2 8/12/2 6/10/2
f 1/2/3 2/3/3 20/28/3 13/21/3
f 25/33/4 26/34/4 28/36/4 27/35/4
f 8/12/5 7/11/5 15/23/5 14/22/5
f 2/3/3 3/5/3 17/25/3 20/28/3
f 6/10/6 8/12/6 14/22/6 19/27/6
f 5/9/7 6/10/7 19/27/7 18/26/7
f 3/5/3 4/8/3 16/24/3 17/25/3
f 7/11/8 5/9/8 18/26/8 15/23/8
f 11/17/3 12/19/3 9/13/3 10/15/3
f 3/6/9 2/4/9 12/20/9 11/18/9
f 2/4/10 1/1/10 9/14/10 12/20/10
f 1/1/11 4/7/11 10/16/11 9/14/11
f 14/22/12 15/23/12 16/24/12 13/21/12
f 18/26/13 19/27/13 20/28/13 17/25/13
f 19/27/14 14/22/14 13/21/14 20/28/14
f 15/23/15 18/26/15 17/25/15 16/24/15
f 4/8/3 1/2/3 13/21/3 16/24/3
f 22/30/16 21/29/16 26/34/16 25/33/16
f 21/29/17 24/32/17 28/36/17 26/34/17
f 23/31/18 22/30/18 25/33/18 27/35/18
f 24/32/19 23/31/19 27/35/19 28/36/19
f 33/41/20 34/42/20 35/43/20 36/44/20
f 30/38/21 32/40/21 35/43/21 34/42/21
f 32/40/22 31/39/22 36/44/22 35/43/22
f 29/37/23 30/38/23 34/42/23 33/41/23
f 31/39/24 29/37/24 33/41/24 36/44/24
f 44/52/25 43/51/25 39/47/25 40/48/25
f 40/48/26 39/47/26 38/46/26 37/45/26
f 42/50/27 44/52/27 40/48/27 37/45/27
f 41/49/28 42/50/28 37/45/28 38/46/28
f 43/51/29 41/49/29 38/46/29 39/47/29
f 49/57/30 50/58/30 52/60/30 51/59/30
f 46/54/31 45/53/31 50/58/31 49/57/31
f 45/53/32 48/56/32 52/60/32 50/58/32
f 47/55/33 46/54/33 49/57/33 51/59/33
f 48/56/34 47/55/34 51/59/34 52/60/34
f 57/65/35 58/66/35 59/67/35 60/68/35
f 54/62/36 56/64/36 59/67/36 58/66/36
f 56/64/37 55/63/37 60/68/37 59/67/37
f 53/61/38 54/62/38 58/66/38 57/65/38
f 55/63/39 53/61/39 57/65/39 60/68/39
f 68/76/40 67/75/40 63/71/40 64/72/40
f 64/72/41 63/71/41 62/70/41 61/69/41
f 66/74/42 68/76/42 64/72/42 61/69/42
f 65/73/43 66/74/43 61/69/43 62/70/43
f 67/75/44 65/73/44 62/70/44 63/71/44
f 73/81/45 74/82/45 76/84/45 75/83/45
f 70/78/46 69/77/46 74/82/46 73/81/46
f 69/77/47 72/80/47 76/84/47 74/82/47
f 71/79/48 70/78/48 73/81/48 75/83/48
f 72/80/49 71/79/49 75/83/49 76/84/49
f 81/89/50 82/90/50 83/91/50 84/92/50
f 78/86/51 80/88/51 83/91/51 82/90/51
f 80/88/52 79/87/52 84/92/52 83/91/52
f 77/85/53 78/86/53 82/90/53 81/89/53
f 79/87/54 77/85/54 81/89/54 84/92/54
