# Blender 3.4.1
# www.blender.org
mtllib Deco_4.mtl
o Deco_4
v 0.030420 0.038676 -0.030420
v 0.030420 0.038676 0.030420
v -0.030420 0.038676 0.030420
v -0.030420 0.038676 -0.030420
v -0.033169 -0.001170 0.033169
v 0.033169 -0.001170 0.033169
v -0.033169 -0.001170 -0.033169
v 0.033169 -0.001170 -0.033169
v 0.024931 0.034708 -0.024931
v -0.024931 0.034708 -0.024931
v -0.024931 0.034708 0.024931
v 0.024931 0.034708 0.024931
v 0.036544 0.038676 -0.036544
v 0.039893 0.034639 -0.039893
v -0.039893 0.034639 -0.039893
v -0.036544 0.038676 -0.036544
v -0.036544 0.038676 0.036544
v -0.039893 0.034639 0.039893
v 0.039893 0.034639 0.039893
v 0.036544 0.038676 0.036544
v 0.009690 0.079511 0.009584
v -0.009636 0.079516 -0.009633
v 0.009633 0.079516 -0.009636
v -0.009884 0.033762 0.009888
v 0.015024 0.047699 0.015024
v -0.015024 0.047699 -0.015024
v -0.015024 0.047699 0.015024
v 0.015024 0.047699 -0.015024
v 0.015877 0.060160 0.015872
v -0.015878 0.060160 -0.015872
v 0.015872 0.060160 -0.015877
v -0.000000 0.030644 -0.009258
v -0.000000 0.030644 0.009258
v 0.009946 0.033767 0.009831
v -0.000000 0.082506 0.009126
v -0.009258 0.030644 -0.000000
v 0.009126 0.082506 -0.000000
v 0.009257 0.030644 -0.000000
v -0.009126 0.082506 -0.000000
v -0.009888 0.033762 -0.009884
v -0.009584 0.079511 0.009690
v -0.000000 0.082506 -0.009126
v 0.009831 0.033767 -0.009946
v 0.022167 0.052633 0.000002
v -0.022167 0.052633 -0.000002
v 0.000002 0.052633 -0.022167
v -0.000002 0.052633 0.022167
v -0.015872 0.060160 0.015877
v 0.017943 0.072331 0.000012
v -0.017943 0.072331 -0.000012
v 0.000012 0.072331 -0.017943
v -0.000012 0.072331 0.017943
v -0.000000 0.085074 -0.000000
v 0.016266 0.037991 0.000000
v -0.016266 0.037991 0.000000
v -0.000000 0.037991 -0.016266
v -0.000000 0.037991 0.016266
v 0.015766 0.083403 -0.001478
v 0.015738 0.081087 -0.008681
v 0.015580 0.083375 -0.005433
v 0.018917 0.079457 -0.004169
v 0.012023 0.084450 -0.005776
v 0.014748 0.082332 0.000425
v 0.014709 0.079132 -0.009526
v 0.009576 0.083779 -0.005513
v 0.019101 0.076880 -0.003292
v 0.011317 0.078420 -0.001391
v 0.011300 0.077026 -0.005727
v 0.009064 0.079051 -0.003978
v 0.013214 0.076045 -0.003011
v -0.005514 0.074428 0.023629
v -0.016380 0.074662 0.017202
v -0.011953 0.074030 0.021739
v -0.008487 0.079251 0.017988
v -0.012816 0.069287 0.021982
v -0.001962 0.073503 0.022736
v -0.016975 0.073827 0.013856
v -0.012050 0.066400 0.020460
v -0.006069 0.080168 0.014942
v -0.003314 0.070108 0.015577
v -0.009855 0.070249 0.011708
v -0.007709 0.067014 0.014585
v -0.005104 0.073012 0.012181
vn 0.5858 0.8104 -0.0000
vn -0.0000 -1.0000 -0.0000
vn -0.0000 1.0000 -0.0000
vn -0.0000 -0.1846 -0.9828
vn 0.9828 -0.1846 -0.0000
vn -0.0000 -0.1846 0.9828
vn -0.9828 -0.1846 -0.0000
vn -0.0000 0.8104 -0.5858
vn -0.5858 0.8104 -0.0000
vn -0.0000 0.8104 0.5858
vn -0.0000 0.6385 -0.7696
vn -0.0000 0.6385 0.7696
vn 0.7696 0.6385 -0.0000
vn -0.7696 0.6385 -0.0000
vn -0.4109 0.3961 0.8212
vn 0.1643 0.6459 0.7456
vn -0.2605 0.9258 0.2738
vn 0.2738 0.9258 0.2605
vn 0.2736 0.9259 -0.2605
vn -0.2605 0.9259 -0.2736
vn 0.4116 0.3971 -0.8203
vn -0.1612 0.6462 -0.7460
vn -0.8203 0.3971 -0.4116
vn -0.7456 0.6459 0.1643
vn 0.8212 0.3961 0.4109
vn 0.7460 0.6462 -0.1612
vn 0.7128 -0.6799 -0.1724
vn -0.7132 -0.6802 0.1693
vn -0.1693 -0.6802 -0.7132
vn 0.1724 -0.6799 0.7128
vn 0.9106 -0.0898 0.4035
vn 0.9395 0.2016 -0.2769
vn -0.9106 -0.0898 -0.4035
vn -0.9395 0.2016 0.2769
vn 0.4035 -0.0898 -0.9106
vn -0.2769 0.2016 -0.9395
vn -0.4035 -0.0898 0.9106
vn 0.2769 0.2016 0.9395
vn 0.4117 0.3980 0.8198
vn -0.1582 0.6467 0.7461
vn -0.2739 0.9258 0.2605
vn 0.2605 0.9258 0.2739
vn 0.2605 0.9259 -0.2736
vn -0.2736 0.9259 -0.2605
vn -0.4111 0.3970 -0.8206
vn 0.1611 0.6464 -0.7458
vn -0.8198 0.3980 0.4117
vn -0.7458 0.6464 -0.1611
vn 0.8206 0.3970 -0.4111
vn 0.7461 0.6467 0.1582
vn 0.7136 -0.6806 0.1662
vn 0.8622 -0.3901 0.3233
vn -0.8615 -0.3910 0.3238
vn -0.7132 -0.6803 -0.1691
vn 0.8609 -0.3919 -0.3244
vn -0.8615 -0.3910 -0.3238
vn -0.3238 -0.3910 -0.8615
vn 0.1662 -0.6806 -0.7136
vn 0.3233 -0.3901 -0.8622
vn 0.3244 -0.3919 0.8609
vn -0.1691 -0.6803 0.7132
vn -0.3238 -0.3910 0.8615
vn 0.9106 -0.0895 -0.4035
vn 0.9396 0.2014 0.2769
vn -0.9106 -0.0896 0.4035
vn -0.9396 0.2014 -0.2769
vn -0.4035 -0.0896 -0.9106
vn 0.2769 0.2014 -0.9396
vn 0.4035 -0.0895 0.9106
vn -0.2769 0.2014 0.9396
vn 0.7667 0.5418 -0.3445
vn 0.2910 0.9565 -0.0204
vn 0.2906 0.7888 -0.5416
vn 0.7671 0.6402 -0.0406
vn -0.6852 0.2909 0.6677
vn 0.1094 -0.9078 -0.4049
vn -0.6914 -0.1541 -0.7058
vn 0.1116 -0.4974 0.8603
vn 0.7819 -0.1500 -0.6051
vn -0.2033 0.8958 0.3953
vn 0.7895 0.2475 0.5617
vn -0.2238 0.4836 -0.8462
vn -0.4608 0.6988 0.5471
vn -0.2860 0.1008 0.9529
vn -0.6948 0.1622 0.7007
vn -0.2473 0.6682 0.7017
vn 0.5065 -0.8122 0.2894
vn -0.1079 0.3451 -0.9323
vn -0.5056 -0.7358 -0.4504
vn 0.9283 0.2361 -0.2873
vn -0.4889 0.8628 -0.1284
vn 0.1092 -0.4407 0.8910
vn 0.3340 0.7961 0.5047
vn -0.8945 -0.3697 0.2514
vt 0.899211 0.813451
vt 0.981294 0.810847
vt 0.981294 0.773431
vt 0.899211 0.776035
vt 0.943878 0.773431
vt 0.861795 0.776035
vt 0.861795 0.813451
vt 0.943878 0.810847
vt 0.937586 0.767139
vt 0.987586 0.767139
vt 0.937586 0.817139
vt 0.987586 0.817139
vt 0.978747 0.897838
vt 0.899211 0.813451
vt 0.941331 0.897838
vt 0.861795 0.813451
vt 0.941331 0.860422
vt 0.861795 0.776035
vt 0.978747 0.860422
vt 0.899211 0.776035
vt 0.985060 0.814613
vt 0.987586 0.817139
vt 0.937586 0.817139
vt 0.940112 0.814613
vt 0.940112 0.769665
vt 0.937586 0.767139
vt 0.987586 0.767139
vt 0.985060 0.769665
vt 0.800388 0.866410
vt 0.769752 0.897046
vt 0.800386 0.888428
vt 0.771845 0.859887
vt 0.809005 0.857793
vt 0.776294 0.890504
vt 0.769752 0.857793
vt 0.809005 0.897046
vt 0.805608 0.861190
vt 0.773487 0.893311
vt 0.809005 0.897047
vt 0.789378 0.897046
vt 0.789378 0.857793
vt 0.806907 0.859891
vt 0.788136 0.864351
vt 0.769752 0.877420
vt 0.801342 0.877420
vt 0.809005 0.877420
vt 0.769752 0.877420
vt 0.772055 0.894743
vt 0.769752 0.857793
vt 0.788136 0.890489
vt 0.806907 0.894949
vt 0.808699 0.877726
vt 0.770553 0.876738
vt 0.790060 0.896245
vt 0.789072 0.858100
vt 0.769752 0.857793
vt 0.807585 0.877420
vt 0.769752 0.877420
vt 0.788851 0.896064
vt 0.788851 0.858686
vt 0.788348 0.877420
vt 0.807914 0.877420
vt 0.770978 0.877284
vt 0.789514 0.895820
vt 0.789378 0.858884
vt 0.383976 0.865987
vt 0.383974 0.888005
vt 0.384929 0.876997
vt 0.391173 0.876997
vt 0.371936 0.876997
vt 0.384269 0.866419
vt 0.384266 0.887574
vt 0.372677 0.877144
vt 0.390934 0.877093
vt 0.384269 0.866419
vt 0.384266 0.887574
vt 0.372677 0.877144
vt 0.390934 0.877093
vt 0.383976 0.865987
vt 0.383974 0.888005
vt 0.384929 0.876997
vt 0.391173 0.876997
vt 0.371936 0.876997
vt 0.384269 0.866419
vt 0.384266 0.887574
vt 0.372677 0.877144
vt 0.390934 0.877093
vt 0.384269 0.866419
vt 0.384266 0.887574
vt 0.372677 0.877144
vt 0.390934 0.877093
s 0
usemtl Palette
f 4/7/1 3/6/1 11/18/1 10/16/1
f 5/9/2 7/11/2 8/12/2 6/10/2
f 1/2/3 2/3/3 20/28/3 13/21/3
f 8/12/4 7/11/4 15/23/4 14/22/4
f 2/3/3 3/5/3 17/25/3 20/28/3
f 6/10/5 8/12/5 14/22/5 19/27/5
f 5/9/6 6/10/6 19/27/6 18/26/6
f 3/5/3 4/8/3 16/24/3 17/25/3
f 7/11/7 5/9/7 18/26/7 15/23/7
f 11/17/3 12/19/3 9/13/3 10/15/3
f 3/6/8 2/4/8 12/20/8 11/18/8
f 2/4/9 1/1/9 9/14/9 12/20/9
f 1/1/10 4/7/10 10/16/10 9/14/10
f 14/22/11 15/23/11 16/24/11 13/21/11
f 18/26/12 19/27/12 20/28/12 17/25/12
f 19/27/13 14/22/13 13/21/13 20/28/13
f 15/23/14 18/26/14 17/25/14 16/24/14
f 4/8/3 1/2/3 13/21/3 16/24/3
f 52/60/15 41/49/15 48/56/15
f 52/60/16 21/29/16 35/43/16
f 41/49/17 53/61/17 39/47/17
f 21/29/18 53/61/18 35/43/18
f 53/61/19 23/31/19 42/50/19
f 53/61/20 22/30/20 39/47/20
f 51/59/21 23/31/21 31/39/21
f 51/59/22 22/30/22 42/50/22
f 50/58/23 22/30/23 30/38/23
f 50/58/24 41/49/24 39/47/24
f 49/57/25 21/29/25 29/37/25
f 49/57/26 23/31/26 37/45/26
f 43/51/27 54/62/27 38/46/27
f 24/32/28 55/63/28 36/44/28
f 40/48/29 56/64/29 32/40/29
f 34/42/30 57/65/30 33/41/30
f 25/33/31 44/52/31 29/37/31
f 44/52/32 31/39/32 49/57/32
f 26/34/33 45/53/33 30/38/33
f 45/53/34 48/56/34 50/58/34
f 28/36/35 46/54/35 31/39/35
f 46/54/36 30/38/36 51/59/36
f 27/35/37 47/55/37 48/56/37
f 47/55/38 29/37/38 52/60/38
f 52/60/39 29/37/39 21/29/39
f 52/60/40 35/43/40 41/49/40
f 41/49/41 35/43/41 53/61/41
f 21/29/42 37/45/42 53/61/42
f 53/61/43 37/45/43 23/31/43
f 53/61/44 42/50/44 22/30/44
f 51/59/45 30/38/45 22/30/45
f 51/59/46 42/50/46 23/31/46
f 50/58/47 48/56/47 41/49/47
f 50/58/48 39/47/48 22/30/48
f 49/57/49 31/39/49 23/31/49
f 49/57/50 37/45/50 21/29/50
f 34/42/51 38/46/51 54/62/51
f 44/52/52 25/33/52 34/42/52 54/62/52
f 45/53/53 55/63/53 24/32/53 27/35/53
f 40/48/54 36/44/54 55/63/54
f 44/52/55 54/62/55 43/51/55 28/36/55
f 45/53/56 26/34/56 40/48/56 55/63/56
f 46/54/57 56/64/57 40/48/57 26/34/57
f 43/51/58 32/40/58 56/64/58
f 46/54/59 28/36/59 43/51/59 56/64/59
f 47/55/60 57/65/60 34/42/60 25/33/60
f 24/32/61 33/41/61 57/65/61
f 47/55/62 27/35/62 24/32/62 57/65/62
f 28/36/63 31/39/63 44/52/63
f 44/52/64 49/57/64 29/37/64
f 27/35/65 48/56/65 45/53/65
f 45/53/66 50/58/66 30/38/66
f 26/34/67 30/38/67 46/54/67
f 46/54/68 51/59/68 31/39/68
f 25/33/69 29/37/69 47/55/69
f 47/55/70 52/60/70 48/56/70
f 61/69/71 59/67/71 60/68/71
f 58/66/72 60/68/72 62/70/72
f 62/70/73 60/68/73 59/67/73
f 61/69/74 60/68/74 58/66/74
f 65/73/75 69/77/75 67/75/75 63/71/75
f 66/74/76 70/78/76 68/76/76 64/72/76
f 64/72/77 68/76/77 69/77/77 65/73/77
f 63/71/78 67/75/78 70/78/78 66/74/78
f 61/69/79 66/74/79 64/72/79 59/67/79
f 62/70/80 65/73/80 63/71/80 58/66/80
f 58/66/81 63/71/81 66/74/81 61/69/81
f 59/67/82 64/72/82 65/73/82 62/70/82
f 74/82/83 72/80/83 73/81/83
f 71/79/84 73/81/84 75/83/84
f 75/83/85 73/81/85 72/80/85
f 74/82/86 73/81/86 71/79/86
f 78/86/87 82/90/87 80/88/87 76/84/87
f 79/87/88 83/91/88 81/89/88 77/85/88
f 77/85/89 81/89/89 82/90/89 78/86/89
f 76/84/90 80/88/90 83/91/90 79/87/90
f 74/82/91 79/87/91 77/85/91 72/80/91
f 75/83/92 78/86/92 76/84/92 71/79/92
f 71/79/93 76/84/93 79/87/93 74/82/93
f 72/80/94 77/85/94 78/86/94 75/83/94
