# Blender 3.4.1
# www.blender.org
mtllib Desk.mtl
o Desk
v 0.702979 -0.001885 0.286004
v 0.702979 0.925507 -0.234287
v 0.702979 -0.001885 0.197118
v 0.702979 0.925507 -0.323174
v 0.747315 -0.001885 0.286004
v 0.747315 0.925507 -0.234287
v 0.747315 -0.001885 0.197118
v 0.747315 0.925507 -0.323174
v 0.655933 -0.001885 -0.323174
v 0.655933 0.925507 0.197118
v 0.655933 -0.001885 -0.234287
v 0.655933 0.925507 0.286004
v 0.700268 -0.001885 -0.323174
v 0.700268 0.925507 0.197118
v 0.700268 -0.001885 -0.234287
v 0.700268 0.925507 0.286004
v 0.663503 0.827838 0.202409
v 0.663503 0.827838 0.165217
v 0.663503 0.808295 0.202409
v 0.663503 0.808295 0.165217
v -0.702979 -0.001885 0.286004
v -0.702979 0.925507 -0.234287
v -0.702979 -0.001885 0.197118
v -0.702979 0.925507 -0.323174
v -0.747315 -0.001885 0.286004
v -0.747315 0.925507 -0.234287
v -0.747315 -0.001885 0.197118
v -0.747315 0.925507 -0.323174
v -0.655933 -0.001885 -0.323174
v -0.655933 0.925507 0.197118
v -0.655933 -0.001885 -0.234287
v -0.655933 0.925507 0.286004
v -0.700268 -0.001885 -0.323174
v -0.700268 0.925507 0.197118
v -0.700268 -0.001885 -0.234287
v -0.700268 0.925507 0.286004
v -0.663503 0.827838 0.202409
v -0.663503 0.827838 0.165217
v -0.663503 0.808295 0.202409
v -0.663503 0.808295 0.165217
v 0.782021 0.949037 0.364393
v 0.782021 0.921748 0.364393
v -0.782021 0.949037 0.364393
v -0.782021 0.921748 0.364393
v 0.782021 0.949037 -0.385607
v 0.782021 0.921748 -0.385607
v -0.782021 0.949037 -0.385607
v -0.782021 0.921748 -0.385607
vn -1.0000 -0.0000 -0.0000
vn -0.0000 -0.4893 -0.8721
vn 1.0000 -0.0000 -0.0000
vn -0.0000 0.4893 0.8721
vn -0.0000 -1.0000 -0.0000
vn -0.0000 -0.4893 0.8721
vn -0.0000 0.4893 -0.8721
vn -0.0000 1.0000 -0.0000
vn -0.0000 -0.0000 -1.0000
vn -0.0000 -0.0000 1.0000
vt 0.706398 0.940867
vt 0.706398 0.985175
vt 0.695321 0.974098
vt 0.717475 0.940867
vt 0.717475 0.985175
vt 0.706398 0.951944
vt 0.695321 0.963021
vt 0.717475 0.951944
vt 0.706398 0.974098
vt 0.717475 0.974098
vt 0.706398 0.963021
vt 0.717475 0.963021
vt 0.706398 0.940867
vt 0.706398 0.985175
vt 0.695321 0.974098
vt 0.717475 0.940867
vt 0.717475 0.985175
vt 0.706398 0.951944
vt 0.695321 0.963021
vt 0.717475 0.951944
vt 0.706398 0.974098
vt 0.717475 0.974098
vt 0.706398 0.963021
vt 0.717475 0.963021
vt 0.203667 0.870263
vt 0.203667 0.870263
vt 0.203667 0.870263
vt 0.203667 0.870263
vt 0.706398 0.940867
vt 0.706398 0.985175
vt 0.695321 0.974098
vt 0.717475 0.940867
vt 0.717475 0.985175
vt 0.706398 0.951944
vt 0.695321 0.963021
vt 0.717475 0.951944
vt 0.706398 0.974098
vt 0.717475 0.974098
vt 0.706398 0.963021
vt 0.717475 0.963021
vt 0.706398 0.940867
vt 0.706398 0.985175
vt 0.695321 0.974098
vt 0.717475 0.940867
vt 0.717475 0.985175
vt 0.706398 0.951944
vt 0.695321 0.963021
vt 0.717475 0.951944
vt 0.706398 0.974098
vt 0.717475 0.974098
vt 0.706398 0.963021
vt 0.717475 0.963021
vt 0.203667 0.870263
vt 0.203667 0.870263
vt 0.203667 0.870263
vt 0.203667 0.870263
vt 0.475189 0.958674
vt 0.464112 0.958674
vt 0.475189 0.958674
vt 0.464112 0.958674
vt 0.475189 0.958674
vt 0.464112 0.958674
vt 0.475189 0.958674
vt 0.464112 0.958674
s 0
usemtl Palette
f 1/1/1 2/4/1 4/8/1 3/6/1
f 3/6/2 4/8/2 8/12/2 7/11/2
f 7/11/3 8/12/3 6/10/3 5/9/3
f 5/9/4 6/10/4 2/5/4 1/2/4
f 3/7/5 7/11/5 5/9/5 1/3/5
f 9/13/1 11/18/1 12/20/1 10/16/1
f 11/18/6 15/23/6 16/24/6 12/20/6
f 15/23/3 13/21/3 14/22/3 16/24/3
f 13/21/7 9/14/7 10/17/7 14/22/7
f 11/19/5 9/15/5 13/21/5 15/23/5
f 12/20/8 16/24/8 14/22/8 10/17/8
f 2/5/8 6/10/8 8/12/8 4/8/8
f 40/56/5 20/28/5 19/27/5 39/55/5
f 20/28/9 40/56/9 38/54/9 18/26/9
f 37/53/10 39/55/10 19/27/10 17/25/10
f 21/29/3 23/34/3 24/36/3 22/32/3
f 23/34/2 27/39/2 28/40/2 24/36/2
f 27/39/1 25/37/1 26/38/1 28/40/1
f 25/37/4 21/30/4 22/33/4 26/38/4
f 23/35/5 21/31/5 25/37/5 27/39/5
f 29/41/3 30/44/3 32/48/3 31/46/3
f 31/46/6 32/48/6 36/52/6 35/51/6
f 35/51/1 36/52/1 34/50/1 33/49/1
f 33/49/7 34/50/7 30/45/7 29/42/7
f 31/47/5 35/51/5 33/49/5 29/43/5
f 32/48/8 30/45/8 34/50/8 36/52/8
f 22/33/8 24/36/8 28/40/8 26/38/8
f 43/59/8 41/57/8 45/61/8 47/63/8
f 44/60/10 42/58/10 41/57/10 43/59/10
f 42/58/3 46/62/3 45/61/3 41/57/3
f 48/64/9 47/63/9 45/61/9 46/62/9
f 43/59/1 47/63/1 48/64/1 44/60/1
f 46/62/5 42/58/5 44/60/5 48/64/5
f 38/54/8 37/53/8 17/25/8 18/26/8
