# Blender 3.4.1
# www.blender.org
mtllib Door_Ac_B.mtl
o Door_Ac_B
v -0.334434 0.003550 0.028988
v -0.334434 0.007877 -0.015620
v 0.342848 0.003550 0.028988
v 0.342848 0.007877 -0.015620
v -0.334434 -0.003396 0.027976
v -0.334434 0.000931 -0.016632
v 0.342848 -0.003396 0.027976
v 0.342848 0.000931 -0.016632
v -0.334434 -0.007723 0.028988
v -0.334434 -0.003396 -0.015620
v 0.342848 -0.007723 0.028988
v 0.342848 -0.003396 -0.015620
v -0.334434 -0.014669 0.027976
v -0.334434 -0.010342 -0.016632
v 0.342848 -0.014669 0.027976
v 0.342848 -0.010342 -0.016632
v -0.334434 -0.018996 0.028988
v -0.334434 -0.014669 -0.015620
v 0.342848 -0.018996 0.028988
v 0.342848 -0.014669 -0.015620
v -0.334434 -0.025942 0.027976
v -0.334434 -0.021615 -0.016632
v 0.342848 -0.025942 0.027976
v 0.342848 -0.021615 -0.016632
v -0.334434 -0.030269 0.028988
v -0.334434 -0.025942 -0.015620
v 0.342848 -0.030269 0.028988
v 0.342848 -0.025942 -0.015620
v -0.334434 -0.037215 0.027976
v -0.334434 -0.032887 -0.016632
v 0.342848 -0.037215 0.027976
v 0.342848 -0.032887 -0.016632
v -0.334434 -0.041542 0.028988
v -0.334434 -0.037215 -0.015620
v 0.342848 -0.041542 0.028988
v 0.342848 -0.037215 -0.015620
v -0.334434 -0.048487 0.027976
v -0.334434 -0.044160 -0.016632
v 0.342848 -0.048487 0.027976
v 0.342848 -0.044160 -0.016632
v -0.334434 -0.052814 0.028988
v -0.334434 -0.048487 -0.015620
v 0.342848 -0.052814 0.028988
v 0.342848 -0.048487 -0.015620
v -0.334434 -0.059760 0.027976
v -0.334434 -0.055433 -0.016632
v 0.342848 -0.059760 0.027976
v 0.342848 -0.055433 -0.016632
v 0.317324 -0.701567 0.014539
v 0.317324 -0.008488 0.014539
v 0.327347 -0.701567 0.014539
v 0.327347 -0.008488 0.014539
v 0.313162 -0.712001 0.022010
v 0.331507 -0.712001 0.022010
v 0.313162 -0.684036 0.022010
v 0.331507 -0.684036 0.022010
v 0.331507 -0.712001 0.007344
v 0.313162 -0.712001 0.007344
v 0.331507 -0.684036 0.007344
v 0.313162 -0.684036 0.007344
vn -0.0000 0.9953 0.0965
vn -0.0000 -0.9953 -0.0965
vn -1.0000 -0.0000 -0.0000
vn 1.0000 -0.0000 -0.0000
vn -0.0000 -0.1442 0.9896
vn -0.0000 0.1442 -0.9896
vn -0.0000 -0.0000 1.0000
vn -0.0000 -0.0000 -1.0000
vn -0.0000 -1.0000 -0.0000
vn -0.0000 1.0000 -0.0000
vt 0.375390 0.979097
vt 0.375390 0.966597
vt 0.387890 0.979097
vt 0.387890 0.966597
vt 0.375390 0.979097
vt 0.375390 0.966597
vt 0.387890 0.979097
vt 0.387890 0.966597
vt 0.375390 0.979097
vt 0.375390 0.966597
vt 0.387890 0.979097
vt 0.387890 0.966597
vt 0.375390 0.979097
vt 0.375390 0.966597
vt 0.387890 0.979097
vt 0.387890 0.966597
vt 0.375390 0.979097
vt 0.375390 0.966597
vt 0.387890 0.979097
vt 0.387890 0.966597
vt 0.375390 0.979097
vt 0.375390 0.966597
vt 0.387890 0.979097
vt 0.387890 0.966597
vt 0.375390 0.979097
vt 0.375390 0.966597
vt 0.387890 0.979097
vt 0.387890 0.966597
vt 0.375390 0.979097
vt 0.375390 0.966597
vt 0.387890 0.979097
vt 0.387890 0.966597
vt 0.375390 0.979097
vt 0.375390 0.966597
vt 0.387890 0.979097
vt 0.387890 0.966597
vt 0.375390 0.979097
vt 0.375390 0.966597
vt 0.387890 0.979097
vt 0.387890 0.966597
vt 0.375390 0.979097
vt 0.375390 0.966597
vt 0.387890 0.979097
vt 0.387890 0.966597
vt 0.375390 0.979097
vt 0.375390 0.966597
vt 0.387890 0.979097
vt 0.387890 0.966597
vt 0.019357 0.887972
vt 0.019357 0.875472
vt 0.031857 0.887972
vt 0.031857 0.875472
vt 0.128080 0.952941
vt 0.128080 0.952941
vt 0.128080 0.952941
vt 0.128080 0.952941
vt 0.128080 0.952941
vt 0.128080 0.952941
vt 0.128080 0.952941
vt 0.128080 0.952941
s 0
usemtl Palette
f 2/2/1 1/1/1 3/3/1 4/4/1
f 6/6/2 8/8/2 7/7/2 5/5/2
f 1/1/3 2/2/3 6/6/3 5/5/3
f 4/4/4 3/3/4 7/7/4 8/8/4
f 3/3/5 1/1/5 5/5/5 7/7/5
f 2/2/6 4/4/6 8/8/6 6/6/6
f 10/10/1 9/9/1 11/11/1 12/12/1
f 14/14/2 16/16/2 15/15/2 13/13/2
f 9/9/3 10/10/3 14/14/3 13/13/3
f 12/12/4 11/11/4 15/15/4 16/16/4
f 11/11/5 9/9/5 13/13/5 15/15/5
f 10/10/6 12/12/6 16/16/6 14/14/6
f 18/18/1 17/17/1 19/19/1 20/20/1
f 22/22/2 24/24/2 23/23/2 21/21/2
f 17/17/3 18/18/3 22/22/3 21/21/3
f 20/20/4 19/19/4 23/23/4 24/24/4
f 19/19/5 17/17/5 21/21/5 23/23/5
f 18/18/6 20/20/6 24/24/6 22/22/6
f 26/26/1 25/25/1 27/27/1 28/28/1
f 30/30/2 32/32/2 31/31/2 29/29/2
f 25/25/3 26/26/3 30/30/3 29/29/3
f 28/28/4 27/27/4 31/31/4 32/32/4
f 27/27/5 25/25/5 29/29/5 31/31/5
f 26/26/6 28/28/6 32/32/6 30/30/6
f 34/34/1 33/33/1 35/35/1 36/36/1
f 38/38/2 40/40/2 39/39/2 37/37/2
f 33/33/3 34/34/3 38/38/3 37/37/3
f 36/36/4 35/35/4 39/39/4 40/40/4
f 35/35/5 33/33/5 37/37/5 39/39/5
f 34/34/6 36/36/6 40/40/6 38/38/6
f 42/42/1 41/41/1 43/43/1 44/44/1
f 46/46/2 48/48/2 47/47/2 45/45/2
f 41/41/3 42/42/3 46/46/3 45/45/3
f 44/44/4 43/43/4 47/47/4 48/48/4
f 43/43/5 41/41/5 45/45/5 47/47/5
f 42/42/6 44/44/6 48/48/6 46/46/6
f 50/50/7 49/49/7 51/51/7 52/52/7
f 53/53/7 54/54/7 56/56/7 55/55/7
f 58/58/8 60/60/8 59/59/8 57/57/8
f 55/55/3 60/60/3 58/58/3 53/53/3
f 53/53/9 58/58/9 57/57/9 54/54/9
f 54/54/4 57/57/4 59/59/4 56/56/4
f 56/56/10 59/59/10 60/60/10 55/55/10
