# Blender 3.4.1
# www.blender.org
mtllib Laptop_Screen.mtl
o Laptop_Screen
v 0.227359 0.000718 0.295259
v 0.227359 0.000718 0.039115
v -0.227359 0.000718 0.295259
v -0.227359 0.000718 0.039115
v 0.233502 0.000718 0.309140
v 0.233502 0.000718 -0.003384
v -0.233502 0.000718 0.309140
v -0.233502 0.000718 -0.003384
v 0.227359 0.003395 0.295259
v 0.227359 0.003395 0.039115
v -0.227359 0.003395 0.295259
v -0.227359 0.003395 0.039115
v 0.228539 0.017199 0.300741
v 0.232353 0.013828 0.305258
v 0.228539 0.017199 0.008402
v 0.232353 0.013833 0.003195
v -0.228539 0.017199 0.300741
v -0.232353 0.013828 0.305258
v -0.228539 0.017199 0.008402
v -0.232353 0.013833 0.003195
vn 1.0000 -0.0000 -0.0000
vn -0.0000 -1.0000 -0.0000
vn -0.9962 0.0873 -0.0000
vn -0.0000 0.2839 0.9588
vn 0.9962 0.0873 -0.0000
vn -1.0000 -0.0000 -0.0000
vn -0.0000 -0.0000 1.0000
vn -0.0000 -0.0000 -1.0000
vn -0.0000 0.4484 -0.8939
vn 0.6620 0.7495 -0.0000
vn -0.6620 0.7495 -0.0000
vn -0.0000 0.8014 0.5982
vn -0.0000 0.8398 -0.5429
vn -0.0000 1.0000 -0.0000
vt 0.874150 0.780522
vt 0.879359 0.798548
vt 0.874150 0.803756
vt 0.874150 0.780522
vt 0.879359 0.798548
vt 0.874150 0.803756
vt 0.874774 0.779639
vt 0.879982 0.799430
vt 0.874774 0.804639
vt 0.874774 0.779639
vt 0.879982 0.799430
vt 0.874774 0.804639
vt 0.000318 0.998711
vt 0.874150 0.780522
vt 0.562433 0.998711
vt 0.874150 0.803756
vt 0.000318 0.000821
vt 0.874150 0.780522
vt 0.562433 0.000821
vt 0.874150 0.803756
vt 0.874774 0.779952
vt 0.874774 0.779639
vt 0.874774 0.804325
vt 0.874774 0.804639
vt 0.874774 0.779952
vt 0.874774 0.779639
vt 0.874774 0.804325
vt 0.874774 0.804639
s 0
usemtl Palette
f 3/4/1 4/6/1 12/20/1 11/18/1
f 3/4/2 1/1/2 5/7/2 7/10/2
f 7/10/3 18/26/3 20/28/3 8/12/3
f 14/22/4 18/26/4 7/10/4 5/7/4
f 5/7/5 6/9/5 16/24/5 14/22/5
f 2/3/6 1/1/6 9/14/6 10/16/6
f 2/2/2 4/5/2 8/11/2 6/8/2
f 1/1/2 2/3/2 6/9/2 5/7/2
f 4/6/2 3/4/2 7/10/2 8/12/2
f 4/6/7 2/3/7 10/16/7 12/20/7
f 1/1/8 3/4/8 11/18/8 9/14/8
f 8/12/9 20/28/9 16/24/9 6/9/9
f 14/22/10 16/24/10 15/23/10 13/21/10
f 17/25/11 19/27/11 20/28/11 18/26/11
f 13/21/12 17/25/12 18/26/12 14/22/12
f 19/27/13 15/23/13 16/24/13 20/28/13
f 15/23/14 19/27/14 17/25/14 13/21/14
usemtl Laptop_Screen
f 9/13/2 11/17/2 12/19/2 10/15/2
