# Blender 3.4.1
# www.blender.org
mtllib Notepad.mtl
o Notepad
v -0.028423 0.013147 -0.133620
v 0.082825 0.014404 0.132194
v -0.082825 0.014404 0.132194
v 0.028424 0.013147 -0.133620
v -0.082825 0.002684 0.141130
v 0.082825 0.002684 0.141130
v 0.028424 0.005474 -0.113073
v -0.028423 0.005474 -0.113073
v 0.104892 0.006872 -0.143825
v 0.104892 0.006872 0.165960
v -0.104892 0.006872 0.165960
v -0.104892 0.006872 -0.143825
v -0.104892 -0.000000 0.165960
v 0.104892 -0.000000 0.165960
v -0.104892 0.000000 -0.143825
v 0.104892 0.000000 -0.143825
v 0.082825 0.011400 -0.123417
v -0.082825 0.011400 -0.123417
v -0.082825 0.002684 -0.123417
v 0.082825 0.002684 -0.123417
v -0.028423 0.013986 -0.113073
v 0.097892 0.002684 -0.133688
v 0.028424 0.013986 -0.113073
v -0.097892 0.002684 -0.133688
v -0.028423 0.005474 -0.133620
v 0.028424 0.005474 -0.133620
v 0.082825 0.011400 0.114847
v -0.082825 0.011400 0.114847
vn 1.0000 -0.0000 -0.0000
vn -0.0000 0.9992 -0.0408
vn -0.0000 0.6063 0.7952
vn -0.0000 -0.0000 -1.0000
vn -0.0000 1.0000 -0.0000
vn -1.0000 -0.0000 -0.0000
vn -0.0000 -0.0000 1.0000
vn -0.0000 -1.0000 -0.0000
vn -0.0000 0.9853 -0.1706
vt 0.190755 0.900630
vt 0.231002 0.777937
vt 0.197624 0.777937
vt 0.224133 0.900630
vt 0.197624 0.777937
vt 0.231002 0.777937
vt 0.224133 0.871031
vt 0.190755 0.871031
vt 0.474864 0.973226
vt 0.474864 0.939847
vt 0.441486 0.939847
vt 0.441486 0.973226
vt 0.441486 0.939847
vt 0.474864 0.939847
vt 0.441486 0.973226
vt 0.474864 0.973226
vt 0.231002 0.807537
vt 0.197624 0.807537
vt 0.197624 0.807537
vt 0.231002 0.807537
vt 0.190755 0.871031
vt 0.224133 0.871031
vt 0.190755 0.900630
vt 0.224133 0.900630
vt 0.231002 0.780756
vt 0.197624 0.779652
s 0
usemtl Palette
f 20/20/1 17/17/1 27/25/1 2/2/1 6/6/1
f 21/21/2 23/22/2 4/4/2 1/1/2
f 6/6/3 2/2/3 3/3/3 5/5/3
f 15/15/4 12/12/4 9/9/4 16/16/4
f 11/11/5 10/10/5 9/9/5 12/12/5
f 16/16/1 9/9/1 10/10/1 14/14/1
f 13/13/6 11/11/6 12/12/6 15/15/6
f 14/14/7 10/10/7 11/11/7 13/13/7
f 13/13/8 15/15/8 16/16/8 14/14/8
f 5/5/6 3/3/6 28/26/6 18/18/6 19/19/6
f 26/24/1 4/4/1 23/22/1 7/7/1
f 3/3/9 2/2/9 27/25/9 28/26/9
f 26/24/4 25/23/4 1/1/4 4/4/4
f 20/20/4 19/19/4 18/18/4 17/17/4
f 7/7/7 23/22/7 21/21/7 8/8/7
f 8/8/6 21/21/6 1/1/6 25/23/6
f 28/26/5 27/25/5 17/17/5 18/18/5
l 20 22
l 24 19
