# Blender 3.4.1
# www.blender.org
mtllib Painting_Small.mtl
o Painting_Small
v -0.124809 -0.124809 0.010399
v -0.124809 0.124809 0.010399
v 0.124809 0.124809 0.010399
v 0.124809 -0.124809 0.010399
v -0.206245 -0.206615 0.010399
v -0.206245 0.206613 0.010399
v 0.206245 0.206613 0.010399
v 0.206245 -0.206615 0.010399
v 0.229192 -0.229603 -0.010483
v 0.229192 0.229601 -0.010483
v -0.229192 0.229601 -0.010483
v -0.229192 -0.229603 -0.010483
v -0.206245 -0.206615 0.026226
v -0.206245 0.206613 0.026226
v 0.206245 -0.206615 0.026226
v 0.229192 -0.229603 0.026226
v 0.206245 0.206613 0.026226
v 0.229192 0.229601 0.026226
v -0.229192 -0.229603 0.026226
v -0.229192 0.229601 0.026226
v -0.124809 -0.124809 0.024819
v -0.124809 0.124809 0.024819
v 0.124809 0.124809 0.024819
v 0.124809 -0.124809 0.024819
vn -0.0000 -1.0000 -0.0000
vn -0.0000 -0.0000 1.0000
vn -0.0000 1.0000 -0.0000
vn 1.0000 -0.0000 -0.0000
vn -1.0000 -0.0000 -0.0000
vn -0.0000 -0.0000 -1.0000
vt 0.202092 0.952618
vt 0.110766 0.885566
vt 0.214837 0.952618
vt 0.123510 0.885566
vt 0.214837 0.939176
vt 0.123510 0.872123
vt 0.202092 0.939176
vt 0.110766 0.872123
vt 0.201579 0.952880
vt 0.112857 0.893641
vt 0.215350 0.952880
vt 0.126627 0.893641
vt 0.215350 0.938913
vt 0.126627 0.879674
vt 0.201579 0.938914
vt 0.112857 0.879674
vt 0.214666 0.866653
vt 0.115461 0.887486
vt 0.129231 0.887486
vt 0.228436 0.866653
vt 0.129231 0.901453
vt 0.228436 0.880620
vt 0.214666 0.880620
vt 0.115461 0.901453
vt 0.115461 0.901453
vt 0.112857 0.893641
vt 0.126627 0.893641
vt 0.129231 0.901453
vt 0.115461 0.887486
vt 0.112857 0.879674
vt 0.115461 0.887486
vt 0.129231 0.887486
vt 0.126627 0.879674
vt 0.129231 0.887486
vt 0.115461 0.901453
vt 0.129231 0.901453
vt 0.011346 0.151346
vt 0.110766 0.885566
vt 0.011346 0.493654
vt 0.123510 0.885566
vt 0.353654 0.493654
vt 0.123510 0.872123
vt 0.353654 0.151347
vt 0.110766 0.872123
s 0
usemtl Palette
f 6/12/1 7/14/1 17/33/1 14/27/1
f 1/1/2 2/3/2 6/11/2 5/9/2
f 4/7/2 1/1/2 5/9/2 8/15/2
f 2/3/2 3/5/2 7/13/2 6/11/2
f 3/6/3 2/4/3 22/40/3 23/42/3
f 5/10/4 6/12/4 14/27/4 13/26/4
f 3/5/2 4/7/2 8/15/2 7/13/2
f 12/24/5 19/35/5 20/36/5 11/21/5
f 10/19/4 18/34/4 16/31/4 9/18/4
f 11/21/3 20/36/3 18/34/3 10/19/3
f 9/17/6 12/23/6 11/22/6 10/20/6
f 15/29/2 13/25/2 19/35/2 16/31/2
f 13/25/2 14/28/2 20/36/2 19/35/2
f 17/32/2 15/29/2 16/31/2 18/34/2
f 14/28/2 17/32/2 18/34/2 20/36/2
f 7/14/5 8/16/5 15/30/5 17/33/5
f 8/16/3 5/10/3 13/26/3 15/30/3
f 9/18/1 16/31/1 19/35/1 12/24/1
f 4/8/4 3/6/4 23/42/4 24/44/4
f 1/2/1 4/8/1 24/44/1 21/38/1
f 2/4/5 1/2/5 21/38/5 22/40/5
usemtl Paintings
f 24/43/2 23/41/2 22/39/2 21/37/2
