# Blender 3.4.1
# www.blender.org
mtllib PC_Monitor.mtl
o PC_Monitor
v -0.176152 0.083226 0.118408
v -0.176152 0.433733 0.082870
v -0.199981 0.049583 0.022824
v -0.199981 0.447505 -0.017521
v 0.176152 0.083226 0.118408
v 0.176152 0.433733 0.082870
v 0.199981 0.049583 0.022824
v 0.199981 0.447505 -0.017521
v -0.132485 0.098816 -0.173267
v -0.132485 0.301408 -0.179317
v 0.132485 0.098816 -0.173267
v 0.132485 0.301408 -0.179317
v -0.199981 0.059518 0.120811
v -0.199981 0.457440 0.080466
v 0.199981 0.457440 0.080466
v 0.199981 0.059518 0.120811
v -0.162462 0.095583 0.104564
v -0.162462 0.418849 0.071788
v 0.162462 0.095583 0.104564
v 0.162462 0.418849 0.071788
v -0.122088 0.136707 0.109929
v -0.075346 0.183896 0.111965
v -0.122088 0.379638 0.085298
v -0.075346 0.333818 0.096765
v 0.122088 0.136707 0.109929
v 0.075346 0.183896 0.111965
v 0.122088 0.379638 0.085298
v 0.075346 0.333818 0.096765
v 0.000000 -0.003598 -0.089319
v -0.045205 -0.003598 -0.077207
v -0.078297 -0.003598 -0.044114
v -0.090409 -0.003598 0.001090
v -0.078297 -0.003598 0.046295
v -0.045205 -0.003598 0.079387
v 0.000000 -0.003598 0.091500
v 0.045205 -0.003598 0.079387
v 0.078297 -0.003598 0.046295
v 0.090410 -0.003598 0.001090
v 0.078297 -0.003598 -0.044114
v 0.045205 -0.003598 -0.077207
v -0.040690 0.017714 -0.069387
v 0.000000 0.017714 -0.080289
v -0.070477 0.017714 -0.039600
v -0.081380 0.017714 0.001090
v -0.070477 0.017714 0.041780
v -0.040690 0.017714 0.071567
v 0.000000 0.017714 0.082470
v 0.040690 0.017714 0.071567
v 0.070477 0.017714 0.041780
v 0.081380 0.017714 0.001090
v 0.070477 0.017714 -0.039600
v 0.040690 0.017714 -0.069387
v -0.027292 0.010337 -0.046181
v -0.000000 0.010337 -0.053493
v -0.047271 0.010337 -0.026201
v -0.054584 0.010337 0.001091
v -0.047271 0.010337 0.028382
v -0.027292 0.010337 0.048362
v -0.000000 0.010337 0.055674
v 0.027292 0.010337 0.048362
v 0.047271 0.010337 0.028382
v 0.054584 0.010337 0.001091
v 0.047271 0.010337 -0.026201
v 0.027292 0.010337 -0.046181
v -0.019413 0.053540 -0.032533
v -0.000000 0.053540 -0.037735
v -0.033624 0.053540 -0.018322
v -0.038825 0.053540 0.001091
v -0.033624 0.053540 0.020503
v -0.019413 0.053540 0.034714
v -0.000000 0.053540 0.039916
v 0.019413 0.053540 0.034714
v 0.033624 0.053540 0.020503
v 0.038825 0.053540 0.001091
v 0.033624 0.053540 -0.018322
v 0.019413 0.053540 -0.032533
vn -1.0000 -0.0000 -0.0000
vn -0.0000 0.7422 -0.6702
vn 1.0000 -0.0000 -0.0000
vn -0.0000 0.7460 0.6659
vn -0.0000 0.9949 -0.1009
vn -0.0000 -0.0299 -0.9996
vn -0.9377 -0.0268 -0.3464
vn 0.9377 -0.0268 -0.3464
vn -0.0000 -0.9699 -0.2435
vn -0.0000 0.1009 0.9949
vn -0.2535 0.3464 0.9032
vn -0.2535 -0.1581 0.9543
vn 0.1048 0.2041 0.9733
vn 0.1048 -0.0045 0.9945
vn 0.6750 0.0744 0.7340
vn -0.0000 -0.5972 0.8021
vn -0.6750 0.0744 0.7340
vn 0.2535 0.3464 0.9032
vn -0.1048 -0.0045 0.9945
vn 0.2535 -0.1581 0.9543
vn -0.1048 0.2041 0.9733
vn -0.0000 -0.9949 0.1009
vn -0.0541 0.0467 0.9974
vn -0.0541 0.1544 0.9865
vn 0.0541 0.0467 0.9974
vn 0.0541 0.1544 0.9865
vn -0.0000 -1.0000 -0.0000
vn -0.0000 1.0000 -0.0000
vn 0.4339 -0.4969 -0.7515
vn 0.3049 0.7925 -0.5282
vn 0.5282 0.7925 -0.3049
vn 0.7515 -0.4969 -0.4339
vn -0.4339 -0.4969 -0.7515
vn -0.3049 0.7925 -0.5282
vn -0.0000 0.7925 -0.6099
vn -0.0000 -0.4969 -0.8678
vn 0.7515 -0.4969 0.4339
vn 0.5282 0.7925 0.3049
vn 0.3049 0.7925 0.5282
vn 0.4339 -0.4969 0.7515
vn -0.4339 -0.4969 0.7515
vn -0.3049 0.7925 0.5282
vn -0.5282 0.7925 0.3049
vn -0.7515 -0.4969 0.4339
vn -0.7515 -0.4969 -0.4339
vn -0.5282 0.7925 -0.3049
vn 0.8678 -0.4969 -0.0000
vn 0.6099 0.7925 -0.0000
vn -0.0000 -0.4969 0.8678
vn -0.0000 0.7925 0.6099
vn -0.8678 -0.4969 -0.0000
vn -0.6099 0.7925 -0.0000
vn 0.9395 0.3427 -0.0000
vn 0.8136 0.3427 0.4697
vn -0.0000 0.3427 0.9395
vn -0.4697 0.3427 0.8136
vn -0.9395 0.3427 -0.0000
vn -0.8136 0.3427 -0.4697
vn 0.8136 0.3427 -0.4697
vn 0.4697 0.3427 0.8136
vn -0.8136 0.3427 0.4697
vn 0.4697 0.3427 -0.8136
vn -0.4697 0.3427 -0.8136
vn -0.0000 0.3427 -0.9395
vt 0.105524 0.899266
vt 0.206396 0.881998
vt 0.115143 0.899266
vt 0.221771 0.881998
vt 0.104873 0.867156
vt 0.019737 0.876774
vt 0.115133 0.898442
vt 0.126713 0.878076
vt 0.115793 0.867156
vt 0.105524 0.889647
vt 0.206396 0.866623
vt 0.115143 0.889647
vt 0.221771 0.866623
vt 0.104873 0.878076
vt 0.037192 0.876774
vt 0.126053 0.898442
vt 0.115793 0.878076
vt 0.105792 0.867156
vt 0.019734 0.876774
vt 0.126720 0.878076
vt 0.114184 0.867156
vt 0.105792 0.878076
vt 0.037196 0.876774
vt 0.114184 0.878076
vt 0.104873 0.856236
vt 0.104873 0.899917
vt 0.116278 0.888512
vt 0.115793 0.856236
vt 0.126713 0.888996
vt 0.115793 0.899917
vt 0.115793 0.888996
vt 0.104873 0.888996
vt 0.116278 0.877592
vt 0.206396 0.881998
vt 0.000000 0.000000
vt 0.221771 0.881998
vt 0.000000 1.000000
vt 0.206396 0.866623
vt 1.000000 0.000000
vt 0.221771 0.866623
vt 1.000000 1.000000
vt 0.124256 0.124256
vt 0.268112 0.268112
vt 0.124256 0.875744
vt 0.268112 0.731888
vt 0.875744 0.124256
vt 0.731888 0.268112
vt 0.875744 0.875744
vt 0.731888 0.731888
vt 0.125295 0.865055
vt 0.125295 0.865055
vt 0.125295 0.865055
vt 0.125295 0.865055
vt 0.125295 0.865055
vt 0.125295 0.865055
vt 0.125295 0.865055
vt 0.125295 0.865055
vt 0.125295 0.865055
vt 0.125295 0.865055
vt 0.125295 0.865055
vt 0.125295 0.865055
vt 0.125295 0.865055
vt 0.125295 0.865055
vt 0.125295 0.865055
vt 0.125295 0.865055
vt 0.125295 0.865055
vt 0.125295 0.865055
vt 0.125295 0.865055
vt 0.125295 0.865055
vt 0.125295 0.865055
vt 0.125295 0.865055
vt 0.125295 0.865055
vt 0.125295 0.865055
vt 0.125295 0.865055
vt 0.125295 0.865055
vt 0.125295 0.865055
vt 0.125295 0.865055
vt 0.125295 0.865055
vt 0.125295 0.865055
vt 0.125295 0.865055
vt 0.125295 0.865055
vt 0.125295 0.865055
vt 0.125295 0.865055
vt 0.125295 0.865055
vt 0.125295 0.865055
vt 0.125295 0.865055
vt 0.125295 0.865055
vt 0.125295 0.865055
vt 0.125295 0.865055
vt 0.125295 0.865055
vt 0.125295 0.865055
vt 0.125295 0.865055
vt 0.125295 0.865055
vt 0.125295 0.865055
vt 0.125295 0.865055
vt 0.125295 0.865055
vt 0.125295 0.865055
s 0
usemtl Palette
f 13/25/1 14/28/1 4/9/1 3/5/1
f 4/8/2 8/17/2 12/24/2 10/20/2
f 7/14/3 8/17/3 15/31/3 16/32/3
f 1/2/4 5/11/4 19/38/4 17/34/4
f 8/17/5 4/8/5 14/29/5 15/31/5
f 9/18/6 10/21/6 12/24/6 11/22/6
f 3/5/7 4/9/7 10/21/7 9/18/7
f 8/17/8 7/14/8 11/22/8 12/24/8
f 7/15/9 3/6/9 9/19/9 11/23/9
f 1/1/10 2/3/10 14/30/10 13/26/10
f 6/12/10 5/10/10 16/32/10 15/31/10
f 5/10/10 1/1/10 13/26/10 16/32/10
f 2/3/10 6/12/10 15/31/10 14/30/10
f 2/4/15 1/2/15 17/34/15 18/36/15
f 6/13/16 2/4/16 18/36/16 20/40/16
f 5/11/17 6/13/17 20/40/17 19/38/17
f 3/7/22 7/16/22 16/33/22 13/27/22
f 30/51/27 29/50/27 40/61/27 39/60/27 38/59/27 37/58/27 36/57/27 35/56/27 34/55/27 33/54/27 32/53/27 31/52/27
f 41/62/28 43/64/28 44/65/28 45/66/28 46/67/28 47/68/28 48/69/28 49/70/28 50/71/28 51/72/28 52/73/28 42/63/28
s 1
f 40/61/29 52/73/30 51/72/31 39/60/32
f 30/51/33 41/62/34 42/63/35 29/50/36
f 37/58/37 49/70/38 48/69/39 36/57/40
f 34/55/41 46/67/42 45/66/43 33/54/44
f 29/50/36 42/63/35 52/73/30 40/61/29
f 31/52/45 43/64/46 41/62/34 30/51/33
f 38/59/47 50/71/48 49/70/38 37/58/37
f 35/56/49 47/68/50 46/67/42 34/55/41
f 32/53/51 44/65/52 43/64/46 31/52/45
f 39/60/32 51/72/31 50/71/48 38/59/47
f 36/57/40 48/69/39 47/68/50 35/56/49
f 33/54/44 45/66/43 44/65/52 32/53/51
f 62/83/53 74/95/53 73/94/54 61/82/54
f 59/80/55 71/92/55 70/91/56 58/79/56
f 56/77/57 68/89/57 67/88/58 55/76/58
f 63/84/59 75/96/59 74/95/53 62/83/53
f 60/81/60 72/93/60 71/92/55 59/80/55
f 57/78/61 69/90/61 68/89/57 56/77/57
f 64/85/62 76/97/62 75/96/59 63/84/59
f 53/74/63 65/86/63 66/87/64 54/75/64
f 61/82/54 73/94/54 72/93/60 60/81/60
f 58/79/56 70/91/56 69/90/61 57/78/61
f 54/75/64 66/87/64 76/97/62 64/85/62
f 55/76/58 67/88/58 65/86/63 53/74/63
usemtl PC
f 19/39/11 20/41/12 27/48/13 25/46/14
f 17/35/18 19/39/11 25/46/14 21/42/19
f 20/41/12 18/37/20 23/44/21 27/48/13
f 22/43/23 24/45/24 23/44/21 21/42/19
f 24/45/24 22/43/23 26/47/25 28/49/26
f 28/49/26 26/47/25 25/46/14 27/48/13
f 21/42/19 25/46/14 26/47/25 22/43/23
f 27/48/13 23/44/21 24/45/24 28/49/26
f 18/37/20 17/35/18 21/42/19 23/44/21
