# Blender 3.4.1
# www.blender.org
mtllib Simple_Donut__alt_.mtl
o Simple_Donut_(alt)
v 0.049850 -0.002601 0.042773
v 0.048954 -0.008842 0.039245
v 0.034361 -0.009886 0.026928
v 0.026330 -0.005182 0.023881
v 0.013063 -0.000000 0.074085
v 0.011658 -0.016804 0.066115
v 0.007143 -0.020955 0.040511
v 0.004424 -0.009326 0.025092
v -0.037614 -0.000000 0.065149
v -0.033568 -0.016804 0.058141
v -0.020568 -0.020955 0.035625
v -0.012740 -0.009326 0.022065
v -0.070691 -0.000000 0.025729
v -0.063086 -0.016804 0.022962
v -0.038655 -0.020955 0.014069
v -0.023943 -0.009326 0.008714
v -0.070691 0.000000 -0.025729
v -0.063086 -0.016804 -0.022962
v -0.038655 -0.020955 -0.014069
v -0.023943 -0.009326 -0.008714
v -0.037614 0.000000 -0.065149
v -0.033568 -0.016804 -0.058141
v -0.020568 -0.020955 -0.035625
v -0.012740 -0.009326 -0.022065
v 0.013063 0.000000 -0.074085
v 0.011658 -0.016804 -0.066115
v 0.007143 -0.020955 -0.040511
v 0.004424 -0.009326 -0.025092
v 0.048378 -0.002486 -0.045391
v 0.046829 -0.010018 -0.040734
v 0.034748 -0.012166 -0.025819
v 0.027550 -0.005991 -0.019938
v 0.050608 0.007306 0.044353
v 0.029147 0.008730 0.024457
v 0.037599 0.017659 0.027982
v 0.013541 0.002420 0.076793
v 0.005198 0.012087 0.029483
v 0.007566 0.026434 0.042911
v -0.038989 0.002420 0.067530
v -0.014969 0.012087 0.025927
v -0.021787 0.026434 0.037736
v -0.073275 0.002420 0.026670
v -0.028132 0.012087 0.010239
v -0.040946 0.026434 0.014903
v -0.073275 0.002420 -0.026670
v -0.040946 0.026434 -0.014903
v -0.014969 0.012087 -0.025927
v -0.021787 0.026434 -0.037736
v 0.005198 0.012087 -0.029483
v 0.007566 0.026434 -0.042911
v 0.013541 0.002420 -0.076793
v 0.049892 0.003467 -0.046011
v 0.028777 0.008937 -0.024147
v 0.036924 0.018136 -0.027803
v -0.038989 0.002420 -0.067530
v -0.028132 0.012087 -0.010239
v 0.043434 0.016771 0.032256
v 0.047287 0.013847 0.040134
v 0.012459 0.017062 0.070657
v 0.010517 0.023921 0.059645
v -0.056913 0.023921 0.020715
v -0.067420 0.017062 0.024539
v -0.030283 0.023921 0.052451
v -0.035873 0.017062 0.062134
v -0.067420 0.017062 -0.024539
v -0.056913 0.023921 -0.020715
v 0.010517 0.023921 -0.059645
v 0.012459 0.017062 -0.070657
v -0.030283 0.023921 -0.052451
v -0.035873 0.017062 -0.062134
v 0.050433 0.012304 -0.042318
v 0.045789 0.015890 -0.035716
v 0.056397 -0.000744 -0.049484
v 0.051428 -0.016804 -0.043154
v 0.031512 -0.020955 -0.026442
v 0.017041 -0.008786 -0.018540
v 0.058885 0.002593 -0.052728
v 0.020670 0.012580 -0.021219
v 0.033379 0.026434 -0.028008
v 0.054961 0.017062 -0.046118
v 0.043968 0.024435 -0.041156
v 0.055597 -0.000000 0.049528
v 0.046217 -0.016804 0.046162
v 0.031512 -0.020955 0.026442
v 0.019518 -0.009326 0.016378
v 0.022933 0.012087 0.019243
v 0.057395 0.002420 0.051473
v 0.030886 0.026434 0.029448
v 0.045612 0.022895 0.040090
v 0.052738 0.017027 0.049448
vn 0.9152 0.2269 -0.3331
vn 0.7316 0.6285 -0.2641
vn 0.3888 0.6285 -0.6736
vn 0.5013 0.2209 -0.8366
vn 0.4555 -0.4123 0.7890
vn 0.0837 -0.9859 0.1450
vn -0.3100 -0.7845 -0.5370
vn -0.2838 -0.7926 -0.5397
vn -0.3049 -0.8009 -0.5154
vn 0.9152 0.2269 0.3331
vn 0.7302 0.6285 0.2679
vn -0.1582 -0.4123 0.8972
vn -0.0291 -0.9859 0.1649
vn 0.1077 -0.7845 -0.6107
vn 0.1102 -0.8009 -0.5886
vn 0.0977 -0.8009 -0.5908
vn -0.1496 0.2253 0.9627
vn -0.1297 0.6243 0.7703
vn 0.3888 0.6285 0.6736
vn 0.4739 0.2209 0.8524
vn -0.6979 -0.4123 0.5856
vn -0.1283 -0.9859 0.1077
vn 0.4750 -0.7845 -0.3986
vn 0.4723 -0.7979 -0.3746
vn 0.4513 -0.7926 -0.4101
vn -0.1349 0.6285 -0.7660
vn -0.1849 0.2209 -0.9576
vn -0.1187 -0.7298 -0.6732
vn -0.5237 -0.7298 0.4394
vn -0.6836 -0.7298 -0.0000
vn -0.9111 -0.4123 -0.0000
vn -0.1675 -0.9859 -0.0000
vn 0.6201 -0.7845 -0.0000
vn 0.6026 -0.7979 0.0166
vn 0.6026 -0.7979 -0.0166
vn -0.5327 0.2644 0.8040
vn 0.0337 0.0327 0.9989
vn -0.6979 -0.4123 -0.5856
vn -0.1283 -0.9859 -0.1077
vn 0.4750 -0.7845 0.3986
vn 0.4546 -0.8009 0.3898
vn 0.4723 -0.7979 0.3746
vn 0.3829 0.4587 -0.8019
vn -0.4731 0.2135 -0.8547
vn 0.3113 -0.7558 -0.5761
vn -0.1582 -0.4123 -0.8972
vn -0.0291 -0.9859 -0.1649
vn 0.1077 -0.7845 0.6107
vn 0.0883 -0.7979 0.5963
vn 0.1295 -0.7926 0.5959
vn -0.5237 -0.7298 -0.4394
vn 0.4459 -0.4284 -0.7859
vn 0.0837 -0.9859 -0.1450
vn -0.3024 -0.7696 0.5625
vn -0.3063 -0.7840 0.5400
vn -0.2789 -0.7834 0.5554
vn 0.3418 -0.7298 0.5920
vn -0.1187 -0.7298 0.6732
vn -0.0315 0.9748 -0.2207
vn 0.1970 0.8761 -0.4400
vn 0.5996 0.6646 0.4459
vn 0.1287 0.6205 0.7736
vn 0.1565 0.3647 0.9179
vn 0.9818 0.1370 -0.1317
vn 0.1145 0.9734 -0.1984
vn -0.1898 0.9252 0.3287
vn 0.0616 0.9302 0.3619
vn -0.3916 0.6217 0.6783
vn -0.4601 0.3916 0.7969
vn 0.2152 0.9734 -0.0783
vn 0.2152 0.9734 0.0783
vn -0.3566 0.9252 -0.1298
vn -0.3566 0.9252 0.1298
vn -0.7360 0.6217 0.2679
vn -0.7360 0.6217 -0.2679
vn -0.8647 0.3916 -0.3147
vn -0.8647 0.3916 0.3147
vn 0.1145 0.9734 0.1984
vn -0.1898 0.9252 -0.3287
vn -0.3916 0.6217 -0.6783
vn -0.4601 0.3916 -0.7969
vn -0.0453 0.9721 0.2300
vn 0.1569 0.7583 0.6327
vn 0.4033 0.9150 -0.0139
vn 0.0641 0.9226 -0.3805
vn 0.1281 0.6276 -0.7679
vn 0.1466 0.4172 -0.8969
vn 0.9687 0.2116 -0.1297
vn 0.9651 0.2600 -0.0323
vn 0.5144 0.8221 -0.2438
vn 0.6769 -0.5220 0.5190
vn 0.6170 -0.2968 0.7289
vn 0.6699 -0.1823 0.7197
vn 0.6037 -0.1200 -0.7881
vn 0.5659 -0.2407 -0.7886
vn 0.6528 -0.4691 -0.5948
vn 0.5190 0.2388 0.8207
vn 0.3107 -0.3085 0.8991
vn 0.4858 -0.5440 0.6842
vn 0.5962 -0.2240 0.7710
vn 0.5952 -0.0598 0.8013
vn 0.5278 0.1223 0.8405
vn 0.7084 -0.0751 0.7018
vn -0.1337 0.1148 0.9844
vn 0.1212 0.3812 0.9165
vn 0.5185 0.3499 0.7802
vn 0.7078 0.2375 0.6653
vn 0.5405 -0.1217 0.8325
vn 0.8978 -0.3054 -0.3174
vn 0.7068 -0.4037 -0.5809
vn 0.7535 -0.1413 -0.6420
vn 0.5798 0.0585 -0.8126
vn 0.8247 0.1772 -0.5371
vn 0.4238 0.3396 -0.8397
vn 0.4213 -0.1276 -0.8979
vn 0.7446 0.0363 -0.6666
vn 0.7850 0.1003 -0.6113
vn 0.4857 0.4713 -0.7362
vn 0.7812 -0.0502 -0.6222
vn 0.7005 0.3146 -0.6405
vn 0.9192 -0.1984 0.3402
vn 0.9852 -0.0363 0.1673
vn 0.8528 -0.0599 0.5188
vn 0.7676 -0.1143 0.6307
vn 0.7305 -0.2347 0.6413
vn 0.6610 -0.1264 0.7397
vn 0.6163 -0.3051 0.7260
vn 0.6922 -0.4666 0.5505
vn 0.8157 -0.1143 0.5671
vn 0.7208 0.4381 0.5371
vn 0.6962 0.1412 0.7038
vn 0.7375 0.2389 0.6317
vn 0.8757 -0.0888 0.4746
vn 0.7679 0.1683 0.6180
vn 0.5952 0.3289 -0.7331
vn 0.3394 -0.0297 -0.9402
vn 0.4306 0.3031 -0.8501
vn 0.5013 -0.2689 -0.8224
vn 0.6772 -0.4183 -0.6053
vn 0.5660 -0.2733 -0.7778
vn 0.5971 -0.0901 -0.7971
vn 0.8984 0.1986 -0.3918
vn 0.9280 0.2653 -0.2617
vn 0.9065 0.0746 -0.4156
vn 0.8603 0.2319 -0.4540
vn 0.8087 0.0318 -0.5874
vn 0.6889 0.0976 -0.7183
vn 0.8062 -0.1516 -0.5720
vt 0.300910 0.961753
vt 0.632238 0.966305
vt 0.961216 0.966760
vt 0.300910 0.966539
vt 0.961216 0.971546
vt 0.300910 0.968627
vt 0.961216 0.973634
vt 0.300910 0.939141
vt 0.624426 0.954110
vt 0.961216 0.944149
vt 0.306466 0.961054
vt 0.306466 0.968197
vt 0.306466 0.975340
vt 0.306466 0.982483
vt 0.306466 0.932483
vt 0.312022 0.961054
vt 0.312022 0.968197
vt 0.312022 0.975340
vt 0.312022 0.982483
vt 0.312022 0.932483
vt 0.317577 0.961054
vt 0.267577 0.961054
vt 0.317577 0.968197
vt 0.267577 0.968197
vt 0.317577 0.975340
vt 0.267577 0.975340
vt 0.317577 0.932483
vt 0.267577 0.932483
vt 0.317577 0.982483
vt 0.267577 0.982483
vt 0.273133 0.961054
vt 0.273133 0.968197
vt 0.273133 0.975340
vt 0.273133 0.982483
vt 0.273133 0.932483
vt 0.278688 0.961054
vt 0.278688 0.968197
vt 0.278688 0.975340
vt 0.278688 0.982483
vt 0.278688 0.932483
vt 0.284244 0.961054
vt 0.284244 0.968197
vt 0.284244 0.975340
vt 0.284244 0.932483
vt 0.284244 0.982483
vt 0.289799 0.961685
vt 0.621127 0.966237
vt 0.950105 0.966693
vt 0.289799 0.966652
vt 0.950105 0.971659
vt 0.289799 0.969013
vt 0.950105 0.974020
vt 0.289799 0.938753
vt 0.613315 0.953722
vt 0.950105 0.943760
vt 0.632238 0.964456
vt 0.624426 0.974873
vt 0.961216 0.964911
vt 0.624426 0.956677
vt 0.961216 0.946715
vt 0.624426 0.962306
vt 0.961216 0.952345
vt 0.306466 0.961054
vt 0.306466 0.939626
vt 0.306466 0.946768
vt 0.312022 0.961054
vt 0.312022 0.939626
vt 0.312022 0.946768
vt 0.267577 0.961054
vt 0.317577 0.961054
vt 0.317577 0.939626
vt 0.267577 0.939626
vt 0.317577 0.946768
vt 0.267577 0.946768
vt 0.273133 0.961054
vt 0.273133 0.946768
vt 0.278688 0.939626
vt 0.278688 0.946768
vt 0.284244 0.939626
vt 0.284244 0.946768
vt 0.284244 0.961054
vt 0.621127 0.964521
vt 0.613315 0.974938
vt 0.950105 0.964976
vt 0.613315 0.956536
vt 0.950105 0.946575
vt 0.613315 0.962263
vt 0.950105 0.952302
vt 0.278688 0.961054
vt 0.273133 0.939626
vt 0.624426 0.966581
vt 0.961216 0.956620
vt 0.624426 0.970666
vt 0.961216 0.960705
vt 0.306466 0.955748
vt 0.306466 0.950942
vt 0.317577 0.950942
vt 0.267577 0.950942
vt 0.317577 0.955748
vt 0.267577 0.955748
vt 0.312022 0.950942
vt 0.312022 0.955748
vt 0.273133 0.955748
vt 0.273133 0.950942
vt 0.284244 0.950942
vt 0.284244 0.955748
vt 0.278688 0.950942
vt 0.278688 0.955748
vt 0.613315 0.970668
vt 0.950105 0.960706
vt 0.613315 0.966541
vt 0.950105 0.956580
vt 0.289799 0.961054
vt 0.621127 0.965606
vt 0.289799 0.968197
vt 0.289799 0.975340
vt 0.289799 0.982483
vt 0.289799 0.932483
vt 0.613315 0.947451
vt 0.289799 0.961054
vt 0.621127 0.965606
vt 0.613315 0.976023
vt 0.289799 0.939626
vt 0.613315 0.954594
vt 0.289799 0.946768
vt 0.613315 0.961737
vt 0.289799 0.955748
vt 0.613315 0.970717
vt 0.289799 0.950942
vt 0.613315 0.965911
vt 0.301111 0.961142
vt 0.632238 0.965576
vt 0.301459 0.968319
vt 0.300910 0.975340
vt 0.300910 0.982483
vt 0.300910 0.932483
vt 0.624426 0.947451
vt 0.300910 0.939626
vt 0.624426 0.954594
vt 0.301192 0.961054
vt 0.632238 0.965633
vt 0.624426 0.975908
vt 0.301447 0.946768
vt 0.624426 0.961181
vt 0.301447 0.950942
vt 0.624426 0.965560
vt 0.300910 0.955748
vt 0.624426 0.970717
s 0
usemtl Palette
f 82/131/5 5/11/5 6/12/5 83/133/5
f 83/133/6 6/12/6 7/13/6 84/134/6
f 84/134/7 7/13/7 8/14/8 85/135/9
f 5/11/12 9/16/12 10/17/12 6/12/12
f 6/12/13 10/17/13 11/18/13 7/13/13
f 7/13/14 11/18/14 12/19/15 8/14/16
f 9/16/21 13/21/21 14/23/21 10/17/21
f 10/17/22 14/23/22 15/25/22 11/18/22
f 11/18/23 15/25/23 16/29/24 12/19/25
f 13/22/31 17/31/31 18/32/31 14/24/31
f 14/24/32 18/32/32 19/33/32 15/26/32
f 15/26/33 19/33/33 20/34/34 16/30/35
f 17/31/38 21/36/38 22/37/38 18/32/38
f 18/32/39 22/37/39 23/38/39 19/33/39
f 19/33/40 23/38/40 24/39/41 20/34/42
f 21/36/46 25/41/46 26/42/46 22/37/46
f 22/37/47 26/42/47 27/43/47 23/38/47
f 23/38/48 27/43/48 28/45/49 24/39/50
f 25/41/52 73/113/52 74/115/52 26/42/52
f 26/42/53 74/115/53 75/116/53 27/43/53
f 27/43/54 75/116/54 76/117/55 28/45/56
f 53/86/91 29/48/92 72/112/93
f 57/92/94 1/3/95 34/60/96
f 29/46/97 30/49/97 74/115/97 73/113/97
f 31/51/98 32/53/99 76/118/100 75/116/98
f 30/49/103 31/51/103 75/116/103 74/115/103
f 2/4/109 1/1/109 82/131/109 83/133/109
f 3/6/110 2/4/110 83/133/110 84/134/110
f 4/8/111 3/6/112 84/134/112 85/136/113
f 29/48/121 52/84/121 71/110/122
f 71/110/123 72/112/124 29/48/125
f 72/112/126 54/88/127 53/86/128
f 53/86/129 32/55/130 31/52/131
f 31/52/132 30/50/132 29/48/132
f 53/86/133 31/52/134 29/48/134
f 1/3/135 2/5/135 3/7/135
f 3/7/136 4/10/137 34/60/138
f 34/60/139 35/62/140 57/92/141
f 57/92/142 58/94/143 1/3/144
f 58/94/145 33/58/146 1/3/146
f 1/3/147 3/7/147 34/60/148
s 1
usemtl Color_1
f 16/27/1 43/71/2 40/67/3 12/20/4
f 20/35/10 56/90/11 43/72/2 16/28/1
f 28/44/17 49/79/18 47/77/19 24/40/20
f 12/20/4 40/67/3 37/64/26 8/15/27
s 0
f 25/41/28 21/36/28 55/89/28 51/81/28
f 13/21/29 9/16/29 39/66/29 42/70/29
f 17/31/30 13/22/30 42/69/30 45/75/30
s 1
f 28/44/17 76/118/36 78/123/37 49/79/18
f 8/15/27 37/64/26 86/138/43 85/136/44
s 0
f 73/113/45 25/41/45 51/81/45 77/120/45
s 1
f 24/40/20 47/77/19 56/90/11 20/35/10
s 0
f 21/36/51 17/31/51 45/75/51 55/89/51
f 5/11/57 82/131/57 87/140/57 36/63/57
f 9/16/58 5/11/58 36/63/58 39/66/58
s 1
f 86/138/43 37/64/26 38/65/59 88/143/60
f 90/147/61 59/95/62 36/63/63 87/140/64
f 38/65/59 41/68/65 63/101/66 60/96/67
f 37/64/26 40/67/3 41/68/65 38/65/59
f 59/95/62 64/102/68 39/66/69 36/63/63
f 44/74/70 46/76/71 66/104/72 61/98/73
f 40/67/3 43/71/2 44/73/70 41/68/65
f 62/100/74 65/103/75 45/75/76 42/69/77
f 41/68/65 44/73/70 61/97/73 63/101/66
f 43/72/2 56/90/11 46/76/71 44/74/70
f 64/102/68 62/99/74 42/70/77 39/66/69
f 46/76/71 48/78/78 69/107/79 66/104/72
f 56/90/11 47/77/19 48/78/78 46/76/71
f 65/103/75 70/108/80 55/89/81 45/75/76
f 50/80/82 79/125/83 81/129/84 67/105/85
f 47/77/19 49/79/18 50/80/82 48/78/78
f 70/108/80 68/106/86 51/81/87 55/89/81
f 68/106/86 80/127/88 77/120/89 51/81/87
f 49/79/18 78/123/37 79/125/83 50/80/82
f 48/78/78 50/80/82 67/105/85 69/107/79
f 88/143/60 38/65/59 60/96/67 89/145/90
f 60/96/67 63/101/66 64/102/68 59/95/62
f 66/104/72 69/107/79 70/108/80 65/103/75
f 63/101/66 61/97/73 62/99/74 64/102/68
f 69/107/79 67/105/85 68/106/86 70/108/80
f 89/145/90 60/96/67 59/95/62 90/147/61
f 61/98/73 66/104/72 65/103/75 62/100/74
f 67/105/85 81/129/84 80/127/88 68/106/86
f 52/82/101 29/47/102 73/114/102 77/121/89
f 32/54/104 53/85/105 78/124/37 76/119/36
f 53/85/105 54/87/106 79/126/83 78/124/37
f 72/111/107 71/109/108 80/128/88 81/130/84
f 54/87/106 72/111/107 81/130/84 79/126/83
f 71/109/108 52/83/101 77/122/89 80/128/88
f 34/59/114 4/9/115 85/137/44 86/139/43
f 1/2/116 33/56/117 87/141/64 82/132/116
f 35/61/118 34/59/114 86/139/43 88/144/60
f 58/93/119 57/91/120 89/146/90 90/148/61
f 33/57/117 58/93/119 90/148/61 87/142/64
f 57/91/120 35/61/118 88/144/60 89/146/90
