# Blender 3.4.1
# www.blender.org
mtllib Sofa_1_Alt.mtl
o Sofa_1_Alt
v -0.493474 0.323333 0.375000
v -0.493474 0.323333 -0.375000
v -0.459554 0.083526 0.341080
v -0.459554 0.083526 -0.341080
v -0.409681 0.291873 0.357263
v -0.377934 0.688579 -0.496217
v -0.377934 0.250375 -0.428031
v -0.573794 0.252277 -0.428020
v -0.573794 0.689692 -0.496348
v -0.377934 0.250375 -0.193708
v -0.377934 0.688579 -0.261894
v -0.573794 0.689692 -0.262025
v -0.573794 0.252277 -0.193697
v -0.409682 0.479320 -0.289664
v -0.409682 0.291873 -0.289664
v -0.573794 0.252277 0.409840
v -0.377934 0.250375 0.409829
v -0.409681 0.479320 0.286164
v -0.409681 0.408221 0.357263
v -0.409681 0.458496 0.336439
v -0.349531 0.000000 0.288052
v -0.404346 0.000000 0.288052
v -0.349531 0.000000 0.233236
v -0.404346 0.000000 0.233236
v -0.344576 0.119791 0.228281
v -0.344576 0.119791 0.293007
v -0.409302 0.119791 0.293007
v -0.409302 0.119791 0.228281
v -0.349531 0.000000 -0.230731
v -0.404346 0.000000 -0.230731
v -0.349531 0.000000 -0.285547
v -0.404346 0.000000 -0.285547
v -0.344576 0.119791 -0.290502
v -0.344576 0.119791 -0.225776
v -0.409302 0.119791 -0.225776
v -0.409302 0.119791 -0.290502
v -0.573794 0.689692 0.168078
v -0.573794 0.491115 0.370025
v -0.573794 0.676673 0.236619
v -0.573794 0.639596 0.299066
v -0.573794 0.584107 0.345912
v -0.377934 0.489945 0.370052
v -0.377934 0.688579 0.168210
v -0.377934 0.582959 0.345979
v -0.377934 0.638466 0.299167
v -0.377934 0.675555 0.236743
v -0.566934 0.781629 -0.278603
v -0.566934 0.781629 -0.512926
v -0.441720 0.830329 -0.520844
v -0.262956 0.882828 -0.529579
v -0.441720 0.830329 -0.286520
v -0.262956 0.882828 -0.295255
v 0.493474 0.323333 0.375000
v 0.493474 0.323333 -0.375000
v 0.459554 0.083526 0.341080
v 0.459554 0.083526 -0.341080
v 0.409681 0.291873 0.357263
v 0.377934 0.688579 -0.496217
v 0.377934 0.250375 -0.428031
v 0.573794 0.252277 -0.428020
v 0.573794 0.689692 -0.496348
v 0.000000 0.688579 -0.261894
v 0.000000 0.688579 -0.496217
v 0.000000 0.250375 -0.428031
v 0.000000 0.250375 -0.193708
v 0.377934 0.250375 -0.193708
v 0.377934 0.688579 -0.261894
v 0.573794 0.689692 -0.262025
v 0.573794 0.252277 -0.193697
v 0.409682 0.479320 -0.289664
v 0.409682 0.291873 -0.289664
v 0.573794 0.252277 0.409840
v 0.377934 0.250375 0.409829
v 0.409681 0.479320 0.286164
v 0.409681 0.408221 0.357263
v 0.409681 0.458496 0.336439
v 0.349531 0.000000 0.288052
v 0.404346 0.000000 0.288052
v 0.349531 0.000000 0.233236
v 0.404346 0.000000 0.233236
v 0.344576 0.119791 0.228281
v 0.344576 0.119791 0.293007
v 0.409302 0.119791 0.293007
v 0.409302 0.119791 0.228281
v 0.349531 0.000000 -0.230731
v 0.404346 0.000000 -0.230731
v 0.349531 0.000000 -0.285547
v 0.404346 0.000000 -0.285547
v 0.344576 0.119791 -0.290502
v 0.344576 0.119791 -0.225776
v 0.409302 0.119791 -0.225776
v 0.409302 0.119791 -0.290502
v 0.573794 0.689692 0.168078
v 0.573794 0.491115 0.370025
v 0.573794 0.676673 0.236619
v 0.573794 0.639596 0.299066
v 0.573794 0.584107 0.345912
v 0.377934 0.489945 0.370052
v 0.377934 0.688579 0.168210
v 0.377934 0.582959 0.345979
v 0.377934 0.638466 0.299167
v 0.377934 0.675555 0.236743
v 0.566934 0.781629 -0.278603
v 0.566934 0.781629 -0.512926
v 0.000000 0.900459 -0.532389
v 0.000000 0.900459 -0.298066
v 0.441720 0.830329 -0.520844
v 0.262956 0.882828 -0.529579
v 0.441720 0.830329 -0.286520
v 0.262956 0.882828 -0.295255
vn -0.9901 -0.1401 -0.0000
vn -0.0000 -0.1401 -0.9901
vn -0.0000 -1.0000 -0.0000
vn -0.0000 -0.1401 0.9901
vn -0.6657 0.7319 0.1456
vn -0.7071 0.7071 -0.0000
vn -1.0000 -0.0000 -0.0000
vn -0.7071 -0.0000 0.7071
vn -0.6657 0.1456 0.7319
vn -0.6303 0.5490 0.5490
vn -0.0009 -0.1540 -0.9881
vn -0.9972 0.0744 -0.0000
vn -0.0097 -1.0000 -0.0000
vn -0.0000 -0.1538 -0.9881
vn 1.0000 -0.0000 -0.0000
vn 0.0012 0.1641 0.9864
vn -0.0000 0.1538 0.9881
vn 0.0057 1.0000 -0.0000
vn 0.6303 0.5490 0.5490
vn 0.6657 0.1456 0.7319
vn 0.6657 0.7319 0.1456
vn 0.7071 0.7071 -0.0000
vn 0.7071 -0.0000 0.7071
vn -0.9991 -0.0413 -0.0000
vn 0.9991 -0.0413 -0.0000
vn -0.0000 -0.0413 -0.9991
vn -0.0000 -0.0413 0.9991
vn 0.0013 0.2508 0.9680
vn 0.0034 0.6449 0.7643
vn 0.0046 0.8598 0.5107
vn 0.0055 0.9824 0.1867
vn -0.3625 0.9320 -0.0000
vn 0.0018 -0.1732 -0.9849
vn -0.0018 0.1732 0.9849
vn 0.0019 -0.1703 -0.9854
vn -0.0019 0.1703 0.9854
vn -0.2818 0.9595 -0.0000
vn -0.0669 0.9978 -0.0000
vn 0.0003 -0.1688 -0.9856
vn -0.0003 0.1688 0.9856
vn 0.9901 -0.1401 -0.0000
vn 0.0009 -0.1540 -0.9881
vn 0.9972 0.0744 -0.0000
vn 0.0097 -1.0000 -0.0000
vn -0.0012 0.1641 0.9864
vn -0.0057 1.0000 -0.0000
vn -0.0013 0.2508 0.9680
vn -0.0034 0.6449 0.7643
vn -0.0046 0.8598 0.5107
vn -0.0055 0.9824 0.1867
vn 0.3625 0.9320 -0.0000
vn -0.0018 -0.1732 -0.9849
vn 0.0018 0.1732 0.9849
vn -0.0019 -0.1703 -0.9854
vn 0.0019 0.1703 0.9854
vn 0.2818 0.9595 -0.0000
vn 0.0669 0.9978 -0.0000
vn -0.0003 -0.1688 -0.9856
vn 0.0003 0.1688 0.9856
vn -0.0000 1.0000 -0.0000
vt 0.126771 0.957828
vt 0.133845 0.956681
vt 0.126771 0.973461
vt 0.133845 0.972314
vt 0.133389 0.948087
vt 0.133389 0.962306
vt 0.036846 0.868927
vt 0.711659 0.875717
vt 0.707493 0.875672
vt 0.707493 0.878368
vt 0.711659 0.878323
vt 0.707493 0.875672
vt 0.711659 0.875717
vt 0.711659 0.878323
vt 0.707493 0.878368
vt 0.036846 0.868927
vt 0.036846 0.868927
vt 0.707493 0.878368
vt 0.707493 0.875672
vt 0.036846 0.868927
vt 0.036846 0.868927
vt 0.036846 0.868927
vt 0.015711 0.855680
vt 0.065711 0.855680
vt 0.015711 0.905680
vt 0.065711 0.905680
vt 0.015711 0.905680
vt 0.015711 0.855680
vt 0.065711 0.855680
vt 0.065711 0.905680
vt 0.015711 0.855680
vt 0.065711 0.855680
vt 0.015711 0.905680
vt 0.065711 0.905680
vt 0.015711 0.905680
vt 0.015711 0.855680
vt 0.065711 0.855680
vt 0.065711 0.905680
vt 0.711659 0.878323
vt 0.709921 0.878341
vt 0.711615 0.878327
vt 0.711490 0.878324
vt 0.710600 0.878335
vt 0.709923 0.875698
vt 0.711659 0.875717
vt 0.710602 0.875705
vt 0.711490 0.875715
vt 0.711615 0.875715
vt 0.711659 0.878323
vt 0.711659 0.878323
vt 0.711659 0.876479
vt 0.711659 0.875717
vt 0.711659 0.876989
vt 0.711659 0.875759
vt 0.126771 0.957828
vt 0.133845 0.956681
vt 0.126771 0.973461
vt 0.133845 0.972314
vt 0.133389 0.948087
vt 0.133389 0.962306
vt 0.036846 0.868927
vt 0.711659 0.875717
vt 0.707493 0.875672
vt 0.707493 0.878368
vt 0.711659 0.878323
vt 0.711659 0.875717
vt 0.711659 0.875717
vt 0.707493 0.875672
vt 0.707493 0.875672
vt 0.707493 0.875672
vt 0.711659 0.875717
vt 0.711659 0.878323
vt 0.707493 0.878368
vt 0.036846 0.868927
vt 0.036846 0.868927
vt 0.707493 0.878368
vt 0.707493 0.875672
vt 0.036846 0.868927
vt 0.036846 0.868927
vt 0.036846 0.868927
vt 0.015711 0.855680
vt 0.065711 0.855680
vt 0.015711 0.905680
vt 0.065711 0.905680
vt 0.015711 0.905680
vt 0.015711 0.855680
vt 0.065711 0.855680
vt 0.065711 0.905680
vt 0.015711 0.855680
vt 0.065711 0.855680
vt 0.015711 0.905680
vt 0.065711 0.905680
vt 0.015711 0.905680
vt 0.015711 0.855680
vt 0.065711 0.855680
vt 0.065711 0.905680
vt 0.711659 0.878323
vt 0.709921 0.878341
vt 0.711615 0.878327
vt 0.711490 0.878324
vt 0.710600 0.878335
vt 0.709923 0.875698
vt 0.711659 0.875717
vt 0.710602 0.875705
vt 0.711490 0.875715
vt 0.711615 0.875715
vt 0.711659 0.878323
vt 0.711659 0.878323
vt 0.711659 0.875717
vt 0.711659 0.875798
vt 0.711659 0.876479
vt 0.711659 0.875717
vt 0.711659 0.876989
vt 0.711659 0.875759
s 0
usemtl Palette
f 4/6/1 3/5/1 1/1/1 2/3/1
f 2/3/2 54/57/2 56/60/2 4/6/2
f 4/6/3 56/60/3 55/59/3 3/5/3
f 3/5/4 55/59/4 53/55/4 1/1/4
s 1
f 18/20/5 14/16/6 15/17/7 5/7/8 19/21/9 20/22/10
s 0
f 6/8/11 7/9/11 8/10/11 9/11/11
f 12/14/12 47/49/12 48/50/12 9/11/12
f 12/14/7 9/11/7 8/10/7 13/15/7
f 13/15/13 8/10/13 7/9/13 10/12/13
f 7/9/3 64/68/3 65/69/3 10/12/3
f 6/8/14 63/67/14 64/68/14 7/9/14
f 17/19/15 10/12/15 11/13/15 43/45/15 46/48/15 45/47/15 44/46/15 42/44/15
f 16/18/13 13/15/13 10/12/13 17/19/13
f 42/44/16 38/40/16 16/18/16 17/19/16
f 10/12/17 65/69/17 62/66/17 11/13/17
f 43/45/18 11/13/18 12/14/18 37/39/18
s 1
f 76/80/19 20/22/10 19/21/9 75/79/20
f 18/20/5 74/78/21 70/74/22 14/16/6
f 57/61/23 75/79/20 19/21/9 5/7/8
f 74/78/21 18/20/5 20/22/10 76/80/19
s 0
f 21/23/3 22/24/3 24/26/3 23/25/3
f 29/31/3 30/32/3 32/34/3 31/33/3
f 22/24/24 27/29/24 28/30/24 24/26/24
f 23/25/25 25/27/25 26/28/25 21/23/25
f 24/26/26 28/30/26 25/27/26 23/25/26
f 21/23/27 26/28/27 27/29/27 22/24/27
f 30/32/24 35/37/24 36/38/24 32/34/24
f 31/33/25 33/35/25 34/36/25 29/31/25
f 32/34/26 36/38/26 33/35/26 31/33/26
f 29/31/27 34/36/27 35/37/27 30/32/27
f 42/44/28 44/46/28 41/43/28 38/40/28
f 44/46/29 45/47/29 40/42/29 41/43/29
f 45/47/30 46/48/30 39/41/30 40/42/30
f 46/48/31 43/45/31 37/39/31 39/41/31
f 37/39/7 12/14/7 13/15/7 16/18/7 38/40/7 41/43/7 40/42/7 39/41/7
f 51/53/32 49/51/32 48/50/32 47/49/32
f 9/11/33 48/50/33 49/51/33 6/8/33
f 11/13/34 51/53/34 47/49/34 12/14/34
f 50/52/35 6/8/35 49/51/35
f 51/53/36 11/13/36 52/54/36
f 50/52/37 49/51/37 51/53/37 52/54/37
f 52/54/38 106/110/38 105/109/38 50/52/38
f 50/52/39 105/109/39 63/67/39 6/8/39
f 11/13/40 62/66/40 106/110/40 52/54/40
f 56/60/41 54/57/41 53/55/41 55/59/41
s 1
f 74/78/21 76/80/19 75/79/20 57/61/23 71/75/15 70/74/22
s 0
f 58/62/42 61/65/42 60/64/42 59/63/42
f 68/72/43 61/65/43 104/108/43 103/107/43
f 68/72/15 69/73/15 60/64/15 61/65/15
f 69/73/44 66/70/44 59/63/44 60/64/44
f 59/63/3 66/70/3 65/69/3 64/68/3
f 58/62/14 59/63/14 64/68/14 63/67/14
f 73/77/7 98/102/7 100/104/7 101/105/7 102/106/7 99/103/7 67/71/7 66/70/7
f 72/76/44 73/77/44 66/70/44 69/73/44
f 98/102/45 73/77/45 72/76/45 94/98/45
f 66/70/17 67/71/17 62/66/17 65/69/17
f 99/103/46 93/97/46 68/72/46 67/71/46
f 77/81/3 79/83/3 80/84/3 78/82/3
f 85/89/3 87/91/3 88/92/3 86/90/3
f 78/82/25 80/84/25 84/88/25 83/87/25
f 79/83/24 77/81/24 82/86/24 81/85/24
f 80/84/26 79/83/26 81/85/26 84/88/26
f 77/81/27 78/82/27 83/87/27 82/86/27
f 86/90/25 88/92/25 92/96/25 91/95/25
f 87/91/24 85/89/24 90/94/24 89/93/24
f 88/92/26 87/91/26 89/93/26 92/96/26
f 85/89/27 86/90/27 91/95/27 90/94/27
f 98/102/47 94/98/47 97/101/47 100/104/47
f 100/104/48 97/101/48 96/100/48 101/105/48
f 101/105/49 96/100/49 95/99/49 102/106/49
f 102/106/50 95/99/50 93/97/50 99/103/50
f 93/97/15 95/99/15 96/100/15 97/101/15 94/98/15 72/76/15 69/73/15 68/72/15
f 109/113/51 103/107/51 104/108/51 107/111/51
f 61/65/52 58/62/52 107/111/52 104/108/52
f 67/71/53 68/72/53 103/107/53 109/113/53
f 108/112/54 107/111/54 58/62/54
f 109/113/55 110/114/55 67/71/55
f 108/112/56 110/114/56 109/113/56 107/111/56
f 110/114/57 108/112/57 105/109/57 106/110/57
f 108/112/58 58/62/58 63/67/58 105/109/58
f 67/71/59 110/114/59 106/110/59 62/66/59
f 53/56/60 54/58/60 2/4/60 1/2/60
