# Blender 3.4.1
# www.blender.org
mtllib Sofa_2.mtl
o Sofa_2
v -0.816062 0.323333 0.375000
v -0.816062 0.323333 -0.375000
v -0.782142 0.083526 0.341080
v -0.782142 0.083526 -0.341080
v -0.732269 0.291873 0.357263
v -0.700522 0.701344 -0.493942
v -0.700522 0.250375 -0.428031
v -0.898242 0.252277 -0.428020
v -0.898242 0.702577 -0.494052
v -0.700522 0.250375 -0.193708
v -0.700522 0.763718 -0.269976
v -0.898242 0.764831 -0.270107
v -0.898242 0.252277 -0.193697
v -0.732270 0.479320 -0.289664
v -0.732270 0.291873 -0.289664
v -0.898242 0.597005 0.441456
v -0.898242 0.252277 0.409841
v -0.700522 0.595713 0.441555
v -0.700522 0.250375 0.409829
v -0.732269 0.479320 0.286164
v -0.732269 0.408221 0.357263
v -0.732269 0.458496 0.336439
v -0.672119 0.000000 0.288052
v -0.726934 0.000000 0.288052
v -0.672119 0.000000 0.233236
v -0.726934 0.000000 0.233236
v -0.667164 0.119791 0.228281
v -0.667164 0.119791 0.293007
v -0.731890 0.119791 0.293007
v -0.731890 0.119791 0.228281
v -0.672119 0.000000 -0.230731
v -0.726934 0.000000 -0.230731
v -0.672119 0.000000 -0.285547
v -0.726934 0.000000 -0.285547
v -0.667164 0.119791 -0.290502
v -0.667164 0.119791 -0.225776
v -0.731890 0.119791 -0.225776
v -0.731890 0.119791 -0.290502
v 0.816062 0.323333 0.375000
v 0.816062 0.323333 -0.375000
v 0.782142 0.083526 0.341080
v 0.782142 0.083526 -0.341080
v 0.732269 0.291873 0.357263
v 0.700522 0.701344 -0.493942
v 0.700522 0.250375 -0.428031
v 0.898242 0.252277 -0.428020
v 0.898242 0.702577 -0.494052
v 0.700522 0.250375 -0.193708
v 0.700522 0.763718 -0.269976
v 0.898242 0.764831 -0.270107
v 0.898242 0.252277 -0.193697
v 0.732270 0.479320 -0.289664
v 0.732270 0.291873 -0.289664
v 0.898242 0.597005 0.441456
v 0.898242 0.252277 0.409841
v 0.700522 0.595713 0.441555
v 0.700522 0.250375 0.409829
v 0.732269 0.479320 0.286164
v 0.732269 0.408221 0.357263
v 0.732269 0.458496 0.336439
v 0.672119 0.000000 0.288052
v 0.726934 0.000000 0.288052
v 0.672119 0.000000 0.233236
v 0.726934 0.000000 0.233236
v 0.667164 0.119791 0.228281
v 0.667164 0.119791 0.293007
v 0.731890 0.119791 0.293007
v 0.731890 0.119791 0.228281
v 0.672119 0.000000 -0.230731
v 0.726934 0.000000 -0.230731
v 0.672119 0.000000 -0.285547
v 0.726934 0.000000 -0.285547
v 0.667164 0.119791 -0.290502
v 0.667164 0.119791 -0.225776
v 0.731890 0.119791 -0.225776
v 0.731890 0.119791 -0.290502
vn -0.9901 -0.1401 -0.0000
vn -0.0000 -0.1401 -0.9901
vn -0.0000 -1.0000 -0.0000
vn -0.0000 -0.1401 0.9901
vn -0.6657 0.7319 0.1456
vn -0.7071 0.7071 -0.0000
vn -1.0000 -0.0000 -0.0000
vn -0.7071 -0.0000 0.7071
vn -0.6657 0.1456 0.7319
vn -0.6303 0.5490 0.5490
vn -0.0009 -0.1449 -0.9895
vn 0.0059 0.9634 -0.2681
vn -0.0096 -1.0000 -0.0000
vn 0.6657 0.7319 0.1456
vn 0.6303 0.5490 0.5490
vn -0.0000 0.9633 -0.2683
vn -0.0000 0.1470 0.9891
vn 0.0058 0.9733 0.2297
vn 1.0000 -0.0000 -0.0000
vn -0.0010 -0.0914 0.9958
vn 0.6657 0.1456 0.7319
vn 0.7071 0.7071 -0.0000
vn 0.7071 -0.0000 0.7071
vn -0.0000 -0.1446 -0.9895
vn -0.9991 -0.0413 -0.0000
vn 0.9991 -0.0413 -0.0000
vn -0.0000 -0.0413 -0.9991
vn -0.0000 -0.0413 0.9991
vn 0.9901 -0.1401 -0.0000
vn 0.0009 -0.1449 -0.9895
vn -0.0059 0.9634 -0.2681
vn 0.0096 -1.0000 -0.0000
vn -0.0058 0.9733 0.2297
vn 0.0010 -0.0914 0.9958
vn -0.0000 1.0000 -0.0000
vt 0.126771 0.957828
vt 0.133845 0.956681
vt 0.126771 0.973461
vt 0.133845 0.972314
vt 0.133389 0.948087
vt 0.133389 0.962306
vt 0.036846 0.868927
vt 0.711026 0.875710
vt 0.707493 0.875672
vt 0.707493 0.878368
vt 0.711026 0.878329
vt 0.707493 0.875672
vt 0.711659 0.875717
vt 0.711659 0.878323
vt 0.707493 0.878368
vt 0.036846 0.868927
vt 0.036846 0.868927
vt 0.710717 0.878333
vt 0.707493 0.878368
vt 0.710717 0.875706
vt 0.707493 0.875672
vt 0.036846 0.868927
vt 0.036846 0.868927
vt 0.036846 0.868927
vt 0.015711 0.855680
vt 0.065711 0.855680
vt 0.015711 0.905680
vt 0.065711 0.905680
vt 0.015711 0.905680
vt 0.015711 0.855680
vt 0.065711 0.855680
vt 0.065711 0.905680
vt 0.015711 0.855680
vt 0.065711 0.855680
vt 0.015711 0.905680
vt 0.065711 0.905680
vt 0.015711 0.905680
vt 0.015711 0.855680
vt 0.065711 0.855680
vt 0.065711 0.905680
vt 0.126771 0.957828
vt 0.133845 0.956681
vt 0.126771 0.973461
vt 0.133845 0.972314
vt 0.133389 0.948087
vt 0.133389 0.962306
vt 0.036846 0.868927
vt 0.711026 0.875710
vt 0.707493 0.875672
vt 0.707493 0.878368
vt 0.711026 0.878329
vt 0.707493 0.875672
vt 0.711659 0.875717
vt 0.711659 0.878323
vt 0.707493 0.878368
vt 0.036846 0.868927
vt 0.036846 0.868927
vt 0.710717 0.878333
vt 0.707493 0.878368
vt 0.710717 0.875706
vt 0.707493 0.875672
vt 0.036846 0.868927
vt 0.036846 0.868927
vt 0.036846 0.868927
vt 0.015711 0.855680
vt 0.065711 0.855680
vt 0.015711 0.905680
vt 0.065711 0.905680
vt 0.015711 0.905680
vt 0.015711 0.855680
vt 0.065711 0.855680
vt 0.065711 0.905680
vt 0.015711 0.855680
vt 0.065711 0.855680
vt 0.015711 0.905680
vt 0.065711 0.905680
vt 0.015711 0.905680
vt 0.015711 0.855680
vt 0.065711 0.855680
vt 0.065711 0.905680
s 0
usemtl Palette
f 4/6/1 3/5/1 1/1/1 2/3/1
f 2/3/2 40/43/2 42/46/2 4/6/2
f 4/6/3 42/46/3 41/45/3 3/5/3
f 3/5/4 41/45/4 39/41/4 1/1/4
s 1
f 20/22/5 14/16/6 15/17/7 5/7/8 21/23/9 22/24/10
s 0
f 6/8/11 7/9/11 8/10/11 9/11/11
f 11/13/12 6/8/12 9/11/12 12/14/12
f 12/14/7 9/11/7 8/10/7 13/15/7
f 13/15/13 8/10/13 7/9/13 10/12/13
s 1
f 58/62/14 20/22/5 22/24/10 60/64/15
s 0
f 49/53/16 44/48/16 6/8/16 11/13/16
f 48/52/17 49/53/17 11/13/17 10/12/17
f 18/20/18 11/13/18 12/14/18 16/18/18
f 17/19/13 13/15/13 10/12/13 19/21/13
f 16/18/7 12/14/7 13/15/7 17/19/7
f 45/49/3 48/52/3 10/12/3 7/9/3
f 19/21/19 10/12/19 11/13/19 18/20/19
f 18/20/20 16/18/20 17/19/20 19/21/20
s 1
f 60/64/15 22/24/10 21/23/9 59/63/21
f 20/22/5 58/62/14 52/56/22 14/16/6
f 43/47/23 59/63/21 21/23/9 5/7/8
s 0
f 44/48/24 45/49/24 7/9/24 6/8/24
f 23/25/3 24/26/3 26/28/3 25/27/3
f 31/33/3 32/34/3 34/36/3 33/35/3
f 24/26/25 29/31/25 30/32/25 26/28/25
f 25/27/26 27/29/26 28/30/26 23/25/26
f 26/28/27 30/32/27 27/29/27 25/27/27
f 23/25/28 28/30/28 29/31/28 24/26/28
f 32/34/25 37/39/25 38/40/25 34/36/25
f 33/35/26 35/37/26 36/38/26 31/33/26
f 34/36/27 38/40/27 35/37/27 33/35/27
f 31/33/28 36/38/28 37/39/28 32/34/28
f 42/46/29 40/43/29 39/41/29 41/45/29
s 1
f 58/62/14 60/64/15 59/63/21 43/47/23 53/57/19 52/56/22
s 0
f 44/48/30 47/51/30 46/50/30 45/49/30
f 49/53/31 50/54/31 47/51/31 44/48/31
f 50/54/19 51/55/19 46/50/19 47/51/19
f 51/55/32 48/52/32 45/49/32 46/50/32
f 56/60/33 54/58/33 50/54/33 49/53/33
f 55/59/32 57/61/32 48/52/32 51/55/32
f 54/58/19 55/59/19 51/55/19 50/54/19
f 57/61/7 56/60/7 49/53/7 48/52/7
f 56/60/34 57/61/34 55/59/34 54/58/34
f 61/65/3 63/67/3 64/68/3 62/66/3
f 69/73/3 71/75/3 72/76/3 70/74/3
f 62/66/26 64/68/26 68/72/26 67/71/26
f 63/67/25 61/65/25 66/70/25 65/69/25
f 64/68/27 63/67/27 65/69/27 68/72/27
f 61/65/28 62/66/28 67/71/28 66/70/28
f 70/74/26 72/76/26 76/80/26 75/79/26
f 71/75/25 69/73/25 74/78/25 73/77/25
f 72/76/27 71/75/27 73/77/27 76/80/27
f 69/73/28 70/74/28 75/79/28 74/78/28
f 39/42/35 40/44/35 2/4/35 1/2/35
