# Blender 3.4.1
# www.blender.org
mtllib Stool.mtl
o Stool
v -0.073622 0.718177 -0.177740
v -0.000000 0.718177 -0.192385
v -0.136037 0.718177 -0.136037
v -0.177740 0.718177 -0.073622
v -0.192385 0.718177 0.000000
v -0.177740 0.718177 0.073622
v -0.136037 0.718177 0.136037
v -0.073622 0.718177 0.177740
v 0.000000 0.718177 0.192385
v 0.073622 0.718177 0.177740
v 0.136037 0.718177 0.136037
v 0.177740 0.718177 0.073622
v 0.192385 0.718177 -0.000000
v 0.177740 0.718177 -0.073622
v 0.136037 0.718177 -0.136037
v 0.073622 0.718177 -0.177740
v -0.000000 0.757014 -0.185308
v -0.000000 0.747697 -0.194683
v -0.074502 0.747697 -0.179864
v -0.070914 0.757014 -0.171202
v -0.137662 0.747697 -0.137662
v -0.131032 0.757014 -0.131032
v -0.179864 0.747697 -0.074502
v -0.171202 0.757014 -0.070914
v -0.194683 0.747697 0.000000
v -0.185308 0.757014 0.000000
v -0.179864 0.747697 0.074502
v -0.171202 0.757014 0.070914
v -0.137662 0.747697 0.137662
v -0.131032 0.757014 0.131032
v -0.074502 0.747697 0.179864
v -0.070914 0.757014 0.171202
v 0.000000 0.747697 0.194683
v 0.000000 0.757014 0.185308
v 0.074502 0.747697 0.179864
v 0.070914 0.757014 0.171202
v 0.137662 0.747697 0.137662
v 0.131032 0.757014 0.131032
v 0.179864 0.747697 0.074502
v 0.171202 0.757014 0.070914
v 0.194683 0.747697 -0.000000
v 0.185308 0.757014 0.000000
v 0.179864 0.747697 -0.074502
v 0.171202 0.757014 -0.070914
v 0.137662 0.747697 -0.137662
v 0.131032 0.757014 -0.131032
v 0.074502 0.747697 -0.179864
v 0.070914 0.757014 -0.171202
v 0.066494 0.728937 0.102065
v 0.107600 0.728937 0.102065
v 0.066494 0.728937 0.060959
v 0.107600 0.728937 0.060959
v 0.138144 0.000000 0.088064
v 0.097038 0.000000 0.088064
v 0.138144 0.000000 0.129170
v 0.097038 0.000000 0.129170
v -0.066494 0.728937 0.102065
v -0.107600 0.728937 0.102065
v -0.066494 0.728937 0.060959
v -0.107600 0.728937 0.060959
v -0.138144 0.000000 0.088064
v -0.097038 0.000000 0.088064
v -0.138144 0.000000 0.129170
v -0.097038 0.000000 0.129170
v 0.066494 0.728937 -0.102065
v 0.107600 0.728937 -0.102065
v 0.066494 0.728937 -0.060959
v 0.107600 0.728937 -0.060959
v 0.138144 0.000000 -0.088064
v 0.097038 0.000000 -0.088064
v 0.138144 0.000000 -0.129170
v 0.097038 0.000000 -0.129170
v -0.066494 0.728937 -0.102065
v -0.107600 0.728937 -0.102065
v -0.066494 0.728937 -0.060959
v -0.107600 0.728937 -0.060959
v -0.138144 0.000000 -0.088064
v -0.097038 0.000000 -0.088064
v -0.138144 0.000000 -0.129170
v -0.097038 0.000000 -0.129170
vn 0.3610 0.3320 -0.8715
vn 0.2755 -0.6941 -0.6651
vn -0.0000 -0.6941 -0.7199
vn -0.0000 0.3320 -0.9433
vn 0.5091 -0.6941 -0.5091
vn 0.6651 -0.6941 -0.2755
vn 0.7199 -0.6941 -0.0000
vn 0.6651 -0.6941 0.2755
vn 0.5091 -0.6941 0.5091
vn 0.2755 -0.6941 0.6651
vn -0.0000 -0.6941 0.7199
vn -0.2755 -0.6941 0.6651
vn -0.5091 -0.6941 0.5091
vn -0.6651 -0.6941 0.2755
vn -0.7199 -0.6941 -0.0000
vn -0.6651 -0.6941 -0.2755
vn -0.5091 -0.6941 -0.5091
vn -0.2755 -0.6941 -0.6651
vn -0.8715 0.3320 0.3610
vn -0.6670 0.3320 0.6670
vn 0.8715 0.3320 -0.3610
vn 0.6670 0.3320 -0.6670
vn -0.3610 0.3320 0.8715
vn -0.0000 0.3320 0.9433
vn 0.3610 0.3320 0.8715
vn -0.0000 0.9073 -0.4205
vn -0.1609 0.9073 -0.3884
vn -0.2973 0.9073 -0.2973
vn -0.3884 0.9073 -0.1609
vn -0.4205 0.9073 -0.0000
vn -0.3884 0.9073 0.1609
vn -0.2973 0.9073 0.2973
vn -0.1609 0.9073 0.3884
vn -0.0000 0.9073 0.4205
vn 0.1609 0.9073 0.3884
vn 0.2973 0.9073 0.2973
vn 0.3884 0.9073 0.1609
vn 0.4205 0.9073 -0.0000
vn 0.3884 0.9073 -0.1609
vn 0.2973 0.9073 -0.2973
vn 0.1609 0.9073 -0.3884
vn -0.3610 0.3320 -0.8715
vn -0.6670 0.3320 -0.6670
vn 0.6670 0.3320 0.6670
vn -0.8715 0.3320 -0.3610
vn 0.8715 0.3320 0.3610
vn -0.9433 0.3320 -0.0000
vn 0.9433 0.3320 -0.0000
vn -0.0000 -1.0000 -0.0000
vn -0.0000 -0.0372 -0.9993
vn -0.0000 0.0372 0.9993
vn 0.9991 0.0419 -0.0000
vn -0.9991 -0.0419 -0.0000
vn -0.9991 0.0419 -0.0000
vn 0.9991 -0.0419 -0.0000
vn -0.0000 -0.0372 0.9993
vn -0.0000 0.0372 -0.9993
vt 0.285278 0.981344
vt 0.294845 0.983247
vt 0.277167 0.975925
vt 0.271748 0.967815
vt 0.269845 0.958247
vt 0.271748 0.948680
vt 0.277167 0.940570
vt 0.285278 0.935150
vt 0.294845 0.933247
vt 0.304412 0.935150
vt 0.312523 0.940570
vt 0.317942 0.948680
vt 0.319845 0.958247
vt 0.317942 0.967815
vt 0.312523 0.975925
vt 0.304412 0.981344
vt 0.294845 0.981955
vt 0.294845 0.983247
vt 0.285278 0.981344
vt 0.285773 0.980151
vt 0.277167 0.975925
vt 0.278081 0.975012
vt 0.271748 0.967815
vt 0.272942 0.967320
vt 0.269845 0.958247
vt 0.271138 0.958248
vt 0.271748 0.948680
vt 0.272942 0.949175
vt 0.277167 0.940570
vt 0.278081 0.941484
vt 0.285278 0.935150
vt 0.285773 0.936345
vt 0.294845 0.933247
vt 0.294845 0.934540
vt 0.304412 0.935150
vt 0.303918 0.936344
vt 0.312523 0.940570
vt 0.311609 0.941483
vt 0.317942 0.948680
vt 0.316748 0.949175
vt 0.319845 0.958247
vt 0.318553 0.958247
vt 0.317942 0.967815
vt 0.316748 0.967320
vt 0.312523 0.975925
vt 0.311609 0.975011
vt 0.304412 0.981344
vt 0.303917 0.980150
vt 0.529672 0.948484
vt 0.555482 0.948484
vt 0.529672 0.974294
vt 0.555482 0.974294
vt 0.555482 0.974294
vt 0.529672 0.974294
vt 0.555482 0.948484
vt 0.529672 0.948484
vt 0.529672 0.948484
vt 0.555482 0.948484
vt 0.529672 0.974294
vt 0.555482 0.974294
vt 0.555482 0.974294
vt 0.529672 0.974294
vt 0.555482 0.948484
vt 0.529672 0.948484
vt 0.529672 0.948484
vt 0.555482 0.948484
vt 0.529672 0.974294
vt 0.555482 0.974294
vt 0.555482 0.974294
vt 0.529672 0.974294
vt 0.555482 0.948484
vt 0.529672 0.948484
vt 0.529672 0.948484
vt 0.555482 0.948484
vt 0.529672 0.974294
vt 0.555482 0.974294
vt 0.555482 0.974294
vt 0.529672 0.974294
vt 0.555482 0.948484
vt 0.529672 0.948484
s 1
usemtl Palette
f 47/47/1 16/16/2 2/2/3 18/18/4
f 2/2/3 16/16/2 15/15/5 14/14/6 13/13/7 12/12/8 11/11/9 10/10/10 9/9/11 8/8/12 7/7/13 6/6/14 5/5/15 4/4/16 3/3/17 1/1/18
f 27/27/19 6/6/14 7/7/13 29/29/20
f 43/43/21 14/14/6 15/15/5 45/45/22
f 29/29/20 7/7/13 8/8/12 31/31/23
f 45/45/22 15/15/5 16/16/2 47/47/1
f 31/31/23 8/8/12 9/9/11 33/33/24
f 33/33/24 9/9/11 10/10/10 35/35/25
f 17/17/26 20/20/27 22/22/28 24/24/29 26/26/30 28/28/31 30/30/32 32/32/33 34/34/34 36/36/35 38/38/36 40/40/37 42/42/38 44/44/39 46/46/40 48/48/41
f 19/19/42 1/1/18 3/3/17 21/21/43
f 35/35/25 10/10/10 11/11/9 37/37/44
f 21/21/43 3/3/17 4/4/16 23/23/45
f 37/37/44 11/11/9 12/12/8 39/39/46
f 23/23/45 4/4/16 5/5/15 25/25/47
f 39/39/46 12/12/8 13/13/7 41/41/48
f 25/25/47 5/5/15 6/6/14 27/27/19
f 41/41/48 13/13/7 14/14/6 43/43/21
f 20/20/27 17/17/26 18/18/4 19/19/42
f 22/22/28 20/20/27 19/19/42 21/21/43
f 24/24/29 22/22/28 21/21/43 23/23/45
f 26/26/30 24/24/29 23/23/45 25/25/47
f 28/28/31 26/26/30 25/25/47 27/27/19
f 30/30/32 28/28/31 27/27/19 29/29/20
f 32/32/33 30/30/32 29/29/20 31/31/23
f 34/34/34 32/32/33 31/31/23 33/33/24
f 36/36/35 34/34/34 33/33/24 35/35/25
f 38/38/36 36/36/35 35/35/25 37/37/44
f 40/40/37 38/38/36 37/37/44 39/39/46
f 42/42/38 40/40/37 39/39/46 41/41/48
f 44/44/39 42/42/38 41/41/48 43/43/21
f 46/46/40 44/44/39 43/43/21 45/45/22
f 48/48/41 46/46/40 45/45/22 47/47/1
f 17/17/26 48/48/41 47/47/1 18/18/4
f 18/18/4 2/2/3 1/1/18 19/19/42
s 0
f 56/56/49 54/54/49 53/53/49 55/55/49
f 53/53/50 54/54/50 51/51/50 52/52/50
f 56/56/51 55/55/51 50/50/51 49/49/51
f 55/55/52 53/53/52 52/52/52 50/50/52
f 54/54/53 56/56/53 49/49/53 51/51/53
f 64/64/49 63/63/49 61/61/49 62/62/49
f 61/61/50 60/60/50 59/59/50 62/62/50
f 64/64/51 57/57/51 58/58/51 63/63/51
f 63/63/54 58/58/54 60/60/54 61/61/54
f 62/62/55 59/59/55 57/57/55 64/64/55
f 72/72/49 71/71/49 69/69/49 70/70/49
f 69/69/56 68/68/56 67/67/56 70/70/56
f 72/72/57 65/65/57 66/66/57 71/71/57
f 71/71/52 66/66/52 68/68/52 69/69/52
f 70/70/53 67/67/53 65/65/53 72/72/53
f 80/80/49 78/78/49 77/77/49 79/79/49
f 77/77/56 78/78/56 75/75/56 76/76/56
f 80/80/57 79/79/57 74/74/57 73/73/57
f 79/79/54 77/77/54 76/76/54 74/74/54
f 78/78/55 80/80/55 73/73/55 75/75/55
