# Blender 3.4.1
# www.blender.org
mtllib Table.mtl
o Table
v 0.924025 0.983732 0.375000
v 0.901065 0.946654 0.349636
v -0.924026 0.983732 0.375000
v -0.901067 0.946654 0.349636
v 0.924025 0.983732 -0.375000
v 0.901065 0.946654 -0.349635
v 0.103181 0.026168 -0.107584
v 0.103181 0.026168 0.107584
v -0.103181 0.026168 -0.107584
v -0.103181 0.026168 0.107584
v 0.124692 -0.000000 0.130013
v -0.124693 -0.000000 0.130013
v 0.124692 0.000000 -0.130013
v -0.124693 0.000000 -0.130013
v -0.924026 0.983732 -0.375000
v -0.901067 0.946654 -0.349635
v -0.069384 0.960746 0.072345
v 0.069385 0.960746 0.072345
v 0.069385 0.960746 -0.072345
v -0.069384 0.960746 -0.072345
v -0.047451 0.008198 -0.049477
v 0.047453 0.008198 -0.049477
v -0.047451 0.008198 0.049477
v 0.047453 0.008198 0.049477
vn -0.0000 -1.0000 -0.0000
vn -0.0000 -0.5646 0.8254
vn -0.0000 1.0000 -0.0000
vn -0.0000 -0.5646 -0.8254
vn 0.8502 -0.5265 -0.0000
vn -0.9997 -0.0230 -0.0000
vn -0.0000 -0.0240 0.9997
vn -0.0000 0.6508 -0.7593
vn 0.7725 0.6350 -0.0000
vn -0.0000 -0.0240 -0.9997
vn 0.9997 -0.0230 -0.0000
vn -0.7725 0.6350 -0.0000
vn -0.0000 0.6508 0.7593
vn -0.8502 -0.5265 -0.0000
vt 0.304827 0.870805
vt 0.289661 0.870805
vt 0.304827 0.870805
vt 0.289661 0.870805
vt 0.304827 0.870805
vt 0.289661 0.870805
vt 0.289661 0.870805
vt 0.289661 0.870805
vt 0.289661 0.870805
vt 0.289661 0.870805
vt 0.289661 0.870805
vt 0.289661 0.870805
vt 0.289661 0.870805
vt 0.289661 0.870805
vt 0.304827 0.870805
vt 0.289661 0.870805
vt 0.289661 0.870805
vt 0.289661 0.870805
vt 0.289661 0.870805
vt 0.289661 0.870805
vt 0.289661 0.870805
vt 0.289661 0.870805
vt 0.289661 0.870805
vt 0.289661 0.870805
s 0
usemtl Palette
f 4/4/1 16/16/1 6/6/1 2/2/1
f 4/4/2 2/2/2 1/1/2 3/3/2
f 1/1/3 5/5/3 15/15/3 3/3/3
f 16/16/4 15/15/4 5/5/4 6/6/4
f 2/2/5 6/6/5 5/5/5 1/1/5
f 10/10/3 8/8/3 7/7/3 9/9/3
f 23/23/6 17/17/6 20/20/6 21/21/6
f 24/24/7 18/18/7 17/17/7 23/23/7
f 13/13/8 14/14/8 9/9/8 7/7/8
f 11/11/9 13/13/9 7/7/9 8/8/9
f 21/21/10 20/20/10 19/19/10 22/22/10
f 22/22/11 19/19/11 18/18/11 24/24/11
f 12/12/1 14/14/1 13/13/1 11/11/1
f 14/14/12 12/12/12 10/10/12 9/9/12
f 12/12/13 11/11/13 8/8/13 10/10/13
f 3/3/14 15/15/14 16/16/14 4/4/14
